<svg xmlns="http://www.w3.org/2000/svg" viewBox="0 0 1421.45 556.37"><title>biglogo_svg</title><g id="Layer_2" data-name="Layer 2"><g id="Layer_1-2" data-name="Layer 1"><g id="zAvOfL"><path d="M488.3,451.92,484.21,449c-1.16,3.07-.81,5.86-1.22,8.52s-.68,5.5-1,8.26-.49,5.26-.83,7.88a32.81,32.81,0,0,1-1.9,8.2,4.8,4.8,0,0,1-.55-1.53c.11-3.3.27-6.6.46-9.89.38-6.73.74-13.46,1.2-20.18a6.27,6.27,0,0,0-3.25-6.26c-4.35-2.74-8.57-5.67-13.31-8.82a19.45,19.45,0,0,0-.21,2.63,53.29,53.29,0,0,1-.9,14.21c-.73,3.91-2,7.7-5.22,10.43-3.9,3.36-7.86,6.64-11.81,9.94-.92.76-1.92,1.4-2.85,2.15-10.63,8.68-22.69,15-34.83,21.17-6.24,3.18-12.39,6.54-18.63,9.72-4.35,2.22-8.75,4.33-13.17,6.41Q367.42,516,358.57,520c-13.49,6.11-26.9,12.4-40.51,18.23-9.35,4-18.92,7.53-28.49,11-5.84,2.11-11.85,3.76-17.83,5.41a44.63,44.63,0,0,1-7.82,1.29,111.09,111.09,0,0,1-21-.06c-2.49-.24-5-.49-7.48-.63a224.19,224.19,0,0,1-33.78-4.2c-5.94-1.23-11.76-3.06-17.56-4.86-10.73-3.33-21.23-7.3-31.68-11.43a72,72,0,0,1-18.95-10.6c-2.15-1.74-4.69-3-6.83-4.75a183,183,0,0,1-29.86-30,131.28,131.28,0,0,1-14-23.44c-1.91-4-2.63-8.29-3.49-12.57-1.47-7.25-.21-14.18,2.14-21a82.34,82.34,0,0,0,2.37-9.71,44.12,44.12,0,0,0-6.54,4c-6,3.95-5.48,2.62-6.24,10.41-.43,4.31,0,8.7.15,13.06,0,1.32.2,2.63.22,3.95a151.08,151.08,0,0,0,2.74,25.19c.21,1.14.81,2.26-.19,3.72a6.93,6.93,0,0,1-1-1.65c-1.07-4.5-2.33-9-3-13.52A201.05,201.05,0,0,1,68,437a23.73,23.73,0,0,0-.24-3.15c0-.35-.38-.65-.65-1.09-4.42,1.12-7.25,3.77-8,8.26a69.55,69.55,0,0,0-1,9.43c-.25,7-.31,14-.08,21,0,1.24.37,2.62-.73,3.74-1.49-2.14-2.1-4.83-2.4-11.81-.17-4-.17-7.94-.08-11.9s.4-8.11.64-12.48a9.85,9.85,0,0,0-2.18.35c-4.11,1.82-8.36,3.42-12.25,5.63-3.31,1.89-6.15,4.6-6.69,8.75-.62,4.71-1.16,9.44-1.59,14.17s-.6,9.23-1,13.84a12.15,12.15,0,0,1-1.53,5,6.32,6.32,0,0,1-.75-1.93c-.15-7.8-.48-15.6.44-23.38.37-3.14.57-6.31.8-9.47,0-.34-.26-.71-.49-1.26a7,7,0,0,0-1.86.32c-2.39,1.12-4.74,2.34-7.12,3.5a3.41,3.41,0,0,0-2.08,3.08c-.47,6.06-1.13,12.1-1.54,18.16-.39,5.66-.55,11.34-.82,17,0,.51-.14,1-.33,2.39a16.15,16.15,0,0,1-2.11-7.4c0-6.6-.41-13.2.52-19.8a20.73,20.73,0,0,0-.3-9.3,11.86,11.86,0,0,0-2.64.53c-2.76,1.28-5.46,2.7-8.21,4-1.18.56-2.44,1-3.66,1.44v-5.56q23.75-11.49,47.5-23c5.12-2.48,10.29-4.85,15.38-7.37,2.37-1.16,4.75-2.39,5.75-4.28,2.55-1.11,4.62-1.89,6.56-2.89,1.52-.78,2.82-2,4.36-2.73,5.28-2.49,7.67-6.81,8.78-12.34.94-4.65,2.48-9.18,3.73-13.77a14.64,14.64,0,0,0,.26-1.68,5.94,5.94,0,0,0-1.26-.89c-3.61-1.24-5.87-3.91-7.63-7.13-2.92-5.35-5.7-10.76-7.08-16.75-.71-3.08-1.39-6.18-1.87-9.3-.75-5-1.36-9.95-1.94-14.93a68.33,68.33,0,0,1,.34-20.93c.81-4.25,2.91-8,5.2-11.5,1.87-2.86,5.2-3.47,8.55-2.71,1.77.4,3.49,1.06,5.41,1.66.27-4.12.47-8.05.83-12,.28-3.15.58-6.32,1.17-9.43,1.49-7.78,2.91-15.57,4.84-23.29,1.49-6,1.88-12.25,2.74-18.4a15.22,15.22,0,0,1,.25-2.36c.82-2.58.43-4.65-2.09-6.1a2.46,2.46,0,0,1-1.1-1.56,40.28,40.28,0,0,1-.79-7.85c.2-3.57.57-7.1-.13-10.65a7.84,7.84,0,0,1-.08-1.19c-.3-7.13-.38-14.27-1-21.38-.56-6.74-.06-13.43.19-20.13.2-5.41,1-10.79,1.31-16.19.71-11.65,3.07-23,5.2-34.48.65-3.48,2-6.83,3-10.24,2.62-8.74,5.4-17.42,9.69-25.51C123,75,130.1,62.25,139.49,51.06c5.94-7.08,12.15-14,19.53-19.67,4.08-3.15,8-6.48,12-9.73a12.14,12.14,0,0,1,1.91-1.4c6.1-3.15,12.15-6.43,18.37-9.34A94.5,94.5,0,0,1,213.57,4c3.24-.63,6.4-1.63,9.64-2.23A96,96,0,0,1,241,0c4.76,0,9.53,0,14.29.17,6.25.23,12.3,1.73,18.28,3.41a198.23,198.23,0,0,1,27.62,9.88c4.33,1.94,8.45,4.36,12.64,6.63Q326,26.71,338.15,33.4q12.69,7,25.36,14a108.71,108.71,0,0,0,34.17,12.28q7.43,1.28,14.86,2.43c7.68,1.2,15.3.4,22.85-1a128.63,128.63,0,0,0,13.9-3.25C458.38,55,467.37,51.94,476.4,49c2.89-1,5.76-2,8.64-2.92a60.71,60.71,0,0,0,22.17-12.79c2.13-2,4.36-3.84,6.49-5.81,1.94-1.8,3.78-3.65,4.74-6.26.6-1.63,1.68-1.81,3.18-1a5,5,0,0,1,2.72,3.24c.24,1,.72,2,.88,3.05.72,4.69,1.38,9.4,2.06,14.1.24,1.7.45,3.4.71,5.1a176.32,176.32,0,0,1,1.76,27.65c-.06,8.59.11,17.18-.12,25.77-.15,5.8-.81,11.59-1.27,17.38a66.67,66.67,0,0,1-.76,7.49c-1.32,6.74-2.35,13.59-4.37,20.13a48.68,48.68,0,0,1-9.83,18c-6.34,7.24-14.36,12-23.12,15.65a14.07,14.07,0,0,1-7.4.88c-3.14-.41-6.29-.81-9.44-1.14a15.92,15.92,0,0,0-2.55.12c-1.39,1.41-1.4,3-1.59,4.59-.33,2.76-.53,5.54-1.07,8.25s-1.5,5.35-2.17,8c-.25,1-.62,2.26-.22,3,.88,1.7.59,3.28.41,5-.89,8.27-1.6,16.57-2.54,24.84-1.16,10.24-2.45,20.47-3.74,30.69-.77,6.17-1.67,12.31-2.43,18.48a38.65,38.65,0,0,0,0,4.6c2.61-.44,4.94-.7,7.19-1.26,3.57-.88,6.85.06,10,1.44,2.29,1,3.5,3.26,4.69,5.26,3.29,5.59,6.35,11.32,7.19,17.92a17.32,17.32,0,0,0,.63,3.11c3.25,10.05,2.32,20.15,0,30.16A26.88,26.88,0,0,1,478,356.24a13.1,13.1,0,0,1-6,2.89,31.45,31.45,0,0,1-12.6.34c-1.77-.36-3.6-.46-5.66-.71a17.66,17.66,0,0,0-.12,3c.77,5.49,1.63,11,2.42,16.47.49,3.4.92,6.81,1.36,10.21.91,7.08,1.84,14.15,2.72,21.23.48,3.93.86,7.87,1.29,11.81a27.73,27.73,0,0,1,.42,3.94c-.09,3.16,1.57,5.1,4.08,6.7,3.9,2.48,7.7,5.14,11.56,7.69.84.55,1.79.94,3,1.57.38-2.11.7-3.83,1.13-6.22.87,1,1.6,1.42,1.72,2a13.34,13.34,0,0,1,.26,3.93,4.68,4.68,0,0,0,2.66,4.87c1.83,1.06,3.58,2.26,5.4,3.35q13.44,8,26.9,16.06c1.11.67,2.47,1.11,2.54,2.92-1.1,1.56-2.68,1.37-4.13.65-1.64-.82-3.13-2-4.7-2.93-2.24-1.4-4.49-2.79-6.76-4.15a10.17,10.17,0,0,0-1.87-.56c2.22,9.66-.78,17.89-5.91,25.77a4,4,0,0,1-.26-1.6c.66-2.56,1.43-5.1,2.16-7.64.59-2,1.28-4,1.75-6.1a17.26,17.26,0,0,0-2.09-13,3.93,3.93,0,0,0-1.3-1.44c-3.2-1.84-6.45-3.6-9.68-5.39Zm30.17-374h6a39.83,39.83,0,0,0,.24-8.3c-.24-6.73-.41-13.48-1-20.19-.51-5.78-1.52-11.52-2.39-17.27a15.89,15.89,0,0,0-1.05-2.88c-3.3,1.84-5.35,4.49-7.84,6.64-4.11,3.53-8.28,7-13.29,9.25-3.62,1.63-7.19,3.35-10.8,5a28.59,28.59,0,0,1-3,1.1c-7.67,2.49-15.35,4.95-23,7.46-3,1-5.92,2.45-9,3.08-7.63,1.54-15,4.14-22.9,4.69a93.75,93.75,0,0,1-17.41-.09c-5.25-.61-10.43-1.6-15.63-2.55a124.87,124.87,0,0,1-35.77-12.61c-6.2-3.25-12.16-7-18.3-10.35-8.8-4.85-17.64-9.62-26.49-14.38-5.12-2.75-10.09-5.8-15.76-7.72-1.4.52-2.8,2.83-4.62.42.35-.87.66-1.62,1-2.4a184.39,184.39,0,0,0-26-9.24A90.54,90.54,0,0,0,246,4.33c-4.35,0-8.71.37-13.06.6-10.54.54-20.62,3.3-30.53,6.64a118.68,118.68,0,0,0-29.37,14.66,146.3,146.3,0,0,0-18.89,15.69c-1.8,1.75-3.29,3.81-5.07,5.58A101.75,101.75,0,0,0,136.4,63.2a223.3,223.3,0,0,0-16.91,30.05,80.92,80.92,0,0,0-3.82,9.14c-3,9.3-6.41,18.45-8.21,28.15-1.74,9.37-3,18.78-4,28.24-.73,7-1.1,14-1.56,20.95a49.06,49.06,0,0,0,.07,5.94c.42,7.26,1,14.5,1.32,21.76.22,5.41.06,10.85.18,16.27,0,2.5.33,5,.62,7.5a3.14,3.14,0,0,0,1,2.05c2.14,1.4,2.29,3.47,2.14,5.62-.29,4.22-.63,8.44-1.08,12.64a19.77,19.77,0,0,0,0,6.69,5.41,5.41,0,0,1-.3,3.05,118.68,118.68,0,0,0-6.87,24.8c-1.3,7.57-2.27,15.17-1.87,22.89.11,2.11.21,4.21,1.49,5.93,7.54,1.5,9.63,1.59,13,.53a6.8,6.8,0,0,0,.67-1.35c1.23-4.6,2.47-9.19,3.61-13.81,1.58-6.42,2.87-12.91,4.64-19.27a323.25,323.25,0,0,1,12.08-34.85c1.19-3,2.37-6,5.76-7.16a4.21,4.21,0,0,0,1-.69c4.17-3,8.34-6.06,12.52-9.07,1.78-1.27,3.6-2.49,6-4.11-1.78-.41-2.89-.72-4-.91-3-.51-6-.91-9-1.47-3.49-.65-6.91-1.92-10.55-1a3,3,0,0,1-3.06-1.91,2.37,2.37,0,0,1,1.26-2.68,15,15,0,0,1,2.56-1c4.5-1.54,9-3.05,13.5-4.63a13.43,13.43,0,0,0,2.3-1.43c-1.27-.92-2.16-1.65-3.12-2.26-1.12-.71-2.38-1.2-3.43-2a21.5,21.5,0,0,0-8.11-4,4.17,4.17,0,0,1-2.06-1.07,1.78,1.78,0,0,1,1-3.3,6.76,6.76,0,0,1,2.34.2,122.68,122.68,0,0,0,15.58,1.25,6.94,6.94,0,0,0-.35-2,25.68,25.68,0,0,0-2.55-4c-3.57-4.24-7.24-8.41-10.86-12.61a18.83,18.83,0,0,1-2.26-2.73,1.87,1.87,0,0,1,1.58-2.87,7.92,7.92,0,0,1,1.19,0c6.86.28,13.72.73,20.59.79a22.31,22.31,0,0,1,12,3.48,35.86,35.86,0,0,1,6.81,5.38c2.29,2.38,4.76,4.61,6.93,7.09,5.65,6.46,12.79,10.56,20.71,13.51,3.1,1.15,6.19,2.33,9.25,3.58,5.27,2.17,10.56,4.23,16.27,4.95,2.09.26,4.21.41,6.3.68s2.93,1,3,3a58,58,0,0,1-.35,7.91c-.53,4.32-1.3,8.61-2,12.92a11.08,11.08,0,0,1-.64,3.47A12.28,12.28,0,0,1,236,244c2.17,1.63,4.37,3.11,6.34,4.83,2.72,2.38,4.25,5.34,3.73,9.13-.58,4.19-.93,8.41-1.61,12.58a72.78,72.78,0,0,1-4.22,16.07c-1.41,3.41-3.52,6.36-6.81,8a39.31,39.31,0,0,1-8.33,2.51c-2.83.65-5.74.94-8.59,1.52-4.66.93-9.28,2.16-14.11,1.85a12,12,0,0,0-2,.21c-7.24.68-14.47,1.34-21.7,2-5.19.49-10.31-.37-15.4-1a26.88,26.88,0,0,1-11-4.21,28.16,28.16,0,0,1-9-9.91,27.13,27.13,0,0,1-3.16-19.9A50.05,50.05,0,0,1,146,253.7a17,17,0,0,1,5-5.57,6.69,6.69,0,0,1,1.69-.6c.06.6.18.9.09,1.1a18,18,0,0,1-1.11,2.08,61.41,61.41,0,0,0-7.22,17.54,20.26,20.26,0,0,0-.26,8.66,28.73,28.73,0,0,0,5.24,12.24c3.46,4.76,8.23,7.06,13.53,8.33a47,47,0,0,0,11.42,1c5.14-.07,10.28-.66,15.41-1.09,4.61-.38,9.21-.83,13.81-1.3,3.15-.33,6.3-.67,9.43-1.15,3.91-.61,7.81-1.36,11.71-2.06,1-.19,2.06-.48,3.1-.69,4.61-.89,7.3-4,9.13-8a13.79,13.79,0,0,0,1-3c.94-4.79,1.91-9.58,2.68-14.4.48-3,.38-6.1,1-9,.7-3.24-.64-5.35-2.9-7.25a20.34,20.34,0,0,0-12-4.71A43.64,43.64,0,0,1,208.35,240a67.86,67.86,0,0,0-23.85-8.14c-11.21-1.59-21.83.39-32.17,4.62-4.46,1.82-8.16,4.86-12.21,7.32a10.74,10.74,0,0,0-4.71,6.07c-1.91,5.35-3.67,10.76-5.6,16.1-3.92,10.85-6.36,22.1-9.08,33.27-1.38,5.65-2.75,11.31-4.35,16.9-1.12,3.91-2.43,4.51-6.47,3.93-3.14-.45-6.29-.84-9.43-1.2a4.17,4.17,0,0,0-1.37.29c-.7,1.46.21,2.46.54,3.56s.55,2.33-.72,3.12c-2.09-.75-2.21-.68-2.64-1.47a62.48,62.48,0,0,1-3.35-6.7,9.21,9.21,0,0,0-5.6-5.76c-3.22-1.14-5.38-.34-6.89,2.74-3,6.17-4.73,12.6-3.59,19.55a14.55,14.55,0,0,1,.12,2.38,113.11,113.11,0,0,0,1.77,18.54c1.43,9.09,4,17.78,8.79,25.74,1.09,1.82,2.13,3.62,4.1,4.6,2.41-2.7,3.73-7.73,4-15-2.92-2.57-3-2.57-2.85-6.73.16-4.49.5-9,.69-13.45a15.11,15.11,0,0,0-.44-2.74c-1.33.44-2.3.84-3.31,1.07a5.42,5.42,0,0,1-2.33.11A2.21,2.21,0,0,1,86,347.47a2.26,2.26,0,0,1,.47-1.77,4.69,4.69,0,0,1,1.62-1.1c2.34-1.21,4.74-2.34,7-3.63a3.17,3.17,0,0,1,3.7,0c1.24.88.74,2.09.55,3.26-.55,3.23-1,6.46-1.55,9.76,4.23-.22,5.62.82,5.29,4-.52,5-1,10-1.87,14.94a203.71,203.71,0,0,1-6.57,29,33.8,33.8,0,0,0-1.47,5.36,109.29,109.29,0,0,1-3.75,14.92c-1.43,4.82-2.67,9.69-4,14.53a41,41,0,0,0-.26,20.78c2.18,9.31,7.13,17.33,12.23,25.21,3.82,5.9,8.79,10.91,13.54,16a162.49,162.49,0,0,0,23.9,21.36,95.09,95.09,0,0,0,21.52,11.7q15.53,6,31.35,11.3a178.78,178.78,0,0,0,18,4.75c8.27,1.82,16.72,2.46,25.13,3.37a227.66,227.66,0,0,0,25.3,1.52c6.67,0,13.21-.58,19.45-3.19a29.83,29.83,0,0,1,4.54-1.41A147.61,147.61,0,0,0,302,540.81c6.37-2.61,12.89-4.84,19.16-7.64,10.63-4.74,21.11-9.81,31.65-14.73q7.36-3.45,14.74-6.87c5.15-2.39,10.38-4.65,15.48-7.15,4.86-2.39,9.62-5,14.41-7.54,8.65-4.58,17.34-9.08,25.92-13.8,9.54-5.25,17.89-12.24,26.52-18.79a20,20,0,0,0,7.66-11.76,47.2,47.2,0,0,0,1.13-10.6,107,107,0,0,0-1.16-12.22c-1.11-8.78-2.36-17.55-3.47-26.33-.84-6.56-1.45-13.14-2.34-19.68-.66-4.85-1.73-9.63-2.39-14.47-1.52-11.27-3-22.54-3.33-33.92a13.84,13.84,0,0,0-.5-2.29c-1.45-.63-2.81-1.13-4.08-1.81-2-1.09-3.7-2.48-4-5-.7-5.5-1.86-10.95-1.61-16.55a19.76,19.76,0,0,0-.13-2.77c-.45-5.14-1-10.26-1.33-15.4-.4-6.46-.61-12.94-.9-19.41-.05-.92-.08-1.85-.2-2.77-.86-6.81-1.75-13.62-2.62-20.43-.24-1.86.32-3,1.53-3.15a3.46,3.46,0,0,1,3.66,2.38c.11.51.07,1.05.13,1.58.41,3.41.81,6.82,1.24,10.22.36,2.75.89,5.49,1.12,8.25.89,10.8,1.68,21.6,2.51,32.4.24,3,.69,6.06.72,9.09a65.88,65.88,0,0,0,1.32,12.6c.36,1.77.56,3.57.87,5.59l3-.33a79.79,79.79,0,0,0,1-8.44,180.34,180.34,0,0,1,3.22-29.13c.95-5.19,1.19-10.5,1.84-15.74,1-8,2.12-16,3.06-24,1.13-9.58,2.11-19.18,3.17-28.76.41-3.68,1-7.34,1.26-11,.23-3.52,1.69-7,.47-10.61-.25-.76.23-1.79.43-2.69,1.26-5.81,2.57-11.61,3.79-17.43a16.83,16.83,0,0,0,0-3.27,23.48,23.48,0,0,0-3-1.15c-7.32-1.8-14.65-3.52-22-5.32-1.53-.38-3.25-.64-4.45-1.53a20.21,20.21,0,0,0-11.9-3.81,87.81,87.81,0,0,0-27.08,3c-4.32,1.25-8.67,2.41-13,3.66q-7.61,2.22-15.19,4.52c-6.07,1.85-12.12,3.75-18.19,5.58-2.28.69-4.56,1.41-6.89,1.88a181.6,181.6,0,0,0-28.87,8.57,76.27,76.27,0,0,1-7.84,2.81c-8.69,2.29-17.42,4.44-26.16,6.56a31.06,31.06,0,0,1-5.1.64c-1.85.14-3.71.06-5.55.23a118.3,118.3,0,0,1-23.35,0,112,112,0,0,1-22-4.9c-7.56-2.37-14.91-5.4-22.28-8.33-8.36-3.32-16.59-6.94-25-10.23-6.87-2.7-13.59-6-21.17-6.37-1.41-.07-2.9-.6-3.16-2.4,1.81-2,2-2.2,4-1.88a57.68,57.68,0,0,1,7.72,1.68c8.62,2.64,16.85,6.28,25.12,9.82,4.13,1.77,8.35,3.32,12.49,5.07,10.13,4.26,20.3,8.41,31,11.07,5.76,1.44,11.53,2.83,17.55,3.06a169.44,169.44,0,0,0,17-.39,132,132,0,0,0,14.91-2,115.79,115.79,0,0,0,11.55-2.84c5.47-1.55,10.91-3.22,16.33-4.93,8.44-2.66,16.74-5.89,25.32-8,10.44-2.53,20.5-6.22,30.87-8.92,9.33-2.44,18.56-5.32,27.82-8,5.49-1.61,11.19-2,16.81-2.78a42.89,42.89,0,0,1,20.72,2,176.33,176.33,0,0,0,18.13,5.69c4.75,1.12,9.47,2.35,14.07,3.49l2.26-1.36c2.49,1,4.64,1.91,6.88,2.6,3.87,1.18,7.87.78,11.83.63a7.84,7.84,0,0,0,3-.8c5.1-2.49,10.32-4.75,14.71-8.52a47.67,47.67,0,0,0,11.85-14.2A65,65,0,0,0,520,136.64a92.25,92.25,0,0,0,3.31-19.11c.23-5.14,1.12-10.25,1.33-15.39.25-6.21.11-12.44.09-18.66a11.77,11.77,0,0,0-.39-2.22L518.44,78ZM149.83,203.43l-.17.72,1.28.83c2.42,1.62,4.85,3.22,7.25,4.87a2.65,2.65,0,0,1,1.34,2.69,2.51,2.51,0,0,1-2.25,2c-.9.19-1.82.35-2.73.51a39.93,39.93,0,0,0-10.15,3.13,6.78,6.78,0,0,0,1.59.92,55.19,55.19,0,0,0,6.24.91,26.52,26.52,0,0,1,10.36,2.43c2.16,1.05,2.33,2.61.74,4.44-.4.46-.88.86-1.68,1.64,4.36-.27,8.16-.36,11.93-.78a48.13,48.13,0,0,1,19.17,2,87.83,87.83,0,0,1,20.39,8.66,26.24,26.24,0,0,0,6.19,2.64c2.38.7,4.81,1.54,7.39,1,1.66-.38,3.33-.71,5-1.12,1-.24,1.95-.6,2.88-.89.34-2.88.83-5.49.9-8.11s1.5-5.11.43-7.67a4.12,4.12,0,0,0-3.86-.51c.44,1,.83,1.94,1.25,2.92-.63.23-1,.54-1.33.47-3.6-.86-7.2-1.73-10.77-2.71a2.83,2.83,0,0,1-1.82-1.34c-.57-1.7-2-2.37-3.26-3.3-.78-.57-1.83-1.06-1.64-2.61,2.52.56,4.91,1.25,7.34,1.58a48.58,48.58,0,0,0,7.9.47c2.37-.08,4.77,1,7.25.13-.54-1.69-1.78-1.23-2.72-1.4a54,54,0,0,1-7.36-1.36c-7.65-2.53-15.22-5.29-22.82-8-.37-.13-.74-.3-1.1-.46a65.28,65.28,0,0,1-23.66-18.24A22.87,22.87,0,0,0,172.9,184c-3.77-2.13-7.49-4.47-12.1-4.49-5.28,0-10.55-.22-15.83-.31-.14,0-.3.37-.62.8.7.84,1.44,1.73,2.17,2.63,2.76,3.37,5.65,6.65,8.23,10.16a44.34,44.34,0,0,1,4.36,7.52c1.12,2.39,0,3.85-2.64,3.86-.78,0-1.57-.21-2.36-.29C152.69,203.69,151.26,203.56,149.83,203.43Zm302.56,148.9c5.42,3.58,10.8,3.94,16.46,2.82a13,13,0,0,0,7.17-4c3.1-3.32,5.58-7.06,6.48-11.63,1.53-7.69,2.47-15.41.78-23.21-.8-3.75-1.5-7.52-2.38-11.25a42.65,42.65,0,0,0-6-13.32c-2.1-3.28-4.94-4.64-8.78-3.75a12.24,12.24,0,0,1-1.55.33c-3.09.29-4.71,2.2-5.43,5-.65,2.55-1.11,5.16-1.74,7.72-.21.87-.42,2-1.05,2.46-2.88,1.95-3.28,5-3.67,7.95-.45,3.4-.53,6.84-1.05,10.23-.75,4.82-1.5,9.54-.66,14.51C451.87,341.53,452,347,452.39,352.33Z"/><path d="M0,291.52c2.24.21,3.85,1.65,5.44,3s1.5,2.46-.55,4.67L0,296.29Z"/><path d="M1319.13,482.21c.37,1.24.72,2.48,1.11,3.71,1.43,4.52,3,9,4.29,13.57a89.23,89.23,0,0,1,2.54,10.78,32.69,32.69,0,0,1,.17,8.27,5.74,5.74,0,0,1-4.18,4.86,11.39,11.39,0,0,1-3.46.77c-4.76,0-9.53.32-14.25-.6-4.92-1-9.95-1.51-14.76-2.85-4.17-1.16-8.11-3.17-12.15-4.78a4.93,4.93,0,0,1-3.38-5.22c.11-5.55,0-11.11,0-16.67V488.1a14.73,14.73,0,0,0-2.16,2.46c-1.87,4-5,7.17-7.74,10.5a18.9,18.9,0,0,1-8.16,5.48q-4.85,1.79-9.82,3.18a46.49,46.49,0,0,1-14.89,1.94c-5.14-.25-10.32-.2-15.42-.79-8-.91-15.38-3.77-22.68-7a6.7,6.7,0,0,1-1.4-.74c-5.14-3.9-11.18-6.63-15.22-11.93-.21-.28-.64-.39-1.28-.76a10.53,10.53,0,0,0-.21,2.36c.23,1.7.59,3.39.93,5.07a4,4,0,0,1-2,4.37,8,8,0,0,1-5.29,1.33c-4-.34-7.89-.77-11.83-1.18-.79-.08-1.57-.29-2.35-.32-7.4-.28-14.79-.69-22.19-.73-4.48,0-9,.49-13.44.83a78.13,78.13,0,0,1-16.17-.93c-2.24-.3-3.47-1.64-4.07-3.92-3.44,0-6.75.16-10,0-7.25-.43-14.49-1-21.73-1.59-3.82-.3-7.65-.53-11.45-1-6.88-.88-6.77-1.38-7.55-7.46-.6-4.68-.6-9.44-.86-14.11a31.67,31.67,0,0,0-13.78-8,14,14,0,0,0,0,2.25c.72,4.57,1.52,9.13,2.24,13.7.5,3.16-.41,4.2-3.59,3.77-9.31-1.24-18.58-2.63-27.78-4.53-5.18-1.07-10.38-2.06-15.57-3.07-.62-.12-1.27-.16-2.11-.26-.58,2.26.08,4.36.49,6.3.72,3.39,0,6.6-.56,9.82s-2.62,4.81-5.81,5a47.27,47.27,0,0,1-6.73-.13c-5.27-.47-10.51-1.14-15.77-1.63-4.21-.39-8.43-.64-12.64-1a57.13,57.13,0,0,1-6.3-.53,10.78,10.78,0,0,0-5.44.54c-7.94,2.52-15.88,5.06-23.85,7.47a48.54,48.54,0,0,1-15.33,1.61,4.13,4.13,0,0,1-3.82-2.38c-.79-1.53-1.6-3.06-2.26-4.64Q883.72,483.75,878,470c-.58-1.4-1-2.84-1.78-4.8a8.64,8.64,0,0,0-.48,1.69c.39,8.32-.41,16.67.73,25a21.64,21.64,0,0,1,0,4.76,5.52,5.52,0,0,1-5.67,5.44c-3,.12-6.09.05-9.13,0-5.56,0-11.12,0-16.67-.12-3.3-.09-6.59-.43-9.88-.77-2.95-.31-3.61-1.16-3.3-4.13.47-4.59,1.25-9.17,1.5-13.78.3-5.52.18-11.07.23-16.61a10.19,10.19,0,0,0-.54-4c-.78,1.63-1.62,3.23-2.32,4.89-1.31,3.08-2.83,6-5.76,7.86a17.56,17.56,0,0,0-2.68,2.36c-5,4.85-11.31,7.28-17.59,9.64a101.88,101.88,0,0,1-27.79,6.29c-8,.63-15.81-1-22.46-6.09-1.45-1.12-2.93-2.22-4.56-3.45a17,17,0,0,0-3.73,5.55,3.13,3.13,0,0,0,.22,3c.94,1.89,1.85,3.81,2.62,5.77.63,1.57,1.24,3.21.65,4.93-2.42.39-2.55.32-3.31-1.54-.85-2.07-1.7-4.15-2.58-6.21a4.58,4.58,0,0,0-.69-.9c-2.19,1.27-2.4,1.61-1.62,3.17.86,1.73,2.27,3.24,2.27,5.37-1.47,1.22-2.56.54-3.51-.46s-1.67-2-2.53-3c-2.71.77-4.43,2.68-6.37,4.2-.94.74-.64,1.94-.28,3,.91,2.62,1.89,5.22,2.74,7.86a9.82,9.82,0,0,1,.2,2.4,2.38,2.38,0,0,1-3-1.14c-1.06-1.66-2-3.42-2.91-5.17-.79-1.48-1.51-3-2.31-4.58a16.19,16.19,0,0,0-3,.77,23.24,23.24,0,0,1-12.79,2,33.53,33.53,0,0,1-15.89-5.53c-6.23-4.26-10.33-10.08-14.19-16.64a27.52,27.52,0,0,0-1.79,2.39c-3,5-6.89,8.63-12.63,10.15-2,.54-4,1.42-5.94,2.15-1.74,3.64-1,7.35-.78,11,.15,2.39.29,2.38-.59,4.87-.7-.74-1.58-1.26-1.78-2a55,55,0,0,1-1.45-7c-.27-1.95-.23-3.94-.33-6-2.12-.95-4-.08-5.82.51-.67.21-1.27,1.34-1.47,2.16-.48,1.92-.67,3.9-1,5.85a17.68,17.68,0,0,1-.57,2c-1.44.46-2.12-.19-2.31-1.17a24.62,24.62,0,0,1-.28-3.94c0-1.71,0-3.42,0-5.5l-10.63-3.91c-2,3.93-2.27,8.35-3.66,12.38-2.78-.9-3.28-1.39-3.12-3.91a43,43,0,0,1,1.06-7.85,6.12,6.12,0,0,0-2-6.71,45.18,45.18,0,0,1-4.07-4.83c-.48-.59-.95-1.19-1.61-2-4.08,5.76-5.6,12.49-8.84,17.84-2,.61-2.78-.36-3.54-1.27-.9-1.09-.47-2.31,0-3.39,2.3-5.34,4.67-10.66,7-16,.63-1.44,1.32-2.86,1.87-4.06-.93-3.17-1.78-6-2.72-9.18a8.93,8.93,0,0,0-2.21,1.07c-6.89,6.66-15.4,10.8-24,14.43A81.55,81.55,0,0,1,561.19,491a89.62,89.62,0,0,1-18.53-.84c-.26,0-.53,0-.79-.07-3.52-.56-4.5-1.67-4.5-5.26,0-5.56,0-11.11.06-16.67,0-7.54.23-15.09,0-22.62-.23-7.79-.88-15.56-1.36-23.34,0-.53-.12-1.06-.13-1.58-.06-3.44.92-4.58,4.4-4.59,6.75,0,13.5.07,20.24.12h2.59a8,8,0,0,0,.29-1.87c-.61-7.1-1.28-14.2-1.89-21.31a23.56,23.56,0,0,1,.19-2.76,41,41,0,0,0,.07-5.54,24.93,24.93,0,0,1-.19-6.29c.23-1.62-.34-3.36-.52-4.8-1.54-1.36-3-.85-4.44-.76-2.5.17-5,.42-7.5.61s-5,.37-7.51.51a22.42,22.42,0,0,1-3.57.05c-2.52-.26-3.49-1.31-3.72-3.79,0-.52,0-1.06,0-1.58q-.06-21.64-.13-43.27c0-.92,0-1.85.08-2.78.19-3.7.77-4.39,4.33-4.84,6.29-.8,12.58-1.7,18.89-2.29a29.28,29.28,0,0,1,14.39,1.79c5.11,2.13,10.55,3.45,15.77,5.32A161.08,161.08,0,0,1,610,333a36.56,36.56,0,0,1,5.73,4.24c3.15,2.62,6.21,5.34,9.3,8a22.52,22.52,0,0,1,5.3,6.85c1.25,2.47,2.9,4.73,4.26,7.15a63.55,63.55,0,0,1,6.23,17.1c2,8.5,3.93,17,3.36,25.87-.08,1.17.31,2.36.33,3.54a53.39,53.39,0,0,1,0,7.9c-.61,5-1.57,9.9-2.44,15.2.78-.15,1.48-.23,2.16-.42a19.86,19.86,0,0,1,10.57-.16c3,.82,6,1.6,9.33,2.47a20.25,20.25,0,0,0-1.29-6c-2.48-7.67-5.14-15.29-7.38-23A79,79,0,0,1,652.64,383c-.33-7.92-.65-15.84-.87-23.76a3.77,3.77,0,0,0-2.72-3.9c-1.12-.38-2.27-.67-3.41-1a23.45,23.45,0,0,1-2.69-.65,4.38,4.38,0,0,1-3-5.36,10.44,10.44,0,0,1,.75-2.25c2.62-5.77,5.2-11.56,8.84-16.8,3.31-4.77,6.28-9.79,9.81-14.4,2.54-3.31,4.93-6.86,8.67-9.15a8.94,8.94,0,0,1,7.93-1.09,28.76,28.76,0,0,1,13.6,9.22A53.84,53.84,0,0,1,697.06,326c3,6.75,6.53,13.29,9.75,19.95a77,77,0,0,1,3.08,7.32c1.22,3.41.61,5-2.37,7.1a24.42,24.42,0,0,1-11.83,4.56,8.55,8.55,0,0,0,.4,4.7,168.51,168.51,0,0,0,10.08,27.95c1.66,3.44,3.87,6.61,5.86,9.88a4.26,4.26,0,0,0,1.29,1.49c2.89,1.67,4.19,4.62,6.06,7.14,2.51,3.39,5.28,6.6,8,9.83.45.52,1.3.7,2.55,1.34-.46-1.7-.67-2.82-1.05-3.89-2-5.73-4.15-11.42-5.79-17.29a112.49,112.49,0,0,1-4-21,120.92,120.92,0,0,1-.57-13.45,101.07,101.07,0,0,1,3.22-22.73c1.86-7.19,5.58-13.35,10.22-19.07,6.89-8.5,15.87-13.83,26-17.46,4.31-1.55,8.82-1.5,13.31-1.3,2.5.11,5,.57,7.48.81,7.07.68,12.7,4.3,17.79,8.89,6.35,5.72,10.24,13,13.19,20.93a197.82,197.82,0,0,1,10,37.89c.48,2.95.16,3.65-2.62,4.18a65.68,65.68,0,0,0-18.2,6.63c-3,1.58-5.59,1.63-8.47-.4a27.6,27.6,0,0,0-7.1-3.44c-2.93-1-4.42-.1-5.63,2.76a13,13,0,0,0-1.06,3.4,36.91,36.91,0,0,0,1.14,14.93c.8,2.65,1.92,5.21,2.83,7.83a24.15,24.15,0,0,0,6.09,9.18,6.91,6.91,0,0,0,2.67,1.59,3.17,3.17,0,0,0,4-1.75A4.55,4.55,0,0,0,794,423c.62-4.57,1.79-9.09,1-13.76a19.26,19.26,0,0,1-.29-3.55c0-2.08.76-2.78,2.86-3.06,4.18-.57,8.37-1.09,12.56-1.68,5.49-.77,11-1.59,16.47-2.39.51-.08,1-.25,1.68-.41a11,11,0,0,0-.14-7c-2.42-7.31-3.66-14.86-5.09-22.39-.66-3.5-1.61-6.95-2.5-10.41-1.55-6-3.16-12-4.71-18-1.22-4.74-2.45-9.48-3.57-14.24q-1.9-8.1-3.61-16.26c-.73-3.46-.28-3.89,3.18-5.05,9.71-3.26,19.86-4.37,29.89-6a125.62,125.62,0,0,1,13-.94,16.4,16.4,0,0,1,3.53.4,4.43,4.43,0,0,1,4,4.19c.71,5.77,1.52,11.53,2.29,17.29.28,2.09.6,4.18.84,6.28,1,9.19,2.11,18.37,3,27.57.49,5,.66,10,1,15,.27,3.68.62,7.36,1,11.58a23.69,23.69,0,0,0,1.94-5.21c1.25-6.22,2.56-12.42,3.71-18.66q3.79-20.67,7.46-41.35c.71-4,2-5.27,6.08-5.26,2.9,0,5.8.37,8.69.63,8.19.74,16.13,2.82,24.13,4.59,2.07.46,4.12,1,6.21,1.27,3.43.48,5.65,2,5.85,5.75a12.42,12.42,0,0,0,.5,2.09c.91.41,1.84.87,2.81,1.26,5.06,2.06,10.42,2.69,15.78,3.39,11.14,1.45,22.3,2.76,33.3,5.17,5.67,1.23,11.46,1.91,17.2,2.85a18.49,18.49,0,0,1,2.33.47,4.19,4.19,0,0,1,3.38,4.3c0,3.44,0,6.88.07,10.32,0,2.38,0,4.77.06,7.15a3.89,3.89,0,0,0,.84,2.35c.75-2.4,1.58-4.78,2.25-7.21,1.13-4.07,2.09-8.2,3.26-12.27a68.29,68.29,0,0,1,2.49-7.08c1.93-4.65,4-9.21,5.93-13.86.75-1.83,1.09-3.81,1.71-5.69,1.37-4.13,2.79-8.24,4.21-12.35a2.35,2.35,0,0,1,2.46-1.65,21.12,21.12,0,0,1,2.74.33c8.89,1.33,17.75,3,26.67,3.92a196.2,196.2,0,0,1,22.63,4c4.28,1,6.69,3.29,7.43,7.63a75.11,75.11,0,0,1,1.51,13.37c0,3.44,0,6.88.07,10.32.06,2.24.47,2.82,2.71,3.24a59.74,59.74,0,0,0,10.17,1.44c10.71.14,21.43,0,32.15-.06,6.35,0,12.69,0,19,1.35a45.7,45.7,0,0,0,5.53.39c2,.17,4,.32,5.9.66,2.24.38,2.74.94,3,3,.88,6.54,1.72,13.09,2.59,19.64a16.41,16.41,0,0,0,.45,1.61,8.56,8.56,0,0,0,1.18-1.6,14.12,14.12,0,0,0,1.07-3.4,28.82,28.82,0,0,1,4.8-12.06,37.66,37.66,0,0,0,1.83-3.51c3-6.1,7.76-9.79,14.61-10.92,6.23-1,12.36-.53,18.55.28,10.51,1.38,20.75,4.06,31,6.71,5,1.29,9.68,3.48,14.5,5.31,4.48,1.71,7.56,5.2,11,9.08.25-3.5.82-6.58.61-9.61a84.1,84.1,0,0,1,.11-12.6,42.26,42.26,0,0,1,3.24-14.19,7.6,7.6,0,0,1,5.19-4.52,33,33,0,0,1,13.79-.65c7.81,1.37,15.55,3.13,23.31,4.73a8.88,8.88,0,0,1,1.15.32c9.07,3.29,18.26,6.27,26.88,10.69a44.22,44.22,0,0,1,13.06,9.55c2.56,2.84,5.29,5.55,7.73,8.49a41.75,41.75,0,0,1,9.56,21.91c.69,5.72.07,11.6,0,17.41,0,.65-.31,1.29-.37,1.94-.71,8.12-4.23,15.21-8.06,22.18a10.05,10.05,0,0,1-1.39,1.93c-6.76,7.63-13.68,15.07-22.4,20.59-2.09,1.32-4,3-6.23,4.71l4.66,4.42,4.48,4.23a9.57,9.57,0,0,0,1.62-1.92c.64-1.45,1.07-3,1.62-4.48,1.23-3.31,3.28-4.54,6.75-3.82a23.12,23.12,0,0,1,4.49,1.54c5.63,2.48,11.41,4.14,17.65,3.94a10.46,10.46,0,0,1,4.19.84,4.9,4.9,0,0,1,2.69,3.69c1.49,5.82,1.7,11.74,1.69,17.69a14,14,0,0,1-.64,3.89c-2.19,7.36-5.26,14.37-8.24,21.43-1.85,4.39-3.42,8.89-5.17,13.31-.72,1.83-1.54,3.62-2.36,5.4s-1.81,3.83-2.73,5.73c-1.26,2.59-2.88,3.39-5.44,2.18a28.91,28.91,0,0,1-5.25-3.5c-9.22-7.16-17.21-15.63-25.51-23.78-4.53-4.45-9.24-8.72-13.88-13.05a9,9,0,0,0-1.26-.81Zm46.47,36.28a18,18,0,0,0,2-2.78c2-4.47,4-8.94,5.79-13.48,2.68-6.74,4.93-13.67,7.88-20.29a38.08,38.08,0,0,0,3.19-19.7c-.29-2.83-.35-5.81-1.82-7.84L1361,448.18c-1.82,1.35-2.6,3.19-3.41,5s-1.47,3.69-2.29,5.49c-.92,2-2.21,2.66-4.14,1.73a18.54,18.54,0,0,1-4.47-3.17c-4.77-4.36-8.74-9.57-14.09-13.34a3.29,3.29,0,0,1-1.22-2.28c0-1.28,1.27-1.45,2.27-1.82a29.47,29.47,0,0,0,5.06-2.15,92,92,0,0,0,19-15.46,53.37,53.37,0,0,0,10.26-15.3,63.46,63.46,0,0,0,4.6-19.19c.92-9.15,0-18.16-4.24-26.68a43.15,43.15,0,0,0-11.41-14.5,47.55,47.55,0,0,0-12.66-7.31c-7-2.83-13.82-6-21.16-7.88-5.64-1.42-11.33-2.61-17-3.92a43.47,43.47,0,0,0-16.89-1c-2.87.46-4.59,1.61-5.52,4.29a37.67,37.67,0,0,0-2.15,12.44c0,10.18,0,20.36,0,30.55,0,1.31-.16,2.63-.25,3.94a64.8,64.8,0,0,0-.42,7.08c.13,3,.7,6,1,9.05.47,5.13,1.11,10.25,1.22,15.39.18,8.46,0,16.92,0,25.39,0,2-.68,4-.39,5.9.47,3.12-.27,6-.71,9a82.87,82.87,0,0,0-1,16.58c.31,5.53.55,11.08.58,16.62,0,4-.46,7.91-.56,11.87-.14,5.28-.13,10.57-.19,15.86,0,1.5,0,3,1.68,3.7,3.65,1.51,7.07,3.63,11.06,4.28,4.31.7,8.58,1.69,12.9,2.15,3.93.41,7.92.31,11.88.36a3.7,3.7,0,0,0,3.88-3.26,7.47,7.47,0,0,0,.24-2.73,73.09,73.09,0,0,0-1.61-9c-2.26-8.14-4.7-16.23-7.13-24.33-1.16-3.88-2.45-7.73-3.76-11.83.32-1,1.35-1.23,2.44-1a7.87,7.87,0,0,1,5.1,2.78c.72.95,1.4,1.93,2.14,2.86,5.41,6.88,12.1,12.53,18.17,18.78,4.23,4.35,8.73,8.44,13.16,12.59q5.34,5,10.81,9.9A47.44,47.44,0,0,0,1365.6,518.49Zm-309-27.07c4.28.4,8.21.79,12.15,1.14,5,.45,10,.87,15,1.29,1.84.16,3.68.37,5.53.44,3,.11,6.08.24,9.11.14,1.94-.06,2.61-.7,2.82-2.65a17.59,17.59,0,0,0-.09-5.47c-1.13-5.16-2.45-10.28-3.81-15.4-2.19-8.3-4.52-16.57-6.71-24.88-1.31-5-2.48-10-3.66-15-2-8.49-3.77-17-6-25.46-1.67-6.38-3.85-12.63-5.78-18.94a2.14,2.14,0,0,1,.1-.8c.89-1.46,2.36-1.49,3.83-1.48,3,0,6.09.06,9.13,0a20.87,20.87,0,0,0,2.83-.46c-.21-1.81-.39-3.37-.58-4.93-.67-5.64-1.64-11.27-2-16.93-.49-9-.6-17.94-.78-26.91a143.38,143.38,0,0,0-1-17.82c-.44-3.08-1.1-4.05-4-4.65-4.65-1-9.32-2-14-2.59-8.9-1.2-17.83-2.19-26.75-3.18-1.79-.2-3.68-.7-5.74.62-.58,1.72-1.35,3.69-1.9,5.71a76.67,76.67,0,0,1-4.26,11.93c-2.23,4.79-4.38,9.65-6.14,14.62-2.52,7.1-4.67,14.32-7,21.5-1.43,4.48-1.41,4.49-6.1,3.66,0,4.63-.42,9.28.11,13.81a123.12,123.12,0,0,1,.9,15,63.77,63.77,0,0,1-.55,8.29c-.53,3.92-2.48,5.25-6.35,4.51-2.6-.49-5.17-1.1-7.73-1.75a177.69,177.69,0,0,0-22.14-4.53,17.75,17.75,0,0,0-2.19,0,5.91,5.91,0,0,0-.1,1.51,212,212,0,0,1,4.2,21.79c.94,6.4,2.21,12.76,3.3,19.14a17.12,17.12,0,0,1,.19,2.77c0,5,1.22,9.78,2.07,14.7a38.48,38.48,0,0,0,1.77-4c1.91-4.41,2.55-9.15,3.61-13.78,1.6-6.95,3-14,4.51-20.93a101,101,0,0,1,2.65-10.75c1.22-3.6,3.13-4.05,6.79-2.22.69,1.34,0,2.56-.36,3.81-.83,3.07-1.76,6.11-2.45,9.2-2.36,10.45-4.59,20.92-7,31.36a25.74,25.74,0,0,1-2.2,5.92c-1.42,2.76-3.85,9.86-4.17,13.15,2,2.16,4.89,2.33,7.58,2.82,6,1.09,12,2.1,18,3.07q8.21,1.33,16.44,2.52a7.86,7.86,0,0,0,2-.23c.26-6.75-2.52-12.85-2.78-19.12,1.43-1.74,3-1.31,4.51-.78,7.57,2.57,14.45,6.49,21.19,10.72a3.66,3.66,0,0,1,1.72,3.35c0,2.25,0,4.51.12,6.75C1054.77,484.4,1055,487.82,1056.58,491.42ZM889.69,314a36.17,36.17,0,0,0-1,4c-.93,7.59-2.42,15.09-3.73,22.62-1,6-1.87,12-3,18-1.25,6.48-2.54,13-4.26,19.34a89.44,89.44,0,0,1-4.47,11.42,7.35,7.35,0,0,1-3.8,3.88c-3,1.36-4.56.51-4.82-2.71,0-.52,0-1.06-.06-1.58-.22-4.62-.42-9.24-.68-13.86s-.6-9.22-.9-13.84c-.33-5.27-.52-10.56-1-15.82-.91-9.46-2-18.91-3-28.36-.44-3.94-.91-7.88-1.52-11.79-.38-2.47-1.24-3.19-3.69-3.24-1.71,0-3.43.17-5.14.3a40,40,0,0,1-4.34.39A45,45,0,0,0,834,303.86c-3.76.75-7.55,1.36-11.3,2.15a36.21,36.21,0,0,0-9.3,2.93c.64,2.62,1.25,5.16,1.87,7.7.34,1.41.7,2.82,1,4.23,2.51,10.28,5,20.55,7.52,30.82,1.08,4.36,2.32,8.68,3.34,13.06,1.11,4.76,2,9.57,3.06,14.34s2.1,9.56,3.25,14.31c.51,2.1.32,3.84-1.35,4.7a28,28,0,0,1,1,3.14c.23,1.15.12,2.39.43,3.51a75.19,75.19,0,0,1,2.9,15.56c.78,11.89,1.05,23.74-1.65,35.46a7.46,7.46,0,0,0,0,1.65l3.38,1.39c.38,2.31.81,4.5,1.09,6.72a39.35,39.35,0,0,1,.17,4.35A137.78,137.78,0,0,1,837.92,492c-.24,1.51-.61,3.16.76,5,1.48.23,3.28.62,5.09.76,2.37.18,4.81-.14,7.13.29,6.06,1.11,12.11-.69,18.14.18.1,0,.23-.11.56-.3a9.38,9.38,0,0,0,.44-2.09c.06-5.65.56-11.27.28-17-.48-9.89-.72-19.78-1.66-29.65-.21-2.18.62-3.16,2.76-3.63s3.15.05,4.15,2.05a25.1,25.1,0,0,1,1,2.58c1.56,4.21,3,8.47,4.7,12.62q6.12,14.84,12.51,29.57c1.19,2.74,1.56,5.92,3.93,8.09a28,28,0,0,0,13.29-1q13.5-4,27-8.06a19.63,19.63,0,0,0,2.58-1.27,48.76,48.76,0,0,0-1.51-5.08c-2.44-5.86-5-11.64-7.46-17.51-2.11-5.13-4.29-10.24-5.94-15.52-1-3.34-2.79-5.26-6.16-5.8-.92-.15-1.82-.34-2.72-.55-2.71-.61-5.42-1.21-8.11-1.87a8.64,8.64,0,0,1-5.52-4.22c-1.95-3.3-4-6.53-5.95-9.84-3-5.13-5.9-10.29-8.82-15.46a5.68,5.68,0,0,1-.21-1.49c.76-.66,1.63-1.44,2.52-2.18,2.32-2,4.91-3.67,6.92-5.9a45.72,45.72,0,0,0,9.7-16.22,52,52,0,0,0,3.09-14.28c.15-3.62,2.11-7.51-1.41-11.21,4.5-2.1,9.11-2.19,13.39-4a15.21,15.21,0,0,0,1-2.36c1.07-4.22,2.23-8.43,3-12.7s1.1-8.92,1.93-13.32c.51-2.69.4-5-1.7-6.9-.23-.21-.19-.72-.27-1.08L929,321c-6.26-2.63-12.4-2.89-18.26-4.23C904,315.18,897,314.62,889.69,314ZM1273.56,452c3.58-1,3.81-3.78,3.82-6.67,0-.13,0-.27,0-.4-.18-10.95.41-21.9.14-32.86a226.25,226.25,0,0,0-3.55-34.66c-.91-5.06-2-10.09-5.55-14.2a34.39,34.39,0,0,0-17.52-11c-8.57-2.23-17.21-4.16-25.82-6.18-5.68-1.33-11.41-2.35-17.26-1.94a48,48,0,0,0-8.22,1.08c-2.69.66-5.36,1.84-6.89,4.35-3.59,5.85-7.49,11.55-9.27,18.33-.63,2.43-1.19,4.89-2,7.25-1.11,3.19-1.6,6.66-4.11,9.28a3.63,3.63,0,0,0-.46,2.61c.48,4.46,1,8.93,1.65,13.36a113.49,113.49,0,0,1,1.28,21.71,12.59,12.59,0,0,1-.47,3.12c-.73,2.41-1.86,3.16-4.4,3.05-1.15-.05-2.3-.18-3.69-.3-1.53,4.41-3.33,8.51-3.28,13.13,0,2.91,0,5.81,0,8.72a30.43,30.43,0,0,1-.1,3.17,2,2,0,0,1-1.65,2,2.09,2.09,0,0,1-2.51-1.46c-.79-2.51-1.89-5.09-1.9-7.64a47.89,47.89,0,0,1,1.51-9.73c.68-3.19,1.63-6.32,2.44-9.38-3.63-2.19-10.31-3.37-13.94-2.55a13.07,13.07,0,0,0,1.4,5.66c1.55,3.65,3.11,7.3,4.46,11,2.29,6.33,4.35,12.74,6.63,19.08,2,5.59,4.29,11.08,6.26,16.68.92,2.63,1.79,5.21,3.54,7.35.37,0,.68.1.88,0,2.4-1.32,3.84-.47,5.67,1.53,7.1,7.72,14.69,14.88,25.14,18,4.3,1.28,8.51,3,12.89,3.85,4.9.93,10,1.09,15,1.55a7.32,7.32,0,0,0,2-.1c4.16-.74,8.36-1.35,12.47-2.33,6-1.44,11.34-4.19,15.31-9.21a44.89,44.89,0,0,0,8.4-16.83A69.33,69.33,0,0,0,1273.56,452ZM814.88,380.41a4.09,4.09,0,0,0,.12-1.05c-2.41-13.7-5.64-27.17-11-40.07a47.94,47.94,0,0,0-5.83-10.78c-4.66-6.11-10.11-11.32-17.83-13.15A73.28,73.28,0,0,0,769,314a20.42,20.42,0,0,0-5.51.43c-7.15,1.45-13.25,5.17-19.21,9.15a12.17,12.17,0,0,0-1.47,1.32,83.22,83.22,0,0,0-10.4,11.95,32,32,0,0,0-3.74,6.93,82,82,0,0,0-4.68,20.81c-.94,8.51-.28,16.88.74,25.29,1.57,13,6.37,25.07,10.74,37.26a4.77,4.77,0,0,0,1.84,2.42,31.45,31.45,0,0,1,9,8.27c4.68,5.95,6.7,12.83,7.23,20.17.23,3.14-.66,6.37-.36,9.49a26.59,26.59,0,0,1-1.59,11.71c2.69,2.11,5.22,4.23,7.88,6.17,6.19,4.5,13.29,5.68,20.71,5A92.67,92.67,0,0,0,799.81,486a54.32,54.32,0,0,0,21.94-13,14.15,14.15,0,0,0,3.71-5.53c1.15-3.38,2.65-6.66,3.48-10.11a85.22,85.22,0,0,0,2.18-12.87c.49-5.65.47-11.35.66-17a14.07,14.07,0,0,0,0-1.59,119.46,119.46,0,0,0-3.21-19.53c-.35-1.36-.39-2.92-2-4.15a230.31,230.31,0,0,0-26.12,4v2.72c0,4.49.33,9-.71,13.43-1.54,6.51-7.66,9.16-13.61,6.65a17.22,17.22,0,0,1-8.29-7.13,50.43,50.43,0,0,1-6.71-18.92c-.65-4.75-.53-9.46,1.54-14,1.61-3.53,4.12-5.37,8-5.41a23.42,23.42,0,0,1,11.78,3c1,.57,2.06,1.11,2.74,1.47ZM540.34,370c5.87.12,11.25.39,16.63-.38,2.09-.3,4.15-.82,6.25-1.07,3.29-.39,4.35.57,4.49,3.84a4.18,4.18,0,0,1,0,.79c-.65,3.42,0,6.85,0,10.27a86.08,86.08,0,0,1-.14,9.51c-.48,4,.18,7.88.6,11.8s.78,7.89,1,11.84c.16,2.67-1.11,3.93-3.73,4a5.56,5.56,0,0,1-1.57-.17c-6-1.45-12.11-.84-18.18-.85a20.48,20.48,0,0,0-3.15.48,62.14,62.14,0,0,0,0,11.33c.21,2.76.6,5.52.61,8.29,0,12.43-.06,24.86-.09,37.29,0,2.25,0,4.5.17,6.74.14,2,.67,2.57,2.63,2.89,2.47.41,5,.74,7.47.91,5.72.39,11.32-.53,16.93-1.57,11.94-2.2,22.54-7.4,32.37-14.3,2.7-1.89,5.09-4.21,7.68-6.26a6.26,6.26,0,0,0,2.74-3.72,2.94,2.94,0,0,1,2.4-2.4c2.43-.44,3.9-2.15,5.31-3.89,2.16-2.66,4.31-5.36,6.28-8.17,2.72-3.9,5.71-7.68,7.19-12.28a102.25,102.25,0,0,0,4.42-17.27,110.41,110.41,0,0,0,.86-11c.08-2.37-.37-4.74-.4-7.11A88.17,88.17,0,0,0,632.51,367c-3.37-8.31-7.6-16.06-14.83-22.14a102.62,102.62,0,0,0-25.86-16c-9.25-4-19-6.52-28.53-9.69a12.93,12.93,0,0,0-5.08-.43c-4.08.33-8.14.84-12.19,1.38-6,.8-6.09.84-6.1,6.77,0,13,.05,25.92.1,38.89C540,367,540.2,368.17,540.34,370Zm117-11.29a4.69,4.69,0,0,0-.34,1.12q.28,11.69.61,23.36c0,.66.07,1.32.14,2a131.93,131.93,0,0,0,7.74,33.12q2.53,6.88,5,13.78c.46,1.28.85,2.61-.29,3.7a3.7,3.7,0,0,1-4.05.8c-1.12-.41-2.23-.84-3.34-1.27a55.27,55.27,0,0,0-13-3.42,5.65,5.65,0,0,0-3.42.38,9.08,9.08,0,0,1-6.07,1.23c-.64,1.64-1.25,3.1-1.77,4.58a26.48,26.48,0,0,1-4.42,7.92c-2.4,3-4.7,6.06-7.06,9.07s-4.64,6.43-7.88,8.86a3.84,3.84,0,0,0-1.24,2.72,15.37,15.37,0,0,0,1.48,6.34,20.22,20.22,0,0,1,2.36-1.78,28.44,28.44,0,0,1,5-2.34,4.56,4.56,0,0,1,3,.53,2.21,2.21,0,0,1,1.34,2.85,14.91,14.91,0,0,0-9.18,8.1,29.58,29.58,0,0,0,6.5,9.29c.65-1.27,1.19-2.26,1.68-3.28a29.63,29.63,0,0,1,1.49-3.23c1.24-1.93,3.2-1.86,4.46.05a3.2,3.2,0,0,1,.14,3.37,22,22,0,0,0-2.23,7.18,16.76,16.76,0,0,0,9.32,3.58c1.1-3,.19-6.49,2.66-9.34.78.62,1.77,1,2,1.7a21.81,21.81,0,0,1,.76,4.22c.17,1.25-.65,2.61.55,4,1.56-.13,3.3.34,4.8-.93.17-2.26.2-4.5.55-6.69.27-1.73,1.24-2.57,2.19-2.36,1.31.3,1.25,1.49,1.57,2.48.59,1.83.08,4,1.57,5.8a15.11,15.11,0,0,0,2.63-.51,18.45,18.45,0,0,0,9.36-7.65c1.48-2.34,2.83-4.77,4.19-7.19s3.27-4.87,2.3-7.91c1.39-1.52,2.8-1.53,3.94-.31a7.68,7.68,0,0,1,1.91,3.35c.54,2.43.63,5,1.05,7.44a20.69,20.69,0,0,0,1.21,4.54,28.78,28.78,0,0,0,11.83,13.5c7.47,4.68,15.35,5.16,23.5,1.94a8.67,8.67,0,0,0,1.76-1.29c-.82-4.2-5-6.34-5.73-10.23a2.05,2.05,0,0,1,3.07-.13,19.82,19.82,0,0,1,2.76,2.81c1.61,1.88,3.16,3.8,4.73,5.7a15.73,15.73,0,0,0,6.43-4.41c-1.26-4.48-5-7.36-7.13-11,1-1.38,1.93-1.12,2.65-.56,1.54,1.22,3,2.57,4.4,3.93s2.08,3,3.85,3.85c1.73-1.06,2.19-2.38,1.39-4.1-.51-1.08-1.13-2.11-1.57-3.21a10.05,10.05,0,0,1-.4-2.12c1.76-.59,2.39.5,3.18,1.37.56.62,1.22,1.15,1.84,1.73a7.31,7.31,0,0,0,2.11-6.91c2.93-1.94,3.3-4.92,3.34-8s-.08-6.36.14-9.52c.36-5-1-9.77-2.72-14.31-3-7.66-8.09-13.28-16.58-15-1.81-.37-3.59-.85-5.39-1.27-2.35,2.57-2.86,2.5-6.12-.87-3.83-.32-4.49-.56-6.86-3.25a26.69,26.69,0,0,1-3.57-4.73c-3.38-6.26-7.31-12.3-8.18-19.61a13.45,13.45,0,0,0-.69-2.27c-.83-2.65-1.78-5.26-2.46-7.95-1.94-7.69-3.76-15.41-5.67-23.1a28.79,28.79,0,0,0-1.26-3.3c-1.75,0-3.2.06-4.64,0-2-.1-3.23-1-3.12-2.28s1-1.93,3-1.91c2.57,0,5-.31,7-2.23,2.34,2.18,4.66.86,6.91.35,2.48-.57,4.76-1.61,6.21-4.25a32.17,32.17,0,0,0-1.15-4c-1.74-4.14-3.58-8.24-5.4-12.34-.26-.6-.69-1.12-1-1.71-1-1.74-1.9-3.48-2.8-5.24-1.74-3.42-3.31-6.92-5.2-10.26A26.7,26.7,0,0,0,676.93,310c-2.59-1.2-4.87-1.13-7,.75a32.61,32.61,0,0,0-4.21,4.18c-2.82,3.66-5.51,7.43-8.17,11.22a120.24,120.24,0,0,0-11.28,19.56c-.58,1.28-1.42,2.56-.8,4.5,2.69.87,5.57,1.69,8.5,2.42a61.88,61.88,0,0,1,6.76,2.18c.49.19,1.12,1.05,1,1.47A2.66,2.66,0,0,1,660.5,358,14,14,0,0,1,657.3,358.66Zm462,55.48c0,.82-.07,1.82-.16,2.81-.37,3.95-.86,7.88-1.1,11.83a25.19,25.19,0,0,1-1.17,7.39,17.49,17.49,0,0,0-.77,5.07c-.21,4.88-.49,9.75-2,14.45a15.61,15.61,0,0,0-.7,3.08,145,145,0,0,1-4.53,24.1,27.75,27.75,0,0,0-.92,4.67,16.43,16.43,0,0,0,.06,4.32c.3,1.91.9,3.76,1.36,5.61a54.28,54.28,0,0,0,13.89,1c3.82-.28,7.64-.51,11.47-.61,3.3-.09,6.61,0,9.91.06,6.19.18,12.37.15,18.51,1.26,2.37.43,4.92.93,7.6-.43-.42-3.16-.45-6.38-1.32-9.37a85.13,85.13,0,0,0-4.57-11.78,111.21,111.21,0,0,1-7.56-20.39,51.88,51.88,0,0,0-2.07-6.4c-3.43-8.71-6.93-17.4-10.39-26.11-.56-1.43-1.08-2.88-1.58-4.23,1.77-2,3.66-2.95,5.88-2.4,6.54,1.62,13.39,1.69,19.77,4.05a27.52,27.52,0,0,0,4.11.83,21.54,21.54,0,0,0,.41-3.31c-.18-4.48-.3-9-.73-13.43-.67-7-1.57-13.91-2.39-20.85-.51-4.33-1-8.66-1.58-13-.7-5.63-1.32-11.27-2.13-16.89-.54-3.75-.84-3.88-4.44-4.25-1.32-.14-2.62-.4-3.93-.51-4.21-.38-8.41-1-12.62-1-12.43-.11-24.86.06-37.29,0-3.42,0-6.83-.46-10.25-.67-1-.07-2,0-3.22,0-.07,1.13-.15,2-.17,2.95,0,1.84-.15,3.68-.06,5.51.23,4.61.43,9.22.89,13.81.4,4.06,1.15,8.09,1.72,12.14a8.74,8.74,0,0,1,0,2c-.17,2-1.06,2.74-3.12,2.74-3.16,0-6.32,0-9.48,0a16.53,16.53,0,0,0-2.3.36c1.16,4.76,1.86,9.32,4.26,13.3l3,.7c1.55,5.14,1.89,10.6,3.68,16,1.43-.2,2.59-.29,3.71-.54,6.07-1.34,12.12-2.74,18.18-4.07C1116.35,413.58,1117.67,413.17,1119.29,414.14Zm-137,79.92a30.54,30.54,0,0,0,0-12.84c-1.2-5-2.63-10-3.67-15-1.17-5.68-2.09-11.42-3-17.15-1.28-8.22-2-16.51-3.74-24.67s-3.29-16.32-4.86-24.49c-.27-1.38-1-2.8-.13-4.22,3-1.3,3.56-1.26,6.39-.23a41.47,41.47,0,0,0,5.29,1.49c1.54.35,3.14.41,4.68.76,6.06,1.36,12.1,2.8,18.15,4.18,1.11.26,2.26.35,3.57.54a11.67,11.67,0,0,0,.85-2.87c0-6.34,0-12.69-.17-19-.07-3.29-.41-6.58-.6-9.87-.08-1.45,0-2.91-.1-4.36q-.49-11.26-1-22.54c0-.89-.09-1.78-.13-2.69a29.83,29.83,0,0,0-8.89-2.48c-9.75-1.69-19.52-3.32-29.31-4.8-6.27-1-12.56-1.76-18.86-2.36-4.12-.39-8.3-.23-12.19-2.59a12,12,0,0,0-.59,2.54c.15,7.36-1.83,14.39-3.22,21.51-.33,1.69-.7,3.37-1.09,5a6.29,6.29,0,0,1-5.67,5.28,40.88,40.88,0,0,0-4.67.88,16.81,16.81,0,0,0-2.64,1.16,33,33,0,0,1,.49,5.83,82.23,82.23,0,0,0-.06,13.77c.06.78,0,1.59.06,2.37.2,1.73.7,2.23,2.49,2.53.65.11,1.31.11,2,.16,6.45.53,12.9,1,19.34,1.64,1.87.19,4,.07,5.63,2.14a49.49,49.49,0,0,0-2.07,5.38c-2.32,8.81-4.64,17.63-6.76,26.49-1.84,7.71-3.39,15.48-5.15,23.2a8.28,8.28,0,0,0,.36,5.05c1.9,4.78,3.77,9.57,5.75,14.33,2.38,5.73,4.89,11.41,7.29,17.14.81,1.92,1.58,3.89.35,6.24,1.53.3,2.66.62,3.82.73,7.88.73,15.8.95,23.64,2.2C976.46,494.88,979.28,495.35,982.28,494.06Zm-54-50.37c.3-.89.46-1.38.64-1.86,1.5-4,1.46-8.3,2.4-12.41,2.33-10.29,4.74-20.58,7.13-30.86.29-1.24.66-2.47,1-3.68-3.35-1-23.49-2.39-27.18-1.84-.81,1.44-1.7,3-2.61,4.63-3.07,5.35-7.46,9.54-12,13.66-2.25,2.07-2.32,2.44-1.07,5.07.23.47.47,1,.74,1.4L909,437.13a5.19,5.19,0,0,0,3.2,2.76ZM1112,418.92a15.74,15.74,0,0,0-3,0q-8.1,1.88-16.15,3.91a6.55,6.55,0,0,0-1.64,1c1,4.76,2,9.38,3.08,14,.85,3.72,2,7.39,2.68,11.13,1.67,8.57,4.37,16.85,6.78,25.22a8.52,8.52,0,0,0,.69,1.33c.33-.38.6-.54.63-.74.7-4,1.36-8.06,2-12.08a49,49,0,0,1,1.1-5.82,31.73,31.73,0,0,0,1-7.81,57.91,57.91,0,0,1,1.77-12.88A39.87,39.87,0,0,0,1112,418.92Z"/><path d="M953,169.37a2.42,2.42,0,0,0,.73.1c7.59-2.09,8.6-3.12,11.4-10.53,1.36-3.58,3-7.06,4.62-10.52a9.61,9.61,0,0,1,2-2.44c3.06-3.11,6.2-6.14,9.23-9.27A29.7,29.7,0,0,1,999.18,128a43.3,43.3,0,0,1,18.82,1.66c6.6,2.12,12,6.16,17.14,10.47a63.05,63.05,0,0,1,11.29,12.18,33.78,33.78,0,0,1,3.42,6.21,62.18,62.18,0,0,1,3,8.61c1.12,4.33,1.93,8.75,3,13.68,3,1.78,6.4,3.73,9.7,5.87a23.88,23.88,0,0,1,5.22,4.17c5,5.87,3.93,14.16-2.23,18.88-3.6,2.75-7.38,4.58-12.09,3.78a16.38,16.38,0,0,0-3.6.15c-1.46,2.82-3.13,5.53-4.31,8.44-2,5-5.67,8.63-9.25,12.27-2.47,2.51-5.9,4-9.36,5-2.28.68-4.53,1.44-6.8,2.11a12.38,12.38,0,0,1-3.08.66c-4.35.15-8.7.15-13,.29-2.18.06-2.72.49-3.24,2.71a24.93,24.93,0,0,0-.68,5.08,41.09,41.09,0,0,1-1.75,12.12,42.05,42.05,0,0,0-2.11,12.44,29.4,29.4,0,0,1-.65,5.11c-.63,3.1-2,5.74-5.07,7.16a7,7,0,0,0-3.61,3.53c-4.34,9.69-17.43,6.36-20.66-.27-2.35-4.85-5-9.64-5.27-15.23a21.71,21.71,0,0,1,.06-3.95c.33-2.35.91-4.67,1.27-7a23.82,23.82,0,0,1,5.18-11.78,31.33,31.33,0,0,0,6.68-12.8c.46-2,1.46-3.94,2.1-5.94a4.83,4.83,0,0,0-1-4.77,159.88,159.88,0,0,1-9.78-13.44c-3.2-5.12-6.81-10.11-8-16.24a6.32,6.32,0,0,1-.43-1.52c.17-3.29-1.55-4.83-4.51-6a14.78,14.78,0,0,1-9.3-11.05,8,8,0,0,1,.14-3.48c.41-1.65,1.11-3.23,1.68-4.83-.81-1.35-2.26-1.47-3.48-1.68a60.9,60.9,0,0,1-15-4.22,17.28,17.28,0,0,0-1.67,2.2c-3.34,6.15-6.66,12.31-9.91,18.5a43.53,43.53,0,0,1-6.83,9.2c-5.84,6.29-11.88,12.41-17.81,18.63A53.65,53.65,0,0,0,884,228.13a21.85,21.85,0,0,0-.86,2.33c.86.6,1.57,1.16,2.34,1.61,4.25,2.43,8.51,4.82,12.77,7.24.46.26.9.55,1.34.85,4,2.67,4.54,4,3.5,8.63-1.16,5.16-2.25,10.33-3.5,15.47-1.31,5.39-2.59,10.79-4.25,16.08a38.89,38.89,0,0,1-3.9,8.22,9,9,0,0,1-10.61,4.05c-5.69-1.71-11.31-3.67-16.88-5.75-6.68-2.49-13.29-5.19-19.9-7.87-4.78-1.94-9.5-4-14.25-6-2.06-.87-4.15-1.69-6.16-2.51-3.59,2.57-7.17,4.83-10.4,7.53-3.47,2.9-7.58,4.21-11.73,5.53a140.61,140.61,0,0,1-18.4,4.82c-9,1.55-17.89,1.58-26.66-1.17a7.51,7.51,0,0,0-4.93.17,86,86,0,0,1-13,3.37c-7,1.05-14.16,1.72-21.27,2.16-2.7.17-5.48-.68-8.2-1.17a3.9,3.9,0,0,1-3.1-3.27,46.71,46.71,0,0,1-1-6.65c-.41-5.8-.65-11.61-1-17.41a33.71,33.71,0,0,0-.82-4.13l-5.95-2.07c-1.83-.63-3.44-1.91-5.71-2.06a12,12,0,0,0-.5,2.38c.09,4.49-.29,8.95.27,13.47a106.85,106.85,0,0,1,.31,13c0,3.42-.38,3.82-3.72,4.4a110,110,0,0,1-25.69,1.14c-3.82-.24-7.62-.77-11.41-1.34-2.75-.41-5.48-1.06-7.36-3.56-3.31,1.88-6.4,3.62-9.48,5.38a38.2,38.2,0,0,1-9.9,4c-2.44.58-4.85,1.33-7.25,2.07-5.79,1.78-11.72,1.9-17.69,1.43-4.07-.32-8.13-1-12.21-1.23-4.69-.27-9.05-1.84-13.51-3-2.3-.59-2.83-1.61-2.74-4.15.4-11,.86-21.92,1.2-32.88.12-3.68-.15-7.37-.09-11.06s.29-7.64.47-11.46c.3-6.07.72-12.13.9-18.21.15-5,0-10.05,0-15.07,0-3.48.7-4.18,4.11-4.39,2.89-.18,5.77-.23,8.86-.34,2.44-7.81.44-15.7,1.84-23.65a22.69,22.69,0,0,0-6.78.82,34.31,34.31,0,0,1-4.66.93c-2,.18-2.94-.57-3.35-2.58-.34-1.67-.49-3.39-.68-5.1-.52-4.86-1.14-9.71-1.5-14.58-.32-4.33-.34-8.69-.52-13-.16-4.09-.36-8.17-.52-12.26-.12-2.75.16-5.47-1.18-8.14-.64-1.27-.32-3.12-.19-4.69.42-4.73,1-9.46,1.48-14.18.1-.92.31-1.82.48-2.73a4.72,4.72,0,0,1,3.93-3.92,53.2,53.2,0,0,1,17.71-1.12,107.53,107.53,0,0,1,20.6,3.94,218.59,218.59,0,0,1,26,9.78,35.62,35.62,0,0,1,12.22,8.6,23.27,23.27,0,0,1,2.94,3.71c3,4.83,5.95,9.67,7.81,15.37a17.86,17.86,0,0,0,.48-1.88c.79-6,1.52-12,2.36-18.07.49-3.53,1.15-7,1.72-10.56a6.21,6.21,0,0,1,4.34-5.22,113.15,113.15,0,0,1,13.37-3.58A49.49,49.49,0,0,1,694.2,94c3.69.08,7.37.59,11.06.93a16.5,16.5,0,0,0,2,.32c8.43-.28,16.45,2.46,24.71,3.39.66.08,1.3.26,2,.4,4.75,1,6.51,2.81,7,7.75.29,3,.09,6.06.1,9.09a3.47,3.47,0,0,0,.41,2q1.26-8.33,2.53-16.66c.28-1.83.53-3.66.84-5.48A1.91,1.91,0,0,1,747,93.92c3.42.31,6.86.52,10.25,1q13.71,2.13,27.38,4.51a41.55,41.55,0,0,1,7.27,2c9.19,3.44,18.07,7.5,25.77,13.75a4.54,4.54,0,0,0,1.08.35,18,18,0,0,0,.13-2.13c-.36-5.54-.86-11.06-1.09-16.6-.15-3.69.67-4.38,4.31-4.63,9-.61,17.95-1,26.95-.73q17.24.54,34.46,1.2c3,.11,3.66.69,4.55,3.41a18.45,18.45,0,0,1,.3,8.26c-1.16,9.05-2.42,18.08-3.58,27.12-.25,2-.14,4-.35,5.94-.41,3.72-1.26,4.53-4.91,5l-10.12,1.14c-.55,6,5.89,20,11.51,25.19,2.26-.89,3.2-3,4.11-5a100.05,100.05,0,0,0,4.52-11c2.87-8.79,5.51-17.67,8.22-26.52.74-2.4,1.37-4.83,2.07-7.25a131.41,131.41,0,0,0,4.4-21.32c.19-1.62,1-2.42,2.49-3.2a9.51,9.51,0,0,1,7.58-.56c10.81,3.06,21.68,5.92,32.47,9,4.57,1.32,9,3.06,13.48,4.7a24.92,24.92,0,0,1,4.27,2.11,4.82,4.82,0,0,1,2.45,5.39,47.28,47.28,0,0,1-1.36,5.79,92.92,92.92,0,0,0-3,11.06c-1.22,6.07-3,12-4.56,18-1.69,6.25-3.49,12.47-5.23,18.71C952.76,168.86,952.9,169.12,953,169.37Zm-5.44-2.6a28.35,28.35,0,0,0,1.83-3.9c2-6.72,4-13.43,5.69-20.23,1.78-7.18,3.19-14.45,4.8-21.68.35-1.54.91-3,1.26-4.59.52-2.32.22-3.11-1.93-4.13a49.47,49.47,0,0,0-7.32-3c-10.41-3-20.86-5.93-31.3-8.84-3-.84-6.22-1.24-9.06-2.8a5.52,5.52,0,0,0-1.76-.19c-.42,2-.75,4-1.21,5.83-1.57,6.42-3.14,12.84-4.78,19.24A343.53,343.53,0,0,1,890.49,164a17.55,17.55,0,0,1-5.9,8.21c-3,2.21-5.26,2.4-7.44-.55a123.75,123.75,0,0,1-7.75-11.94c-3.32-5.78-4.26-12.47-6.7-18.61-.56-1.42.26-2.61,1.84-2.86a19.57,19.57,0,0,1,3.16-.09c2.38,0,4.76,0,7.14,0,1.58,0,3.2-.12,4.55-1.59.29-2,.66-4.25.92-6.47,1-8.92,2.08-17.84,3.05-26.76.2-1.92.71-4-1-5.84-.92-.08-2-.23-3-.24-10.71-.07-21.42-.15-32.12-.15-6.88,0-13.76.09-20.64.18a35.07,35.07,0,0,0-3.7.46c0,1.48-.06,2.64,0,3.8.12,2,.24,4,.49,5.92.61,5,1.24,10,2,14.91a6.58,6.58,0,0,0,1.25,2.88c3.06,4,4.55,8.66,6.08,13.29a47.41,47.41,0,0,1,2.44,17.58c-.16,2.9-.56,5.79-.6,8.69a9.68,9.68,0,0,1-3,7.1c-3.58,3.53-7.06,7.16-10.7,10.62a22.24,22.24,0,0,1-4.82,3.46,100.9,100.9,0,0,1-10,4.77c-3,1.2-6.19,1.95-9.7,3,1.42.71,2.59,1.24,3.72,1.85,3.69,2,7.59,3.8,11,6.24,6.93,5,12.35,11.48,17.48,18.24.52.69,1.12,1.32,1.75,2.06,7-6.3,10-14.81,14.56-22.33a5,5,0,0,0,.39-1.64c-4.64-5.59-9.13-11-13.56-16.38a15.84,15.84,0,0,1-2.1-3.33,1.93,1.93,0,0,1,.38-1.75,1.9,1.9,0,0,1,1.74-.4,10,10,0,0,1,2.76,2.16c2.59,3,5,6.13,7.62,9.13,2.15,2.5,4.4,4.92,6.67,7.32a10.3,10.3,0,0,1,2.82,4.73c-.48.82-.92,1.63-1.39,2.41a64.78,64.78,0,0,0-4.1,6.79c-2.31,5.1-5.65,9.52-8.94,14-1.29,1.74-2.91,3.23-4.44,4.91.76,2.84,1.52,5.92,2.4,9,1.68,5.81,1.07,11.52-.66,17.18-1.25,4.11-3.72,7.55-6.26,11-.51.68-.9,1.45-1.42,2.3a21.68,21.68,0,0,0,1.92,1.19c1.57.71,3.14,1.41,4.74,2,1.85.72,3.78,1.25,5.58,2.05,13.41,6,27.18,11.07,41,16,3.85,1.39,5.83.59,7.85-3.06a19.1,19.1,0,0,0,1.28-2.89c1-2.75,2-5.48,2.73-8.29,2.21-8.56,4.27-17.17,6.44-25.75a3.43,3.43,0,0,0-1.48-4.12c-.67-.43-1.31-.9-2-1.31-4.65-2.79-9.31-5.55-13.93-8.38-1.65-1-3.63-1.72-4.36-3.93a8.43,8.43,0,0,1,.65-1.8c3.84-6.15,7.29-12.57,12.51-17.78,3.74-3.73,7.08-7.88,11-11.43a60.51,60.51,0,0,0,10.88-13c4.57-7.41,8.5-15.23,12.64-22.9,1.24-2.3,2.27-3,4.73-2.39a14.43,14.43,0,0,1,2.89,1.25C936.68,164.94,941.81,166,947.51,166.77ZM654.94,210.09c1.46,2.73,3.1,5.59,4.53,8.56,1.19,2.5,2,5.2,3.25,7.65a16.1,16.1,0,0,1,1.91,7.59c0,3.44.07,6.88.07,10.32a16.94,16.94,0,0,1-.2,2.35c-.41,2.71-.84,5.43-1.26,8.12,1.87,1.88,3.46,3.65,5.23,5.23a30,30,0,0,0,11.71,6.45c1.53.45,3.06.89,4.62-.32a14.77,14.77,0,0,0,.28-2.29c-.13-3.43-.27-6.86-.49-10.28-.16-2.5,1.18-3.74,3.62-3.12a22.58,22.58,0,0,1,2.57,1c4.55,1.7,8.83,4.14,13.84,4.61,3.17.29,4.4,2.17,4.51,5.45q.36,10.69.75,21.39c.08,2,.25,4,1.68,5.73,2.89.57,5.83,1.33,8.9,1,5.64-.66,11.27-1.41,16.91-2,6.37-.7,12.46-2.05,17.58-6.89a27.13,27.13,0,0,0-.36-4.06c-2.69-11.72-5.35-23.45-8.21-35.13-2.49-10.14-5.19-20.23-7.86-30.33-3.27-12.4-6.7-24.75-9.85-37.18-2-7.81-3.64-15.71-5.28-23.6-.63-3,.51-4.12,3.6-4.18,1,0,2.12.13,3.17.05a28.2,28.2,0,0,0,3.06-.58c.36-3.16.75-6,1-8.91.46-4.73,1-9.46,1.24-14.2.27-5.28.36-10.57.3-15.85,0-2.41-1-3.41-3.29-3.8-5.33-.91-10.67-1.78-16-2.53-4.71-.66-9.47-.94-14.15-1.73a51.28,51.28,0,0,0-18.53.17,59.27,59.27,0,0,0-9,2.83,5.46,5.46,0,0,0-3.64,4.8q-.47,3.93-1,7.86c-.65,5.11-1.28,10.23-2,15.33-1.11,8-2.56,15.93-3.32,23.94-.73,7.66-2.58,15.1-4,22.62-1.18,6.49-2.55,13-3.47,19.5C656.76,200.33,655.83,205,654.94,210.09Zm103.91,73.64a16.46,16.46,0,0,0,3.39,1.09c6.72.53,13.44.83,20.16-.21,7-1.08,13.55-3.52,20.29-5.42a31,31,0,0,0,7.83-3.75,60.72,60.72,0,0,0,15.33-14.22c4.21-5.3,6.63-11.35,6.2-18.36a40.74,40.74,0,0,0-9-23.3,116,116,0,0,0-10.19-11.08c-4.1-4-8.71-7.33-14.29-9-3-.92-6.07-1.81-9.08-2.76-1.52-.47-3.14-.93-3.42-2.85-.2-1.34.75-2.21,3.13-3,.5-.17,1-.27,1.53-.41,3.69-1,7.4-2,11.06-3.18,7.79-2.45,15-5.91,20.59-12.12,1.94-2.16,4-4.27,5.78-6.54a8.29,8.29,0,0,0,2-3.76,59.55,59.55,0,0,0,.62-11.06,118.2,118.2,0,0,0-2-13.32c-2-11.3-9.08-19.28-18-25.57-4.49-3.15-9.82-5.16-14.86-7.47-7.07-3.25-14.83-3.81-22.33-5.28-6.85-1.35-13.84-2-20.77-3-2.79-.39-3.29-.1-4,2.51-.36,1.4-.61,2.84-.83,4.27-1.78,11.76-3.57,23.51-5.29,35.28-.32,2.18-.92,4.37-.48,6.9,1.06.41,2.13.88,3.24,1.23,4.27,1.37,5,2.3,4.92,6.83-.13,9.52-.19,19-.75,28.54-.68,11.47-.67,23-.89,34.48,0,2.54-.07,5-2,6.76.64,2.43,1.28,4.59,1.78,6.78,3.15,13.79,6.24,27.59,9.41,41.38C758.64,277.13,759.41,280.2,758.85,283.73ZM618.15,168.35A82.7,82.7,0,0,0,622.73,182a3.11,3.11,0,0,0,3.09,2.05,14.29,14.29,0,0,0,3.14-.3,37.17,37.17,0,0,0,14.2-6.81,19.48,19.48,0,0,0,4.63-4.83,64.79,64.79,0,0,0,7.74-16c2.55-8.65,2.74-17.2-.68-25.64-3.65-9-9.44-16.13-18.38-20.42a172.14,172.14,0,0,0-24.8-9.48,99,99,0,0,0-21.37-4.08,39.87,39.87,0,0,0-11.06.5,3.82,3.82,0,0,0-3.35,3.37,32.93,32.93,0,0,0-.83,5.87c0,1.51.74,3,1.2,4.73-2.09,1.7-2.16,4.19-2.17,6.74,0,3.81,1.19,7.59.18,11.42-.12.45.23,1,.28,1.54.36,4.34,1.12,8.69.92,13a25.34,25.34,0,0,0,1.11,8.53,5.82,5.82,0,0,1,.39,2.6c-.86,4.4.41,8.61,1,12.87.07.44.57.83,1,1.37l3.13-.27c2.64-.18,5.27-.39,7.91-.5a4.55,4.55,0,0,1,4.44,2c-.23,1.14-.62,2.53-.77,4-.47,4.32-1,8.65-1.22,13-.21,3.42-.14,6.86-.13,10.29a3.42,3.42,0,0,1-2.92,3.69,30.22,30.22,0,0,1-5.87.36c-1.41,0-2.85-.73-4.36.43-.47,2.84-1.25,5.74-.59,8.84a18.69,18.69,0,0,1,.06,4.73c-.13,2.64-.41,5.26-.55,7.89-.2,3.69-.32,7.39-.47,11.08-.13,3-.32,6.07-.39,9.1-.3,13.21.55,26.43-.67,39.63-.22,2.43-.54,5,.37,7.65a23.35,23.35,0,0,0,3.7,1.17c6,.88,12,1.78,18.05,2.41A66.27,66.27,0,0,0,640,283.25,45.87,45.87,0,0,0,655.47,264c1.24-2.92,2.3-5.9,3.41-8.87a4.35,4.35,0,0,0-1.08-4.73c-1.76-2-3.4-4-5.07-6.09a11.49,11.49,0,0,1-2.69-6.07c-.18-1.58-.52-3.14-.66-4.71a22.4,22.4,0,0,0-5.92-14c-.82-.86-1.6-1.76-2.36-2.68-2.25-2.76-4.54-5.5-6.71-8.33a78.55,78.55,0,0,1-7.87-13.74c-1.54-3.15-3.12-6.17-6.86-7.2a1.1,1.1,0,0,1-.56-.53,7.76,7.76,0,0,1-.5-1.19l1.53-2.53c-2.29-7.89-4.41-15.38-6.65-22.84-1.22-4.05-2.55-8.07-4-12a31.19,31.19,0,0,0-5.63-9.51,17.26,17.26,0,0,1-2.39-3.61c-.24-.49.2-1.32.49-2.82,1.44,2,2.37,3.39,3.38,4.69a41.22,41.22,0,0,1,6.37,10.92c1.1,3,2.27,5.92,3.46,8.87a21.71,21.71,0,0,0,1.53,2.47c.33-2.86.55-4.8.77-6.74a2.54,2.54,0,0,1,2.84-2.58,4.75,4.75,0,0,1,1.91.42,59.82,59.82,0,0,1,5.54,3.09c3,2,3.59,4.39,1.89,7.51a11.69,11.69,0,0,1-7.19,5.85ZM993.5,244.6c.24-1.78.36-2.81.51-3.84a7.12,7.12,0,0,1,5.77-6.21,18.45,18.45,0,0,1,3.16-.24,54.38,54.38,0,0,1,12.59,1.1c6.69,1.4,13,.53,18-4.54a50.38,50.38,0,0,0,14.11-27.38,32.53,32.53,0,0,0,.51-10.68,27.13,27.13,0,0,0-8.46-3.32c-9.81-2.62-19.67-5.11-29.52-7.6a355.67,355.67,0,0,0-40.38-8.07,20.45,20.45,0,0,0-2.72,0c-1.24,3.18-2.05,6.16-1,9.39a11.06,11.06,0,0,0,8.77,1.54,3.42,3.42,0,0,1,1.55-.22c.72.19,1.7.45,2,1a53.82,53.82,0,0,1,3.39,7.11c.94,2.54-.06,4.26-2.63,5.31a8.75,8.75,0,0,1-9.8-2.23c-.69-.7-1.34-1.44-2.61-2.8a17.64,17.64,0,0,0,0,3.39,38.9,38.9,0,0,0,5.39,12.7c4.06,5.87,8.1,11.74,12.26,17.54a5.89,5.89,0,0,1,1.07,5.55c-.56,1.88-1,3.81-1.5,5.93A43.75,43.75,0,0,0,993.5,244.6Zm37.8-75.55-1.73,2,18.38,6.83a18.45,18.45,0,0,0,0-2.28c-.88-6.61-3.18-12.8-5.5-19a9,9,0,0,0-1.13-2.09c-3.45-4.69-6.88-9.42-11.39-13.17-4-3.29-8-6.52-13.07-8.06-10.64-3.21-20.41-1.79-29,5.4-2.83,2.36-5.35,5.1-7.95,7.72-4.46,4.49-7.34,10-9.62,15.8a10.94,10.94,0,0,0-.35,1.89l17.27-1.64c-4.45-2.55-6-5.32-4.83-9a13.28,13.28,0,0,1,4.34-6.52,10.39,10.39,0,0,1,13.47.83l-1.47,2.48c2.38,6.31-2,11.79-8.36,12.37l14,1.87c-2.83-2.91-3.57-4.08-3.39-6.09.2-2.37.48-4.79,2.43-6.52,3.4-3,8.52-2.25,11.74,1.71-.12,1.86-.18,3.7-.35,5.53a10.76,10.76,0,0,1-.69,3.86c-.6,1.14-1.84,1.93-3,3l10.25,2.82c-2.13-3.45-2.28-6.46-.9-9.61,1.82-4.11,4.68-4.1,8-1.91a12.55,12.55,0,0,1,2.37,2.64c.48.56.91,1.15,1.44,1.82a21.12,21.12,0,0,1,2.3-2c2.19-1.37,5.51-1.15,7.05.38,2.06,2,2.36,6.46.61,8.84a6.3,6.3,0,0,1-8.44,1.88A24.06,24.06,0,0,1,1031.3,169.05ZM685.79,269.41c-10.16-2.73-8.69-.17-23.41-12.13-3.35,8.2-6.16,16.67-13,22.58.22,1.72.42,3.26.63,4.95a24.9,24.9,0,0,0,3.09.89c9.21,1.34,18.46,1.19,27.72.83,1.81-.07,3.69-.2,5-1.3Zm43.29-118a24.23,24.23,0,0,0,0,4.22c.93,4.66,1.87,9.32,3,13.91,2.72,10.61,5.59,21.17,8.39,31.76,1.06,4,2.07,8.08,3.1,12.12a1.19,1.19,0,0,0,.51-1c-.16-6.57.32-13.14-.08-19.72-.28-4.55.46-9.15.53-13.73.11-7.66.06-15.31,0-23a15,15,0,0,0-.5-2.63c-2.08-.92-4-1.78-5.94-2.59a3.37,3.37,0,0,0-1.53-.26C734.35,150.79,732,151.1,729.08,151.46Zm240.71,17.82c26.72,3.72,52.56,11,78.41,18.27.82-3.89.64-4.51-2.38-5.73-4.53-1.82-9.1-3.57-13.7-5.2-3.49-1.22-7.08-2.18-10.61-3.3-14.11-4.46-28.49-6.82-43.33-5.44A33.86,33.86,0,0,0,969.79,169.28ZM659.35,248.86c.36-.64.79-1.06.82-1.5.36-5.27,1-10.56-.39-15.76a53.53,53.53,0,0,0-7.68-16.43,81.18,81.18,0,0,0-17.88-18.37c-1.73-1.34-3.57-2.55-5.36-3.82l-.62.46c1.29,2.25,2,4.71,3.4,6.95a126.67,126.67,0,0,0,13.56,18,23.59,23.59,0,0,1,6,14.3,33.66,33.66,0,0,0,.79,5.48,11.19,11.19,0,0,0,1.55,3.58c1.39,2.08,2.94,4,4.47,6A8.38,8.38,0,0,0,659.35,248.86Zm-29.66-60.52a100,100,0,0,1,20.17,16.3c.54-3.57.89-6.54,1.44-9.46,1.25-6.6,2.57-13.19,3.92-19.77a17.54,17.54,0,0,0,.28-6.49c-.84,1.36-1.26,2.12-1.76,2.83-1.72,2.47-3.15,5.2-5.71,7-5.08,3.56-10.31,6.86-16.31,8.71C631.24,187.6,630.8,187.85,629.69,188.34ZM980.35,292.83c3.91-2.91,5.95-6.95,7.26-11.81-6.44-3.51-12.19-7.54-16.55-13.5C968.05,276.38,972.78,290.35,980.35,292.83ZM989,273.25c1.46-2.93,1.49-4.11-.38-5.9-3.5-3.36-7.09-6.62-10.7-9.84-.31-.28-1.08,0-1.75,0C977.7,262.14,985,271,989,273.25Zm3.38-17.92c.09-.09.24-.16.28-.27,1.28-3.72-.06-6.32-3.38-8.16-2.07-1.15-4.06-2.44-6.1-3.64-.18-.11-.49,0-1.06,0l-1,2.85C986.27,251.59,990.13,254.73,992.39,255.33Zm-.15-106.09c-2.94,1.34-4.3,3.73-5,6.57a1.92,1.92,0,0,0,.72,1.64,2.09,2.09,0,0,0,1.78.11,5.9,5.9,0,0,0,3.11-3.82C993.29,152.24,993.55,150.71,992.24,149.24Zm-13,101.61c2.84,5.11,7.55,8.4,11.82,12.57.2-.79.48-1.26.35-1.5C988.61,256.88,983.29,254.58,979.21,250.85Zm77.44-63.47a2.07,2.07,0,0,0-.12,2.86,3.06,3.06,0,0,0,2,1,10.39,10.39,0,0,1,6.44,2.63c.47.43.92.89,1.37,1.33A13.22,13.22,0,0,0,1056.65,187.38Zm-105.06-6.92c1.23,3.73,3,5.74,6.29,6.3C957.74,184.48,957.74,184.48,951.59,180.46Zm58.84-26.13c-3.59,2.23-3.78,2.63-2.89,5.44C1009.28,158.56,1009.87,156.86,1010.43,154.33Zm19.1,5.39c-1.44.42-2.37.41-2.69.84-.83,1.14-1.95,2.35-.94,4.61C1027.13,163.31,1028.09,161.87,1029.53,159.72Zm-63.91,28.09c1.45,1.38,2.6,1.21,4.14.14C968.27,186.71,967.13,186.63,965.62,187.81Zm9.81,3.2c-1.38,1.24-1.39,2,0,3.5ZM622.85,160.07c1-1.27,1.35-2,0-3.37Zm387.08,78.8v-.26h-3.28v.26Z"/><path d="M488.26,451.89c5.87,4.85,6.53,11.39,6,18.33A34.12,34.12,0,0,1,492,481c-.28.69-.67,1.33-1.46,2.88a16.2,16.2,0,0,1-.26-2.62c.46-3.27.9-6.54,1.48-9.78a26.9,26.9,0,0,0-.28-9.84,7.89,7.89,0,0,0-3.24-5.24c-.32-.23-.78-.38-1-.69a5,5,0,0,1-1.05-2.35c0-1.05,1.16-1.28,2.09-1.46Z"/><path d="M487.39,27.91c-3.21,1.41-9.51.3-12.81-2.34.29-.25.56-.68.82-.68C478.2,25,485.54,26.83,487.39,27.91Z"/><path d="M423.38,48.35A17.59,17.59,0,0,1,427,55.48c.15.48-.22,1.13-1,1.76-.43-1.54-.78-3.11-1.3-4.61S423.22,50,423.38,48.35Z"/><path d="M1072.78,128.55c-.76.62-1.19,1.25-1.68,1.3a2.13,2.13,0,0,1-2-3c.2-.41,1.28-.87,1.51-.7A16.2,16.2,0,0,1,1072.78,128.55Z"/><path d="M413.08,30.89l2.48,4.37c-.34,1.7-1.4,2.15-3.12,2C412.63,35.39,412.81,33.54,413.08,30.89Z"/><path d="M420,43l-2.12-1.24-2,1.53c.15-1.66,0-3.1,1.67-3.91,1.85.54,2.13,2.09,2.47,3.61Z"/><path d="M1421.45,247.79c-.56,1.67-1.53,1.73-2.56,1.23a1.34,1.34,0,0,1-.25-1.28C1419.45,246.75,1420.38,247,1421.45,247.79Z"/><path d="M363.49,39.81c-1.63.87-2.67.86-3.38-.67C362,38.06,362,38.06,363.49,39.81Z"/><path d="M581.8,56.87c1.3,1.09,1.09,2,.21,2.75a1.33,1.33,0,0,1-1.29-.26C580.06,58.25,580.6,57.49,581.8,56.87Z"/><path d="M937.68,9.86l4.6-1.79C941.09,10.21,941.09,10.21,937.68,9.86Z"/><path d="M602.37,44.28c.38.31.91.55,1.09.95s0,.93-.05,1.41c-.56-.12-1.32-.07-1.63-.42s-.15-1.08-.2-1.65Z"/><path d="M410.58,17.26c-1-1-.71-1.73.28-2.18a1,1,0,0,1,.91.34C412.16,16.56,411.4,16.91,410.58,17.26Z"/><path d="M631.12,53.8c-.44.34-.72.73-1,.73s-.73-.49-.69-.68a1.16,1.16,0,0,1,.74-.74C630.4,53.07,630.71,53.48,631.12,53.8Z"/><path d="M1072.31,22.38c.32.43.72.73.69,1s-.47.49-.72.74c-.25-.27-.66-.51-.68-.79S1072,22.78,1072.31,22.38Z"/><path d="M1238.17,298.05l2.63,1.06C1239,300,1238.6,299,1238.17,298.05Z"/><path d="M540.67,35.44l-1.42.75c-.14-.29-.44-.65-.36-.87a1.18,1.18,0,0,1,.79-.65C539.89,34.64,540.17,35,540.67,35.44Z"/><path d="M705.4,18.63c.18.64.41,1,.32,1.29a1.38,1.38,0,0,1-.81.6c-.14.05-.39-.21-.59-.33Z"/><path d="M1408.57,212.76a12.86,12.86,0,0,1,.76,1.16c0,.06-.31.3-.48.45l-.82-1.25Z"/><path d="M453.65,45a3.36,3.36,0,0,1-1,.09c-.12,0-.16-.42-.24-.65a4.15,4.15,0,0,1,1-.23C453.43,44.15,453.52,44.58,453.65,45Z"/><path d="M420,43c.81.29,1.69.52,1.47,1.83-1.17-.12-1.28-1-1.48-1.82Z"/><path d="M537.2,43.19c-.07.22-.15.43-.22.65l-.76-.46c.15-.18.26-.46.44-.52S537,43.07,537.2,43.19Z"/><path d="M438.32,38.42c.2.23.44.48.67.73-.28.14-.63.46-.82.38s-.4-.51-.59-.79Z"/><path d="M431.14,38.07l-.76-.66c.26-.17.58-.53.76-.47s.46.47.69.72Z"/><path d="M541.78,25.3c-.38.31-.65.69-.89.67s-.51-.4-.76-.63c.23-.23.44-.64.68-.65S541.36,25,541.78,25.3Z"/><path d="M156.25,138.11c-.48-.59-1.05-1-1-1.34.09-3,.86-6.08,3.84-7.27,4.37-1.74,6.58-5.29,8.35-9.08,3.51-7.54,6.69-15.25,9.9-22.93,3.06-7.32,5.83-14.76,9-22a70.54,70.54,0,0,1,24.33-30.17A66.22,66.22,0,0,1,226,37.09c1.11-.4,2.18-.94,3.2-1.39,0-1-.2-2,.21-2.66.7-1.06,1.89-.68,2.86-.17,1.89,1,3.74.71,5.76.32,3.74-.73,7.5-1.69,11.37-.71a9.44,9.44,0,0,0,2.38.1c9.57-.1,18.17,3.16,26.25,7.9,4,2.33,7.67,5.14,11.42,7.83,5.15,3.71,10.3,7.42,15.31,11.31C309,62.94,313,66.68,317.27,70s8.8,6.28,13.33,9.23a52,52,0,0,0,6.7,3.4c1.43.66,2.94,1.13,4.43,1.66.37.13.84,0,1.16.23,4.32,2.65,9.39,3.27,14,5.14s9.56,3.09,14.22,5c6.5,2.59,12.95,5.36,19.28,8.36a19.77,19.77,0,0,1,9.34,8.83c1.88,3.63,4.26,7,6.17,10.6,1.72,3.22,3.1,6.63,4.48,9.65-.66,1.7-1.72,1.88-2.77,1.52a28.36,28.36,0,0,1-3.59-1.65c-5.69-2.79-11.25-5.89-17.11-8.28A48.78,48.78,0,0,0,369.53,120c-5-.12-10-.6-15-.54a45.74,45.74,0,0,0-9.81,1.23,268.3,268.3,0,0,0-31.62,9.09,35.15,35.15,0,0,1-3.74,1,27.51,27.51,0,0,0,10.57,4.5c6.71,1.52,13.38,3.21,20.07,4.75a33,33,0,0,0,21.68-2c1.56-.71,3.11-1.46,4.68-2.16,2.86-1.27,3.45-1,5.35,2.38-1.74,2.1-3.49,4.38-5.42,6.5a90.18,90.18,0,0,1-21.94,18.08c-3.78,2.14-7.81,3.85-11.8,5.61-2.89,1.28-5.9,2.31-8.84,3.51a30.79,30.79,0,0,1-15.95,1.82c-3.92-.51-7.93-.39-11.7-1.87-2.08-.82-4.24-1.43-6.29-2.31-7.91-3.42-15.23-7.94-22.54-12.45a80.44,80.44,0,0,1-20.8-18.77c-6-7.56-11.79-15.26-17.65-22.92-3.55-4.64-7.91-8.16-13.63-9.7a15.54,15.54,0,0,0-5-.66,36.59,36.59,0,0,0-14.1,3.72c-2.93,1.5-5.93,2.92-9,4.14a34.47,34.47,0,0,0-17.23,14.58c-1.62,2.67-3.73,4.81-7,5.32-1.71.27-2.76,1.47-3.87,2.6ZM177,112.5a32.64,32.64,0,0,0,3.67-1.12c4.32-2,8.59-4.09,12.93-6a59.64,59.64,0,0,1,7.35-3c13.3-4,24.51,1.42,31.5,10.24,5.65,7.13,10.8,14.68,16.33,21.92,4.5,5.89,9.41,11.47,15.45,15.85A167,167,0,0,0,291.3,166c7.21,3.39,14.84,3.35,22.5,3.34,3.52,0,6.6-1.8,9.86-2.83A84.92,84.92,0,0,0,357,146.6a11,11,0,0,0,1.22-1.92,33.21,33.21,0,0,0-4.45.35,20.08,20.08,0,0,1-8.66.05c-6.06-1.32-12.09-2.78-18.18-4a76.91,76.91,0,0,1-24.41-9,66.8,66.8,0,0,0-6.51-2.91c-.55-.24-1.07-.54-1.66-.84,2.28-2.89,2.81-3.26,5.73-2.58a19.39,19.39,0,0,0,10.55-.69c8.94-2.86,18.05-5.06,27.12-7.47a80.44,80.44,0,0,1,23.55-2.47c2.64.08,5.29.08,7.91.39,5,.59,10,.84,14.79,2.65,3.7,1.41,7.39,2.88,11,4.42,2.26,1,4.46,2.07,6.76,3.15.07-.56.19-.83.12-1-.82-2.52-2.94-3.21-5.21-3.67-1.36-.27-2.88-.11-4-1.51,2.08-1.87,4.08.94,6.2-.18a16.91,16.91,0,0,0-.6-1.89,20.74,20.74,0,0,0-9.28-10c-4.58-2.35-9.18-4.72-13.95-6.62-7.35-2.94-14.77-5.73-22.3-8.15a115.41,115.41,0,0,1-20.9-8.48A123.69,123.69,0,0,1,318.43,76c-6.79-5-13.13-10.64-19.87-15.74S285.23,49.36,277.85,44.9c-4.55-2.75-9.2-5.23-14.48-6.26a9.06,9.06,0,0,0-5.08.09c-2.46.93-5,1.79-7.45,2.65A14.27,14.27,0,0,1,239,40a6.9,6.9,0,0,0-6-.45c-6.39,2-12.15,5.23-17.73,8.76-10.72,6.78-18,16.61-23.48,27.82-2,4-3.37,8.3-5.08,12.44-1.57,3.79-3.23,7.54-4.79,11.33S178.88,107.76,177,112.5Zm63.3-74.11c5.35,1.41,10.22,1.52,15-.68A35.23,35.23,0,0,0,244.17,37C243,37.05,241.57,36.94,240.3,38.39Z"/><path d="M223.2,369.69c4.51.84,8.4-.83,12.23-2.57a23.06,23.06,0,0,0,5.09-3q6.12-5,12-10.38a19.13,19.13,0,0,1,5.47-3.86c3.65-1.52,7.27-3.18,11-4.43a19.28,19.28,0,0,1,10.14-1.06,20.88,20.88,0,0,0,4.75.15,40.72,40.72,0,0,1,12.5,1.86c3.56,1,7.11,2.07,10.59,3.3a32.15,32.15,0,0,1,4.92,2.52c4,2.23,5.9,5.92,7.12,10.08a24.09,24.09,0,0,1-1.88,18.46,59.93,59.93,0,0,0-6,16.33,28.82,28.82,0,0,0-.55,4.71,68,68,0,0,0,4.4,24.84q2.06,5.58,4.13,11.15a12.78,12.78,0,0,1-.49,10.72,37.45,37.45,0,0,1-10,13.07,58.35,58.35,0,0,0-5.95,5.82,15.66,15.66,0,0,1-5.46,3.86,10.84,10.84,0,0,0-2.17,1c-3.59,2.53-7.91,2.7-11.95,3.54a22.87,22.87,0,0,1-12.85-1.53c-4.92-1.92-9.67-4.27-14.42-6.58-3.43-1.67-6.77-3.56-10.11-5.42a28.94,28.94,0,0,1-2.91-2.06c-6-4.42-8.44-10.64-8.67-17.86A81.6,81.6,0,0,1,235.36,425a114.21,114.21,0,0,0,1.76-19.72,74.45,74.45,0,0,0-5.23-27.1,15.59,15.59,0,0,0-1-2.15c-.39-.68-.87-1.31-1.39-2.1C226.59,374,223.54,374.12,223.2,369.69ZM262,396.33c-4.14.88-4.15.88-4.86,5-.27,1.56-.45,3.13-.76,4.69a5.85,5.85,0,0,1-.7,1.39,21.64,21.64,0,0,1-.85-6,8.46,8.46,0,0,0-.65-1.91c-2.44,5.16-5.23,10.08-3.15,15.88a6.36,6.36,0,0,1-.33.7c-2.54,4.15-1.69,7.24,2.52,9.44a17.9,17.9,0,0,1,2.84,2,19.39,19.39,0,0,0,6.39,3.39c.29-1.69.64-3.09.76-4.51.43-5.13.69-10.27,1.19-15.39.53-5.38,1.28-10.74,1.9-16.12a16.33,16.33,0,0,0-.1-2.3l-4.19,3.8Zm-22.4,32.21c-.62.62-.95.78-1,1-.37,4.34-1.09,8.69-1,13,.22,8,3.66,14.24,11,18,.59.31,1.14.67,1.73,1,5.21,2.6,10.43,5.16,15.61,7.79a36.26,36.26,0,0,0,11.7,3.63c4.84.62,9.47,0,13.46-3.94,1.5,1.53,3.08.62,4.56-.3a31.06,31.06,0,0,0,4.81-3.43c3.2-3,6.24-6.1,9.34-9.18a27.81,27.81,0,0,0,6-8.81,11.44,11.44,0,0,0,.28-8.51c-1.37-3.87-2.91-7.68-4.14-11.58-1.43-4.54-2.6-9.15-3.91-13.72a7.39,7.39,0,0,0-1.09-2.88c-1.29-1.43-1.38-3-1.44-4.78a38.77,38.77,0,0,0-1.8-11.23,3.28,3.28,0,0,0-.32,1.4c-.35,8.17,1.57,16,3.47,23.85.58,2.43,1.38,4.81,3.61,6.35-.75,2.59-1.58,5-2.12,7.39a15.34,15.34,0,0,1-5.67,8.8c-3.16,2.59-6.9,3.83-10.57,5.32-10,4.05-20,2.93-29.9-.14-6.64-2.06-11.8-6.37-16.43-11.4a10.83,10.83,0,0,0-2.56-2.42,5.27,5.27,0,0,1-2.61-3.3A15.66,15.66,0,0,0,239.6,428.54Zm26-64.57c-6,2.83-10.44,7.27-14.41,12.25a29.1,29.1,0,0,0-3.13,5.49,3.51,3.51,0,0,0-.37,2.63c.87,1.63.72,3.32.95,5,.47,3.33,2.47,4.94,5.82,4.48,4.58-.64,8.31-2.72,10.05-7.3,1-2.71,1.8-5.52,2.68-8.29a10.17,10.17,0,0,1,.63-2.26,1.76,1.76,0,0,1,3.11,0,5.09,5.09,0,0,1,.53,2.27c.09,1.45.05,2.9.06,4.36a8.55,8.55,0,0,0,1.83,5.15c2.15,2.86,5.41,2.65,7-.5a32.63,32.63,0,0,0,1.49-4.51,29.72,29.72,0,0,1,1.08-3.39,1.79,1.79,0,0,1,3.2-.34,18.69,18.69,0,0,1,1.6,3.59c.92,2.32,1.51,4.81,3.42,6.53,3.06-.77,3.06-.77,5.84.92,2.76-1.28,3-1.24,3.39-3.79.79-5,1.46-9.94,1.84-14.93.18-2.37-.48-4.93-2.66-6.33-3.31-2.12-6.72-4.44-10.8-2.29-1.11-.64-2-1.52-2.93-1.62-4.21-.44-8.44-.72-12.62.27a3.11,3.11,0,0,0-2.34,2.4c-1.06,3.53-1.65,3.65-4.19,1.1C266.5,364.63,266.28,364.48,265.65,364Zm-23.86,42.79c.31-6,.82-11.1.79-16.23a26.61,26.61,0,0,1,7.76-19.32c4-4.14,8.7-7.63,13.12-11.37a3.05,3.05,0,0,1,1.8-.71,7,7,0,0,0,5.49-2.57c1.81-2,4.5-2,7-2.17,1.89-.1,1.83,2,3.16,2.92,1.19-.06,2.5-.18,3.81-.18a14.15,14.15,0,0,1,3.12.26,57.34,57.34,0,0,1,6.89,1.86,39.77,39.77,0,0,1,6.37,3.08c3.17,1.88,4.29,5,4.23,8.47a110.8,110.8,0,0,1-1,11.05,18.43,18.43,0,0,0,.75,8.59,62.53,62.53,0,0,1,1.57,6.13c.16.65.35,1.31.58,2.16,1.28-4,2.33-7.63,3.65-11.2a80.22,80.22,0,0,1,3.67-8.34c2.88-5.66,2.66-11.45,1.1-17.38a12.91,12.91,0,0,0-8.16-9.08c-11.1-4.4-22.5-7-34.49-4.62-6.28,1.23-12.17,3.52-17.09,7.82-4,3.48-7.95,7-11.94,10.44a19.46,19.46,0,0,1-7.14,4.17,28.22,28.22,0,0,0-3.23,1.46c1.36,3.92,2.79,7.47,3.82,11.13s1.86,7.7,2.57,11.6C240.72,398.44,241.14,402.2,241.79,406.76Zm28.08-9.94-.95-.11a39.54,39.54,0,0,0-1.16,4.09,102.48,102.48,0,0,0-1.55,11c-.2,3.65.12,7.29-.67,10.94-.49,2.27-.12,4.71-.13,7.08,0,2,.3,2.56,2.35,3a29.07,29.07,0,0,0,5.09.66c6.07.28,12.13.31,18.21.24a30.45,30.45,0,0,0,12.9-3.38,7.62,7.62,0,0,0,1.55-1.43,59.12,59.12,0,0,0-1.34-7,81.32,81.32,0,0,1-3.45-17.46c-.09-1.05-.32-2.09-.49-3.13-.14-.86-.27-1.73-.41-2.59a23.41,23.41,0,0,0-.65,6.77c0,2.37.05,4.74.16,7.11.1,2.18.31,4.36.47,6.38-1.51.84-2.24.08-2.45-.81a47.5,47.5,0,0,1-1.25-7c-.39-4.61-.55-9.23-.85-13.85-.05-.85.1-1.94-1.48-2.1a5.23,5.23,0,0,0-.67,1.21,63.46,63.46,0,0,0-1.22,23.22c.27,2.18.82,4.37.44,6.57-1.95.18-2.21.18-2.41-.61A23.93,23.93,0,0,1,289,421c-.35-6.33-.58-12.66-.81-19a20.48,20.48,0,0,0-1.65-7.9c-.47,2-.76,3.09-1,4.22a87.81,87.81,0,0,0-2,9.67c-.52,5.52-.59,11.08-.91,16.61a16.16,16.16,0,0,1-.92,2.92c-.72-1.55-1.3-2.28-1.38-3.06a57.65,57.65,0,0,1,.14-13.83c.86-5.73.84-11.5,1-17.41-1.34.3-2.47.58-3.61.8s-2.26.36-3.36.53c-.86,3.28-1.71,6.2-2.39,9.15a37.52,37.52,0,0,0-1.13,6.63c-.23,4.87-.2,9.76-.3,14.64a18.94,18.94,0,0,1-.29,3.54c-.1.48-.75.85-1.74,1.87-.4-2.76-.84-4.83-.63-6.85.82-7.87.1-15.85,1.79-23.65A15.15,15.15,0,0,0,269.87,396.82Zm34.32,37.71c-4.53,1.06-8.74,2.72-13.31,2.77-4.75.06-9.52.4-14.26.22-8-.32-15.82-1.48-22.38-6.76a5.18,5.18,0,0,0-4-1.53c-.35,1-.7,2-1.31,3.71a25.71,25.71,0,0,1-1.23-2.63c-.39-1.26-.56-2.59-1-3.81a2,2,0,0,0-2.45-1.4c-.54,1.92.3,3.37,1.11,4.91,3.52,6.67,9.25,10.75,15.9,13.72a37.94,37.94,0,0,0,28.6,1.4c2.36-.8,4.62-1.92,6.94-2.84A13.46,13.46,0,0,0,304.19,434.53Zm-55.79-37a22.77,22.77,0,0,0-2.11,6.95c-.38,2.88-.93,5.73-1.3,8.61a36.69,36.69,0,0,0-.29,5.13c0,1.29.71,2.21,2.57,2.24.14-1.86.42-3.67.39-5.47a32,32,0,0,1,1.37-9.78c.67-2.23,1.38-4.46,2.14-6.89Zm36.72-10.57c-1.44,2.06-2.68,4.17-2.07,7.31C285.45,392,285.66,389.57,285.12,386.94Zm-13.59,7.51c1.3-.78,1-1.8.36-2.71a19,19,0,0,0-3.35-4.21l-.19,2.62Zm-30.4,17.64h-.26v2.58h.26Z"/><path d="M434.58,204.22c2.78,2.21,5.84,3.38,8.83,4.69a25.28,25.28,0,0,1,3.91,1.91c1.64,1.11,1.45,2.9-.33,3.74a13.92,13.92,0,0,1-2.65.77q-6.34,1.6-12.69,3.17c-1.28.31-2.59.55-3.87.85s-2.49.63-3.88,1a5.48,5.48,0,0,0,.56,1.35c3.76,4.07,7.57,8.11,11.32,12.19,1.34,1.45,2.59,3,3.85,4.52a2,2,0,0,1,.32,2.54,2,2,0,0,1-2.48.7,12.2,12.2,0,0,1-1.86-.69c-7.06-3.24-14.65-4.38-22.22-5.59a4.42,4.42,0,0,0-1.35.29,48.29,48.29,0,0,0,2.46,7.49,261.64,261.64,0,0,1,8.39,25.62c.4,1.58.79,3.1-1.25,4.35a17.35,17.35,0,0,1-2.33-1.87c-1.67-1.87-3.23-3.84-4.85-5.76a26.23,26.23,0,0,0-2.34-2.69c-8.3-7.57-16.23-15.54-25.49-22a40.34,40.34,0,0,0-20.58-7.62,52,52,0,0,0-14.17.79,85.3,85.3,0,0,1-9.42,1.29c-4.19.4-7.13,1.6-11.62,5.17.4,2.27-1.08,3.57-2.88,4.92a69.52,69.52,0,0,0-6.83,6,15.47,15.47,0,0,0-4.19,8c-1.23,5.76-1,11.59-.57,17.38a52.8,52.8,0,0,0,1.67,9.74c1.24,4.59,4,8,7.23,11.15,10.17,9.88,22.76,14.61,36.47,16.94,4.82.82,9.59,1.94,14.42,2.65,4,.59,8.15.82,12.23,1.15A24.07,24.07,0,0,0,397,317a16.14,16.14,0,0,0,9.87-8.09c3.44-6.23,5.6-12.83,5.17-20.09a15.26,15.26,0,0,1,0-3.17,6.93,6.93,0,0,1,.89-1.88,2.22,2.22,0,0,1,2.35,2,17.57,17.57,0,0,1,.68,5.09c-.69,6.58-1.83,13.07-5.36,18.86-.35.57-.81,1.07-1.1,1.66-3,6.15-8.61,8.28-14.71,9.55a43.52,43.52,0,0,1-16.17,0c-7-1.18-14.12-2.13-21.12-3.51a98.52,98.52,0,0,1-11-3.27c-1.76-.56-3.43-1.38-5.17-2-7.65-2.73-13.83-7.67-19.66-13.1-4.39-4.1-6.81-9.35-8.47-15a8.83,8.83,0,0,1-.37-1.95c-.28-5.94-.64-11.88-.75-17.82a26.2,26.2,0,0,1,3.07-12.21,28.15,28.15,0,0,1,3.15-4.14c-1.08-.75-2.46-1.31-3.17-2.34s-.7-2.5-1-3.77c-1-3.83-2.29-7.61-3.08-11.48a126.67,126.67,0,0,1-2.07-13.69c-.29-3.22.92-4.27,4.1-4.57,3.68-.34,7.37-.64,11.05-1a16.28,16.28,0,0,0,3.12-.53c6.21-1.86,12.43-3.62,18.31-6.45,3.93-1.89,8.09-3.28,12.09-5,3.38-1.48,6.76-3,10-4.78,11-6,22.49-10.56,34.93-12.47,3.52-.54,7-1.27,10.57-1.56,8.32-.69,16.25,1.52,24.2,3.54q4.23,1.06,8.48,2c3,.66,3.77,2.49,1.67,4.72-3.17,3.38-6.51,6.59-9.77,9.88A13.54,13.54,0,0,0,434.58,204.22ZM320.06,235.87c7.6-4.61,14.71-10.09,23.22-13.2a6.4,6.4,0,0,1-1.72,2.07c-4.07,3.15-8.14,6.29-12.26,9.37a10.69,10.69,0,0,1-2.49,1.16c-3.68,1.46-5.8,4.56-8.05,7.6a2.14,2.14,0,0,0,1.46-.27c2.87-1.9,5.68-3.88,8.56-5.74,4-2.6,8.24-4.63,13.15-5.12,5.12-.5,10.2-1.45,15.32-2.08a41.35,41.35,0,0,1,16.89,1.22c9.5,2.78,17.25,8.56,24.48,15,6.59,5.89,12.88,12.12,19.5,18.38a10,10,0,0,0-.3-1.57q-4.51-12.7-9.07-25.4c-.53-1.49-1.07-3-1.46-4.52-.27-1.1,0-2.12,1-2.48,4,.78,7.73,1.47,11.46,2.26s7.38,1.65,11.58,2.59a11,11,0,0,0-3.06-4.23q-4.54-4.43-9.07-8.89a9.31,9.31,0,0,1-1.51-1.82,1.9,1.9,0,0,1,1.05-2.89,9.82,9.82,0,0,1,1.53-.4l17.34-4.15a14.86,14.86,0,0,0,1.74-.76c-1-.53-1.48-.89-2-1.13-2.44-1-4.92-1.94-7.32-3-2.15-1-2.49-2.67-1-4.47a16.8,16.8,0,0,1,1.39-1.41c3-3,6.06-5.92,9-8.92.89-.9,2.17-1.57,2.27-3.31a12.9,12.9,0,0,0-1.7-.75c-2-.57-4.12-1-6.11-1.66a54.53,54.53,0,0,0-15.89-3c-6.45-.24-12.67,1-18.85,2.24-8.56,1.72-16.91,4.32-24.47,8.95a38.42,38.42,0,0,1-3.91,1.94c-6.11,2.82-12.12,5.93-18.68,7.69a16.06,16.06,0,0,0-1.83.76c-4.4,1.79-8.84,3.51-13.19,5.4a53.58,53.58,0,0,1-20.85,4.18,20,20,0,0,0-2.85.45c-.72,3.2-.12,6.06.87,9.16,2.26-1.05,4.28-2,6.3-2.91s4-2,6.16-2.74,3.51-2.8,6.66-2.12c-5.75,5.18-12.52,7.67-18.45,11.77.35,1.33.71,2.72,1.08,4.11a14.53,14.53,0,0,0,1.53,4.56l2.43-1.74Z"/><path d="M348.79,253.71c-6.71,1-13.12,1.62-17.31,7.19.35,2.25,1.82,3.07,3.18,3.8,5.12,2.75,10.18,5.65,15.5,8a148.37,148.37,0,0,0,17.11,6.27c6.2,1.84,12.59,3,18.88,4.57a17.65,17.65,0,0,1,4,1.61c.43.23.88,1.32.69,1.63A2.85,2.85,0,0,1,389,287.9a5.92,5.92,0,0,1-2.33-.32c-7.32-1.8-14.67-3.47-21.93-5.47A133.52,133.52,0,0,1,344,274.28c-4.56-2.12-9.15-4.17-13.11-7.35a16.7,16.7,0,0,1-1.54-1.24,6.26,6.26,0,0,1-.92-8,11.69,11.69,0,0,1,5-4.41c4.05-2.09,8.49-3,12.88-3.89,6.45-1.38,12.95-2.52,19.45-3.69,3.46-.61,6.82.43,10.2.88,6.22.84,11.65,4.18,17.62,5.82a6,6,0,0,1,1.56,1c-.87,2.1-1.39,2.57-2.65,2.25-.76-.19-1.44-.66-2.18-.92-1-.35-2-.71-3.19.33.2.88.4,1.88.66,2.87a18.2,18.2,0,0,1,0,9.41,7.94,7.94,0,0,1-5.28,5.93c-3.16,1.17-6.26,1.9-9.65.93-3-.88-6.18-1.4-9.25-2.17-4.25-1.06-7.6-3.66-10.62-6.67A13.71,13.71,0,0,1,348.79,253.71Zm14.89,14.86c2,.63,3.89,1.36,6.14,1.16v-3.25L367,267.59c-1.34-1.26-1.09-2.59-.73-3.84.92-3.13,1.95-6.23,2.91-9.35.29-1,1-2-.33-3.08-.44.22-1.24.36-1.45.79a18.74,18.74,0,0,0-1.25,3.7c-.56,2.28-1.09,4.58-1.49,6.9C364.37,264.61,363.18,266.37,363.68,268.57Zm9.75,1.54a6.8,6.8,0,0,0,5.45.24c-.68-.24-.91-.34-1.14-.39s-.27.06-.39,0c-1.92-.33-2.57-1.05-2.38-2.81a9.15,9.15,0,0,1,.57-2.29c.79-2.09,1.66-4.15,2.49-6.23.52-1.31,1.09-2.64-.06-3.9-1.65.35-2,1.62-2.22,2.7C374.83,261.64,373.22,265.72,373.43,270.11Zm9.27-10.92c-1.5,2.29-3,4.63-1.49,8C383,264.46,382.43,261.74,382.7,259.19Zm-9.76-3.92-.87-.15-.29,1.89.56.12Z"/><path d="M184,249.64c-1.78.14-2.92.24-4.06.31-2,.12-3.95.3-5.92.29a5.15,5.15,0,0,1-2.62-.71,2.67,2.67,0,0,1-1-1.89c0-.43.74-1.15,1.27-1.29a28.56,28.56,0,0,1,4.67-.83c4.48-.38,9-.67,13.43-1a13.51,13.51,0,0,1,2.37-.13c5.77.63,11.52,1.32,17.29,2,3.13.35,5.67,2.12,8.39,3.42a69.29,69.29,0,0,1,9,5.06,20.25,20.25,0,0,1,4.76,4.66c1.75,2.33,1.41,4.1-.86,5.83a25.6,25.6,0,0,1-9.36,5c-6.54,1.63-13,3.64-19.46,5.47-1,.28-2,.49-3.09.69-4.41.83-8.81,1.65-13.23,2.46-1.68.3-3.37.61-5.07.81a3,3,0,0,1-1.9-.32,3.13,3.13,0,0,1-1.23-1.81c-.08-.46.49-1.24,1-1.54a8.12,8.12,0,0,1,2.25-.62l15.47-3.52c-1.31-.65-1.91-1-2.54-1.25-3.43-1.45-6.71-3-9-6.17-2.84-3.86-3.69-7.82-1.4-12.22A27.19,27.19,0,0,0,184,249.64Zm44.35,11.75c-2-3.39-5.31-4.42-8.89-5.78a52.69,52.69,0,0,1,.42,5.34,44.36,44.36,0,0,1-.65,5C223.1,265.58,226.18,264.54,228.39,261.39Zm-25,6.54c.27-2.13.49-4.33.83-6.52s1.76-4.35,1-7.4c-2.6,4.26-3.34,8.51-3.94,12.75C201.13,267.77,202,268.36,203.37,267.93Zm5.9.24c-.84-2.92.16-5.24.95-7.57a19.27,19.27,0,0,0,1.19-6.59c-3.15,3.36-4.51,8.62-3.85,14.16Zm-12.33-1.5a15.76,15.76,0,0,0,1.12-2.18c.89-3,1.73-6,2.55-9.08a15.83,15.83,0,0,0,.62-3c0-.49-.38-1-.71-1.77C198.14,255,196.24,263.3,196.94,266.67Zm-1.13-14.45L195,252c-1.1,3.19-2.2,6.38-3.27,9.57a3.81,3.81,0,0,0-.21,1.56,15.75,15.75,0,0,0,.81,2.45A106.91,106.91,0,0,0,195.81,252.22Zm16.78,14.2c3.34-2.24,4.06-4.77,2.62-8.82A39.07,39.07,0,0,0,212.59,266.42Zm-23-11.72a5.33,5.33,0,0,0-1.41,5.42Z"/><path d="M268,327.57c-1.82,0-3.65-.07-5.47,0a3.46,3.46,0,0,0-2.12.76c-2.42,2.57-5.44,2.44-8.45,1.9-2.68-.48-4.75-2.23-6.56-4.18a2,2,0,0,1,.08-3.14,7.49,7.49,0,0,1,3.26-2,61.19,61.19,0,0,1,7.25-.45c.18.91.34,1.76.57,2.92.61.44,1.46,1,2.29,1.65a4.38,4.38,0,0,0,3.71.83,10.16,10.16,0,0,1,3.52-.11,8.13,8.13,0,0,1,2.29,1.13Zm-12.73.13,0-1h-3.15l0,.57Z"/><path d="M258.84,259.87c-.62-.11-1.24-.2-1.85-.33-3.31-.68-5.3.42-6.4,3.56a6.76,6.76,0,0,0-.36,1.54c-.58,4.44-1.1,8.89-1.71,13.33-1,6.95-.46,14-.83,20.93-.18,3.42-.66,6.83-.7,10.25a61,61,0,0,0,.65,7.08c-1.06-.75-1.09-.74-1.32-1.7a39.93,39.93,0,0,1-.94-11.79c.31-4.61.45-9.22.74-13.82q.75-12.42,1.62-24.85a12.64,12.64,0,0,1,.7-3.07,5,5,0,0,1,4.78-3.54A6.36,6.36,0,0,1,258.84,259.87Z"/><path d="M293.55,252.58c1.15-.6,1.57-1,2-1a7,7,0,0,1,5,2,3.06,3.06,0,0,1,1,2c-.09,6.67.9,13.35,0,20,0,.09-.16.17-.4.43a8.12,8.12,0,0,1-1-4.53c0-3.81-.15-7.63,0-11.44.09-3-.81-5.11-3.9-6A15.52,15.52,0,0,1,293.55,252.58Z"/><path d="M434.13,77.38a7.44,7.44,0,0,1-3.05,5.05c-2.29,1.76-3,4.12-3.58,6.78A88,88,0,0,1,425,98.34a11,11,0,0,1-2.06,3.29c-.3.38-1.07.38-1.63.55-.16-.53-.36-.9-.28-1,2.07-2.2,2.85-5,3.55-7.79.26-1,.52-2,.77-3.07C427.2,82.8,427.2,82.8,434.13,77.38Z"/><path d="M341.75,79.87c-1.16-1.72-2.43-3.37-3.47-5.15-1.55-2.66-3.17-5.15-6.24-6.32-.59-.22-1-1-1.69-1.89.92-.19,1.53-.52,1.85-.34,1.38.74,3.08,1.34,3.91,2.52,2.4,3.38,4.91,6.75,6.36,10.71Z"/><path d="M295.38,323.73c-.63,2.56-1.83,3.68-3.51,4.28-3.86,1.38-7.69,2.76-11.94,1.68a26,26,0,0,0-4.69-.21,11.53,11.53,0,0,1-1.86-.53,5.28,5.28,0,0,1,4.91-.71c4.47,1.43,8.63.19,12.7-1.37C292.38,326.34,293.51,325.11,295.38,323.73Z"/><path d="M284.53,321.26c1.63-1.64,3.39-1.88,4.94-2.43a2.62,2.62,0,0,1,3.22,2.13c.24,1.11-.5,2.08-2,2.5C288.29,324.15,286.41,323.32,284.53,321.26Z"/><path d="M498.46,71.76a5.87,5.87,0,0,1,.89,1.88,19.58,19.58,0,0,1-2.85,10.28,9.55,9.55,0,0,1-.66-1.78c-.17-1.27-.24-2.55-.39-4.22a33.08,33.08,0,0,0,1.33-3.13C497.12,73.73,496.66,72.33,498.46,71.76Z"/><path d="M455.89,108.27c-2.59,1.86-4,.86-5.24.11-1.63-.95-2.16-2.4-2.5-5.8,1.15-1,1.92-.33,2.4.69C451.56,105.41,452.55,107.52,455.89,108.27Z"/><path d="M403,75.67a9.55,9.55,0,0,1,3.69-5.11C406.73,73.29,406,74.38,403,75.67Z"/><path d="M412.75,125.75l6,1.38C416.37,128.07,414.37,127.19,412.75,125.75Z"/><path d="M463.07,71.65c1.17-2.3,1.17-2.3,3.21-2.81C466.21,71.14,464.22,70.93,463.07,71.65Z"/><path d="M300.57,281.61c.9,2.27,0,4.51,0,6.76A14.18,14.18,0,0,1,300.57,281.61Z"/><path d="M480.93,71.72c-.56-.77-1.19-1.25-1.15-1.67s.69-.9,1.07-1.35c.42.39,1.13.76,1.18,1.19S481.48,70.87,480.93,71.72Z"/><path d="M384.86,135.31c-.55-1.77-1.1-3.51,0-5.5.43.66.69.89.67,1.07C385.36,132.36,385.1,133.84,384.86,135.31Z"/><path d="M506.78,99.6c-1.18.1-1.68-.5-1.43-1.58.07-.28.87-.7,1.11-.58C507.48,97.94,507.49,98.74,506.78,99.6Z"/><path d="M516.77,71.22c-.92,0-1.47.16-1.8,0s-.79-.82-.7-1.13c.2-.81.91-.81,1.49-.38C516.1,69.93,516.26,70.42,516.77,71.22Z"/><path d="M365.6,170.19c0-1.31.72-1.75,1.95-1.52C367.56,170.48,367.56,170.48,365.6,170.19Z"/><path d="M502.18,68.55c-.91,1.53-1.7,1.84-2.94,1.08C499.76,68.19,500.61,68,502.18,68.55Z"/><path d="M491.29,71.56a11.24,11.24,0,0,1,1,1.42s-.65.64-.73.59a10.63,10.63,0,0,1-1.21-1.12Z"/><path d="M518.44,78l-4.67-1c2.76-.59,2.76-.59,4.7.91Z"/><path d="M391.34,91.85a18.93,18.93,0,0,1-.93,1.65,5.68,5.68,0,0,1-.85-.41c.3-.57.61-1.14.91-1.72Z"/><path d="M328.89,128.53l3.11,1.83C330,130.45,329,130.32,328.89,128.53Z"/><path d="M496.77,123c.37.73.79,1.19.71,1.53s-.66.59-1,.88c-.28-.37-.79-.74-.79-1.1S496.22,123.58,496.77,123Z"/><path d="M475.55,114.39c.63-.5,1-1,1.37-1s.86.66.82,1a1.47,1.47,0,0,1-.93,1C476.55,115.4,476.12,114.84,475.55,114.39Z"/><path d="M401.15,110.68l3-1C403.24,111,403.24,111,401.15,110.68Z"/><path d="M294.39,44.82a7.14,7.14,0,0,1-1.47.62c-.11,0-.5-.59-.42-.77a1.1,1.1,0,0,1,.8-.6C293.55,44.05,293.83,44.41,294.39,44.82Z"/><path d="M456.67,67a5.62,5.62,0,0,1-.4-.63,4,4,0,0,1,.89-.58s.38.47.34.51A7.13,7.13,0,0,1,456.67,67Z"/><path d="M297.91,317.55v1.66l-.5.07-.3-1.61Z"/><path d="M494.72,93.69c-.2-.51-.49-.91-.39-1.09s.57-.37.9-.45c.08,0,.4.46.34.58A5.32,5.32,0,0,1,494.72,93.69Z"/><path d="M226,233.75c1.24.22,2.49.4,3.71.69s2.22.66,3.13.94c.53,1.54-.17,2.14-1.16,2.31a11,11,0,0,1-6.17-.89c-3.29-1.37-5.33-4.06-7.9-7.05a13.82,13.82,0,0,1,2.29-.51c3.94,0,7.88,0,11.83,0,.52,0,1.17-.15,1.54.1a3.3,3.3,0,0,1,1.39,1.63c.1.36-.59,1.19-1.1,1.39a8,8,0,0,1-2.69.47c-1.57.07-3.14,0-4.72,0Z"/><path d="M471.14,308.66a53.08,53.08,0,0,1-4.51,15.77,2.55,2.55,0,0,1-3.18,1.65c-1.33-.45-2-1.82-1.48-3.62.7-2.4,1.65-4.72,2.41-7.11a32.11,32.11,0,0,0,1.41-5.32c.39-2.86-1.24-3.94-3.81-2.71-.83.4-1.59.94-2.43,1.29A2.05,2.05,0,0,1,457,308a1.92,1.92,0,0,1,.19-2.54c3.12-4.1,9.75-3.73,12.66-.6C470.83,305.9,470.86,307.76,471.14,308.66Z"/><path d="M1310,413.88c-1.16-.78-1.93-1.27-2.66-1.82a2.51,2.51,0,0,1-1.15-2.73,1.94,1.94,0,0,1,2.4-1.52,2.72,2.72,0,0,0,1-.22c1-.95.84-2,.68-3-.58-3.76-1.11-7.53-1.65-11.21a3.13,3.13,0,0,1,4.12-.68,19,19,0,0,1,8.32,8.21c1.41,2.94,1.26,4.56-1.17,6.72a10.08,10.08,0,0,0-3.46,8.43c.06,2.18.47,4.5-.81,6.51-3.85.44-5.39-.69-5.59-4.12C1310,417,1310,415.51,1310,413.88Z"/><path d="M1031.06,427.9q4.13-6.69,8.23-13.36c1.13-1.83,2.78-3.07,4.89-2.69a5.57,5.57,0,0,1,4.46,4c1.16,3.77,2.29,7.56,3.44,11.33.73,2.36,1.48,4.71,2.32,7.38a19.14,19.14,0,0,1-2.67.77,5,5,0,0,1-2-.25c-4.93-1.4-9.86-2.81-14.77-4.28C1033.39,430.35,1031.66,429.91,1031.06,427.9Zm15,1.47a67.29,67.29,0,0,0-2.58-9.73c-1.94,2.86-3.64,5.09-4.52,8C1041.12,428.89,1043.28,429.15,1046.07,429.37Z"/><path d="M1090.49,457.9a7,7,0,0,1-1.41,1.17c-.15.07-.61-.55-.92-.86a8.94,8.94,0,0,1,1.29-1.1C1089.56,457.05,1090,457.5,1090.49,457.9Z"/><path d="M1250.58,422.08a30.34,30.34,0,0,1,.29,3.54c-.12,3.49-2.63,5.21-5.94,4.2a26.14,26.14,0,0,1-11.89-7.51,4,4,0,0,1-1.2-3.93,48.58,48.58,0,0,0,1.34-12.55,2,2,0,0,1,.09-.78c1.63-4.46,1.27-9.12,1.29-13.72,0-1.93.53-3.28,2.45-4.05.81-.32,1.35-1.27,2.15-1.67a9.53,9.53,0,0,1,3.28-1.08c1.68-.16,2.53.37,2.93,2,1,4.35,2,8.74,2.74,13.15.56,3.23.74,6.54,1.14,9.8.5,4.18,1,8.36,1.58,12.54Zm-7.19,1.68a6.63,6.63,0,0,0,1.21-5.69c-.51-2.84-.91-5.71-1.31-8.57-.58-4.16-1.09-8.33-1.69-12.48a9.54,9.54,0,0,0-.89-2c-.86,8.22-1.67,16-2.49,23.92C1239.65,420.76,1241.06,422.6,1243.39,423.76Z"/><path d="M1220.88,384.89l2.35,5.13c-.13.51-.31,1.41-.59,2.27a159,159,0,0,0-4.84,21.55c-.42,2.45-.69,4.94-1.33,7.33-.46,1.71-.85,3.81-3.07,4.23-2,.37-3.44-.61-4.81-2.08-2.51-2.69-5.2-5.22-7.89-7.75-1.91-1.8-2.24-2.39-1.08-4.79,1.32-2.72,2.92-5.3,4.4-7.94.9-1.61,1.76-3.25,2.73-4.82s1.91-2.82,2.91-4.19,2.2-3,3.36-4.39a28.49,28.49,0,0,1,3.14-3.52C1217.47,384.77,1219,384,1220.88,384.89Zm-9.68,32.56c.63-2.81,1.21-5.22,1.72-7.65s1-5.14,1.53-7.69c.53-2.38,1.16-4.72,2-8-1.39,1.22-2.22,1.66-2.64,2.36a157.18,157.18,0,0,0-8.94,16.14C1206.58,414.68,1207.94,416.77,1211.2,417.45Z"/><path d="M1218.1,457.71a21.88,21.88,0,0,1,.29,7.62c-.51,3.75-.3,7.58-.46,11.38-.06,1.67-.25,3.34-.37,4.83-3,1.62-5.22,1.16-7.63-.59a40.84,40.84,0,0,0-11.43-6.1,13.8,13.8,0,0,1-2.6-1.6,14,14,0,0,1,2.14-2.45,46.12,46.12,0,0,0,12.4-12,4.39,4.39,0,0,1,3.85-1.65A25.67,25.67,0,0,1,1218.1,457.71Zm-8.4,8.86c-1.78,2.31-4.28,2.8-4.86,5.38,1.71,1.2,3.3,2.15,5.61,1.56C1210.22,471.41,1210,469.49,1209.7,466.57Z"/><path d="M1231.27,469.83l-2.84-3c-.26-1.51-.39-2.63-.66-3.71-.62-2.55.16-3.76,2.75-4.05a8.53,8.53,0,0,1,5.35.95c1.72,1,3.51,1.81,5.22,2.79a4.71,4.71,0,0,1,1.55,6.57c-.86,1.5-1.92,2.84-1.47,4.72a1,1,0,0,1-.13.76c-1.71,2.16-1.94,4.85-2.68,7.36a3.26,3.26,0,0,1-2.8,2.44c-2.46.44-3,0-3.89-2.54A19.58,19.58,0,0,1,1231.27,469.83Z"/><path d="M1198.6,434.6a32.59,32.59,0,0,1-10.59,6.31c-3.78,1.36-6.5-.66-6.63-4.7a25.73,25.73,0,0,1,2-9.59,2.44,2.44,0,0,1,2.74-1.78,15.94,15.94,0,0,1,4.47,1.23C1192.27,426.84,1197.18,432.28,1198.6,434.6Z"/><path d="M1252.07,441.59l-2.89-2.61c.86-1.85,2.39-2,3.76-2.06a15.44,15.44,0,0,1,8.67,2.28,3.42,3.42,0,0,1,1.93,3.61,16.13,16.13,0,0,0,.8,8.15c.07.21-.11.5-.19.83-1.38,1.17-2.73.21-4-.26-1.88-.68-9.64-7.14-11.31-9.29.92-1,2.12-.7,3.24-.66,1.36.7,2.46,2.23,4.71,1.52C1255.41,441,1253.54,441.92,1252.07,441.59Z"/><path d="M1224.72,417.71l.46,4.19c2,.46,4,.56,5.65,1.45s2.93,2.59,4.41,4c-.93,2.79-2.17,5.33-1.77,8.2.93,1.76,3.26,2.72,3.16,5.33l-4.09-.27c-1.89-5.78-4.56-11.25-7-17.29-1,.82-1.87,1.15-2.11,1.73-.8,2-2.24,3.41-3.45,5-.42-.27-.83-.46-.81-.53C1220.21,425.34,1221.43,421.23,1224.72,417.71Z"/><path d="M1217.24,434.79c.2-1.37.3-2.08.49-3.42C1218.78,432.9,1218.72,433.62,1217.24,434.79Z"/><path d="M606.62,400.86a23.43,23.43,0,0,1-1.33,2.92c-1.54,2.58-4.41,3.28-6.89,4.34-2,.87-4.74-1.11-5-3.28q-.61-6.07-1.12-12.17c-.2-2.35.92-3.61,3.08-3.61C600.34,389.06,606.54,395.18,606.62,400.86ZM598.88,395c-.62,3.09-.48,4.25.67,6.76C600.9,399.45,601.37,397.4,598.88,395Z"/><path d="M683.39,407.35c-1.32,1.6-2.54.28-4.13.13.4,1.46.79,2.79,1.13,4.13a20.69,20.69,0,0,1,.81,3.84c0,.65-.46,1.76-1,1.91a3.86,3.86,0,0,1-2.53-.39,2.75,2.75,0,0,1-1.09-1.58c-1.66-5-3.3-10-4.84-15.06a11.29,11.29,0,0,1-.13-3.14,48.86,48.86,0,0,1,.07-5.14,15.6,15.6,0,0,0-3.44-11.41c-1.44-1.92-1.49-3.06-.38-3.75,1.57-1,2.37.36,3.32,1.22.37.33.77.62,1.27,1,1.19-1.41.89-3.55,2.72-4.45,1.84.78,2,2.45,1.79,3.94a28.7,28.7,0,0,0,.23,9.43,17.89,17.89,0,0,0,1.34,4.91,50.38,50.38,0,0,1,1.77,5.24c.9,2.6,1.86,5.19,2.77,7.79A8,8,0,0,1,683.39,407.35Z"/><path d="M680.31,325.43c-.22,1-.4,1.89-.56,2.62a2.42,2.42,0,0,1-3.28-.95,6.93,6.93,0,0,1-.84-1.78c-.68-1.87-1.8-2.7-3.93-2.24-2.29.51-3.66-.79-4.44-2.81a10.54,10.54,0,0,1,9.21-2.08,22.38,22.38,0,0,1,5.59,2.81c1.9,1.27,1.65,2.66-.44,3.84A14.22,14.22,0,0,1,680.31,325.43Z"/><path d="M689.38,221.17l2.6-2.45c-2.26-.88-2.1-2.84-2-4.69.18-2.9.41-5.79.74-8.67q.72-6.48,1.62-13c.24-1.7.51-3.65,2.59-4s3.11,1.27,4.07,2.66a9.39,9.39,0,0,1,1.28,3.3c.66,3.09,1.14,6.22,1.78,9.32,1.17,5.68,2.39,11.35,3.61,17,.17.77.53,1.5.68,2.28a2.06,2.06,0,0,1-2.07,2.68,2.62,2.62,0,0,1-.79,0c-3.73-.81-7.47-1.58-11.17-2.52C691.43,222.89,690.67,222.05,689.38,221.17Zm7.33-15.47h-.58c-.19,2.2-.37,4.4-.58,6.59s-.44,4.6-.67,6.94c1.52.64,2.84,1.06,4.34-.11C698.39,214.65,697.55,210.17,696.71,205.7Z"/><path d="M796,163.17c.1,3.54-1.67,6.19-3.78,8.61s-7.32,2.68-9.69.42a4.64,4.64,0,0,1-.93-2.06,2.31,2.31,0,0,1,.18-1.16c1.3-4.8.8-9.68.7-14.55a10.65,10.65,0,0,1-.06-2,2.2,2.2,0,0,1,3-1.77c3.77,1.69,7.31,3.82,9.37,7.56C795.52,159.7,795.58,161.53,796,163.17Zm-7.35-4.79c-.8,3.55-1.13,6.32-.38,9.43C791.3,164.8,791.46,162.51,788.62,158.38Z"/><path d="M781.81,241.6a10,10,0,0,1-1.34-.12c-1.77-.33-2.57-1.23-2.46-3,.29-4.47.68-8.94,1-13.41.11-1.44.13-2.89.26-4.33.16-1.86,1.28-2.65,2.94-2.15,5.16,1.54,10.38,8.24,10,13.47C791.74,237.58,788.86,241.09,781.81,241.6Zm1.87-4.76a6.23,6.23,0,0,0,.33-11.73c-.3,3.64-.59,7.25-.86,10.86C783.14,236.17,783.4,236.39,783.68,236.84Z"/><path d="M614.45,222.21c0-2.64-.05-5.28,0-7.91.06-2.35,2.06-5.09,4.26-5.55a3.77,3.77,0,0,1,2.89.71,39.21,39.21,0,0,1,5.87,6.36c4,6,1.23,16.35-6.68,19-3.84,1.27-6.3-.27-6.4-4.27-.07-2.76,0-5.54,0-8.31Zm6.19,6.33A12.38,12.38,0,0,0,623,219a4.21,4.21,0,0,0-2.71-3.74,43.81,43.81,0,0,1,.39,6.27C620.52,223.57,619.88,225.6,620.64,228.54Z"/><path d="M597,273.89c.4-1.16.43-1.79.73-2a9.57,9.57,0,0,1,2.46-1.11c3.37-1,6.84-1,11.17-1.4-1.79,2-3.45,1.87-4.84,2.25s-2.82.48-4.22.8S599.33,273.25,597,273.89Z"/><path d="M585.76,236.88l3.56,1.24c-2.55,1.33-2.55,1.33-6.14.77-1-3-.92-3.36,1.19-5C584.81,234.82,585.23,235.73,585.76,236.88Z"/><path d="M603.9,243.59a6.25,6.25,0,0,1-4.56-.79c.58-.56,1-1.29,1.41-1.3,2.89-.11,4.9-1.64,6.63-3.74.12-.14.46-.1,1-.2C607.83,240.47,605.06,241.47,603.9,243.59Z"/><path d="M621,271.21l5.48-3.42a8.38,8.38,0,0,1-2.42,5.7A3.28,3.28,0,0,1,621,271.21Z"/><path d="M637.85,229.4c-.07-3.35,1.53-5.35,3.92-7.71,0,1.18.23,1.92,0,2.25C640.39,225.54,640.56,228.22,637.85,229.4Z"/><path d="M606.74,254c-.21-.48-.52-.86-.43-1a1.35,1.35,0,0,1,.85-.45c.08,0,.41.42.36.53A5.1,5.1,0,0,1,606.74,254Z"/><path d="M630.88,260.49l-1.54-.37a3.62,3.62,0,0,1,.24-.62c.49.09,1,.24,1.46.37Z"/><path d="M999.16,197.29c-3.53,4.25-7.8,5.09-11.79,2.34-2-1.36-3.19-3.19-2.48-5.74a30.7,30.7,0,0,1,1.56-4.84c1.16-2.47,3.43-3.12,6-2.93a15.74,15.74,0,0,1,2.71.57c2.22.59,3.83,1.7,3.83,4.33a10.53,10.53,0,0,0,.75,2.51,15.33,15.33,0,0,0,1.66-1.52c1.82-2.27,4.23-2.48,6.82-2a4,4,0,0,1,3.5,3.69c.41,2.75,1.1,5.42-.15,8.14-1.4,3.05-3.4,4.09-6.69,3.3a6.72,6.72,0,0,1-5.46-6.73A9.58,9.58,0,0,0,999.16,197.29Zm-7.57-.71a7.06,7.06,0,0,0,2.55-6.2,2.23,2.23,0,0,0-2.74,1.47A4.66,4.66,0,0,0,991.59,196.58Z"/><path d="M1027.87,199.86c2.36-.47,3.47-3.22,6-2.88,1,.14,2,.35,3.23.57a66.42,66.42,0,0,1,.53,6.78c-.09,3.44-2.14,5.08-5.49,4.37a35,35,0,0,1-5.31-2c-1.44,2.1-3.7,2.79-6.38,2.43a7.32,7.32,0,0,1-4.45-2.33,4.57,4.57,0,0,1-1-1.65c-.84-2.56,1.39-7.73,3.79-8.92,1.89-.94,5.3-.19,7.29,1.67A24.76,24.76,0,0,1,1027.87,199.86Zm-2,.41c-1.5-1-2.66-.87-3.68.17-.8.81-1.49,1.73-.48,3.11Z"/><path d="M271.18,72.72a13,13,0,0,1-8.28,2.9c-.62,0-1.26-.65-2-1.09,1.57-2.06,3.58-1.18,5.27-1.43S269.5,72.84,271.18,72.72Z"/><path d="M325.88,110.88c-1.11-3.12-1.11-3.12,0-5C327.73,107.38,326.7,108.76,325.88,110.88Z"/><path d="M300.19,65.46c-1.66.36-2.58.09-2.87-1.38C299.41,63.28,299.41,63.28,300.19,65.46Z"/><path d="M293.07,132.66l-1.87.45-.22-.68,1.85-.75Z"/><path d="M326,104.1l-.74-.54a5,5,0,0,1,.66-.79s.58.31.55.4A3.7,3.7,0,0,1,326,104.1Z"/><path d="M291.83,162.74a5.18,5.18,0,0,1,.56,1.14c0,.09-.37.37-.57.37s-.58-.28-.56-.38A5.07,5.07,0,0,1,291.83,162.74Z"/><path d="M277.84,429.52c-.7-.79-1.23-1.1-1.29-1.49-1.64-10.8-1.2-21.63-.53-33.27a11.52,11.52,0,0,1,1.71,1.82,3.79,3.79,0,0,1,.22,1.55c0,5.13-.05,10.26,0,15.38,0,4.58.2,9.15.28,13.73A16.34,16.34,0,0,1,277.84,429.52Z"/><path d="M262,396.32c.31.36.9.73.89,1.08a9.53,9.53,0,0,1-1.41,5.38c-.4-2.63-.39-4.56.51-6.45Z"/><path d="M319.89,236c-.9-.34-1.7-.78-1.77-1.88a4,4,0,0,1,1.39-3.55,39.93,39.93,0,0,1,6.54-4.31c2.42-1.15,5.14-1.59,8.58-2.2-2,2.25-4.05,2.89-5.83,3.94-2.14,1.26-4.24,2.6-6.33,3.95a5.27,5.27,0,0,0-2.41,3.9Z"/></g></g></g></svg>