<svg xmlns="http://www.w3.org/2000/svg" viewBox="0 0 634.99 970.5"><title>squarelogo_svg</title><g id="Layer_2" data-name="Layer 2"><g id="Layer_1-2" data-name="Layer 1"><g id="cjo1Ss"><path d="M119.24,312.5c0,4.31,0,8.93,0,13.55,0,2.56.16,2.61,2.69,1.72,1.76-.62,2-.41,1.85,1.43a16.35,16.35,0,0,1-2.58,7.27,2.37,2.37,0,0,1-3.31,1.1,39.2,39.2,0,0,1-4.16-2.3c-1.74-1.12-2.23-2.94-2.36-4.87-.16-2.59-.43-5.18-.41-7.77.08-10.22-.08-20.46.54-30.66a76.36,76.36,0,0,1,4.3-20.24,110.11,110.11,0,0,1,9.08-20.06,120.48,120.48,0,0,1,12.29-17.73c4.31-5,8.71-10,13.12-14.93a20.92,20.92,0,0,0,4.2-8A203.87,203.87,0,0,0,161.1,182a28.89,28.89,0,0,0,.37-5.17c-.2-9.08-.68-18.15-.67-27.23,0-6.32.49-12.66,1-19,.44-5.16,1.08-10.33,2-15.42a102.51,102.51,0,0,1,6.59-21c.77-1.87,1.48-3.76,2.22-5.63a17.52,17.52,0,0,1,1-2.4q5.22-8.93,10.49-17.83c2.66-4.53,6.28-8.18,10.11-11.73s7.29-7.78,11.25-11.32c4.17-3.73,8.69-7.08,13.17-10.44,2.53-1.9,5.47-3.26,7.92-5.25,6.36-5.16,14.13-7.7,21.14-11.65a36.38,36.38,0,0,1,7.71-2.8q11.42-3.33,22.88-6.45c4.31-1.17,8.69-2,13-3.16a130.17,130.17,0,0,1,29.83-4.35c2.44-.05,4.87-.49,7.31-.72a119.28,119.28,0,0,1,28.38,1,176.5,176.5,0,0,1,21.23,4,119.77,119.77,0,0,1,35.16,16.22,64.87,64.87,0,0,1,8.21,7c5.69,5.31,11.28,10.73,16.93,16.08A107.44,107.44,0,0,1,457.9,70.5c5.94,10.57,11.9,21.12,17.1,32.07,5.69,12,11.23,24,16.87,36.05,4.67,9.95,9.83,19.62,17,28,4.5,5.26,10,9.14,17,10.3,1.85.3,3.7.6,5.53,1,7.17,1.69,13.68-.11,19.95-3.55,6.74-3.7,12.67-8.54,18.47-13.49a149.77,149.77,0,0,0,21.06-21.66c3.75-4.81,6.93-9.91,8.05-16.08.25-1.38.1-3.82,2.22-3.55,1.74.21,1.65,2.51,1.81,4a31,31,0,0,1,0,5.62c-.42,5.89-1.08,11.77-1.35,17.67-.36,7.7-2.15,15.13-4,22.54-1.66,6.71-3.66,13.34-5.71,20-3.93,12.64-10.43,24-17.66,35-3,4.57-6.1,9.08-9.09,13.66a124.51,124.51,0,0,1-16.89,20.18c-2.67,2.64-5.26,5.36-8,7.9a68.45,68.45,0,0,1-5.77,4.49c-2.41,1.78-2.81,2.69-1.42,5.42s1,5.93,1.48,8.88c1.17,7.55,2,15.14,3,22.72.57,4.43,1.1,8.86,1.66,13.29.24,1.86.51,3.72.79,5.57a1.57,1.57,0,0,0,2.15,1.47,41.83,41.83,0,0,0,4.53-1.44c6.58-2.58,13.2-5.11,19.18-8.91a8.43,8.43,0,0,1,8.91-.66c3.12,1.49,6.41,2.63,9.64,3.86,2.79,1.07,3.83,3.39,4.27,6.05.4,2.47-1.08,4.15-3,5.34s-4.06,2.19-6.1,3.26c-2.24,1.19-2.24,1.22-1.25,3.63a31.28,31.28,0,0,1,1.5,4c1,3.63-.26,6.18-3.7,7.69-2.64,1.15-5.34,2.16-8,3.26a8.65,8.65,0,0,0-1.07.67,5.09,5.09,0,0,0,1,1.16c2.37,1.39,4.72,2.8,7.18,4a6.2,6.2,0,0,1,3.33,4.75,2.13,2.13,0,0,1-1.41,2.78c-4.12,1.23-7.92,3.46-12.41,3.57-3.29.08-6.56.84-9.88.14-.4-.08-1,.37-1.34.74-.13.15.13.85.39,1.12,1.62,1.63,3.28,3.22,4.94,4.81,4.27,4.06,8.52,8.15,12.85,12.15a7.37,7.37,0,0,1,2.56,5.28c.13,2.43-1,3.47-3.42,3.14-.71-.1-1.41-.31-2.11-.48a61.69,61.69,0,0,0-18.45-1.76c-12.89.86-24.32-3.35-35.44-9.37-8.4-4.55-15.23-10.89-21.92-17.44s-12.69-13.39-19.12-20c-4.73-4.86-9.5-9.7-15.19-13.46a9.83,9.83,0,0,0-4.25-1.93,126,126,0,0,0-15.07-.67,73.76,73.76,0,0,0-18.26,3.13c-7.7,2.34-15.43,4.82-21.91,9.91a41.91,41.91,0,0,0-4,3.9c-1,1-1.83,2.25-2.91,3.18-1.85,1.58-4,1.16-4.91-1.11a11.05,11.05,0,0,1-.53-4.62c.35-5.31.89-10.62,1.35-15.92.12-1.41-.2-3.06,1.57-3.66,1.22-.42,3.06,1.15,3.35,3.32a65.59,65.59,0,0,1,.06,7.29,10,10,0,0,0,.39,1.93,5.76,5.76,0,0,0,1.52-.57,64.53,64.53,0,0,1,20.58-9.81c10.16-3,20.47-5,31.1-4.36a67.52,67.52,0,0,1,10.68,1.53,20.21,20.21,0,0,1,9.59,5.63c7.11,7,14.32,13.86,21,21.23A158.49,158.49,0,0,0,505,371c7.51,6.12,15.37,11.71,25,14.07,2.51.61,4.94,1.55,7.41,2.32,6.76,2.08,13.73,1.26,20.63,1.48a1.84,1.84,0,0,0,1.44-.59,1.87,1.87,0,0,0-.46-1.49c-2.61-3.08-5.27-6.12-7.93-9.16s-5.45-6.33-8.28-9.41a6.8,6.8,0,0,1-1.66-4.34,2.66,2.66,0,0,1,3.72-2.72,14.24,14.24,0,0,1,1.47.91c6.59,3.6,13.61,3.06,20.66,2.1.39,0,.74-.41,1.1-.62-.29-.44-.48-1.06-.88-1.27-3.08-1.57-6.2-3.07-9.31-4.58-1.76-.85-3.2-1.86-3.4-4.08-.25-2.79.6-4.21,3.46-4.28,4-.09,7.66-1.34,11.39-2.41a21.49,21.49,0,0,0,4.37-1.83c1.72-1,2-2.59.59-3.93a37,37,0,0,0-3.9-2.64,8.08,8.08,0,0,1-2.49-2.24c-1.84-3.41-.86-5.15,3-5.35a23.21,23.21,0,0,0,10.61-3.36c.88-.51.8-1.34,0-1.68a78.59,78.59,0,0,0-9.61-3.74c-1.13-.32-2.83.53-4,1.29-7.32,4.79-15.35,8-23.61,10.59-2.34.74-4,1.66-3.51,4.45a3.38,3.38,0,0,1-.19,1.28,1.26,1.26,0,0,1-2,.7,4.7,4.7,0,0,1-1.36-1.63c-.83-2.09-2.29-2.06-4.22-1.79-5.13.72-10.29,1.65-15.44,1.67a145.18,145.18,0,0,1-25-1.91,23.55,23.55,0,0,1-12.11-6.31c-3.27-3-6.47-6.15-9.73-9.2-4.1-3.83-8.19-7.69-12.38-11.42a67,67,0,0,0-21.56-12.54,12.63,12.63,0,0,0-10.06.49,28.56,28.56,0,0,0-13.14,11.45c-3.67,6.05-7.46,12-10.07,18.62-.53,1.32-1,2.36-2.68,2.23s-2.69-1-3-3.06a9.22,9.22,0,0,1,1.25-6.25q4.51-7.87,9.17-15.68c3.41-5.73,8.42-9.81,14.1-13.07,1.7-1,3.78-1.3,5.66-2,.32-.11.56-.55.73-.89,0-.08-.33-.46-.57-.57-2.64-1.18-5.35-2.19-7.91-3.51-10.49-5.45-20.91-11-31.41-16.46-3.84-2-7.84-3.67-11.74-5.54-6.51-3.1-13-6.27-19.51-9.33C343,247,328.17,240.57,312.93,235.16c-10.06-3.57-20.07-7.26-30.1-10.9-8.46-3.07-17.28-4.47-26.18-5.5a164.29,164.29,0,0,0-39.27.11c-5.82.72-11.54,2.52-17.19,4.19a86.32,86.32,0,0,0-10.86,4.3,38.31,38.31,0,0,0-12.73,8.78c-6.84,7.42-13.94,14.63-20.43,22.34-5.37,6.38-10.42,13.14-13.8,20.87a35,35,0,0,0-2.25,8.28,35.81,35.81,0,0,0-.21,12.48c.35,1.95.8,3.3,3.06,3.35.46,0,.9.55,1.35.84-.38.53-.66,1.31-1.18,1.54a14.62,14.62,0,0,1-3.72,1.05,4,4,0,0,1-4.26-2.33,8.13,8.13,0,0,1-1-2.83c-.49-5.86-1.3-11.79-.32-17.6a42.19,42.19,0,0,1,7-16.63c1-1.44,1.82-2.95,2.88-4.31,2.28-3,4.62-5.87,7-8.75,2-2.44,4.13-4.81,6.2-7.21a18.49,18.49,0,0,1,1.42-1.62c4.7-4.29,8.51-9.35,12.59-14.18a34.86,34.86,0,0,1,10.21-7.89,81,81,0,0,1,21.73-8.32c3.92-.84,7.52-2.85,11.63-3.19,10.18-.85,20.35-2.06,30.59-.69a28.53,28.53,0,0,0,5.62.22c6.58-.42,12.87,1.2,19.22,2.51,13,2.71,25.38,7.57,37.82,12.1,9.62,3.5,19.17,7.15,28.76,10.74.67.26,1.34.53,2,.83q19.86,9.06,39.73,18.15c2.49,1.14,4.89,2.47,7.36,3.66,1.81.87,3.67,1.62,5.5,2.45,1.57.72,3.16,1.41,4.67,2.24,7.69,4.24,15.22,8.78,23.07,12.69a116.25,116.25,0,0,0,18,7.21,237.72,237.72,0,0,0,25.11,6.46,57.19,57.19,0,0,0,24.82-1.12c12.72-3.18,23.58-10,34.09-17.42,9-6.29,17.59-13.11,25.07-21.18,9.52-10.26,18.72-20.79,25.86-32.93q3.62-6.13,7.45-12.16a99.35,99.35,0,0,0,11.17-25.68q3.79-13.05,6.81-26.3c.92-4,1-8.28,1.38-12.43a3.44,3.44,0,0,0-.33-1.19,4.8,4.8,0,0,0-1.31.83c-2.48,3.17-4.77,6.51-7.37,9.57A174.89,174.89,0,0,1,561,177.53a68.28,68.28,0,0,1-12.73,7.3c-7.15,3.23-14.64,2.44-22.06.7a29.42,29.42,0,0,1-14.43-8.26c-1.11-1.13-2.37-2.1-3.55-3.16a9.92,9.92,0,0,1-1.88-1.77q-4.89-7.36-9.65-14.83a50.91,50.91,0,0,1-2.34-4.6c-1.89-3.73-3.83-7.43-5.64-11.19-4-8.18-7.84-16.39-11.77-24.58-1.56-3.25-3.33-6.4-4.74-9.71-4.44-10.38-10.42-19.92-15.92-29.72-1.62-2.89-3.42-5.69-5.07-8.56-4.07-7.08-9.53-13-15.52-18.45-2.45-2.23-4.65-4.73-7.06-7-4.41-4.15-8.88-8.23-13.34-12.32a16.27,16.27,0,0,0-2.4-1.84,139.68,139.68,0,0,0-28.26-13.9,151.28,151.28,0,0,0-29.42-6.89C346.65,7.61,338,6.83,329.34,8a13.13,13.13,0,0,1-2.16.19c-8.59-.33-16.89,1.76-25.29,3.06-12.44,1.91-24.49,5.42-36.46,9.11C256.75,23,248.09,26,240.24,30.6,231,36,222,41.7,214.18,49.09c-3.88,3.66-7.64,7.45-11.51,11.12C194.94,67.53,189,76.16,184,85.52a128.93,128.93,0,0,0-13.15,38.3,79.3,79.3,0,0,0-1.14,10.31q-.63,14.7-.95,29.39c-.06,2.58.48,5.17.6,7.76A117.74,117.74,0,0,1,165,208.06c-1.08,4-2,7.73-.43,11.81.8,2.09.45,2.34-2,2a1.78,1.78,0,0,0-2.13.93,13.88,13.88,0,0,0-.94,1.94c-3.71,10-8.54,19.55-13.37,29.06-3,5.9-6.58,11.51-10,17.21-1.14,1.91-2.09,2.13-3.9.92-1.55-1-2.86-2.4-4.36-3.51a1.4,1.4,0,0,0-1.36.25,25.41,25.41,0,0,0-1.28,3.2A100.15,100.15,0,0,0,119.24,312.5Zm397,20.37c3.31-.29,8.18-.69,13-1.2a13.14,13.14,0,0,0,3.31-.95c2.65-1,3-1.29,2.83-4.09-.24-4.16-.58-8.33-1.19-12.46-1.44-9.83-3.08-19.63-4.62-29.44-.35-2.28-.57-4.57-.94-6.84-.17-1.07-.84-1.6-1.8-.77a83,83,0,0,1-16.94,11.1c-4.75,2.39-9.36,5.11-14.25,7.19a47.48,47.48,0,0,1-18.49,3.76c-8.26.08-16.41-.33-24.43-2.39a4.51,4.51,0,0,0-1.52.16c.31.28.61.57.92.84,5.31,4.63,10.69,9.19,15.92,13.91,4.82,4.34,9.42,8.91,14.22,13.26a27.17,27.17,0,0,0,15.13,6.8C503.1,332.46,508.88,332.47,516.21,332.87Z"/><path d="M342,674.58c-10.37,1.07-20.34-1.56-30.38-3.46a41.09,41.09,0,0,1-7.29-2.64c-3.08-1.24-6.21-2.39-9.14-3.91a33.89,33.89,0,0,1-6.78-4.51,90.27,90.27,0,0,1-17.9-21.54,40.46,40.46,0,0,1-6.1-20.49,82.78,82.78,0,0,1,1.85-18c2.4-11.56,4.86-23.13,5.79-34.93,1-13-1.39-25.25-9.25-36.07-1.86-2.55-3.33-5.38-5.07-8-1-1.52-1.35-1.54-2.55,0-2.17,2.7-4.16,5.54-6.31,8.24-1.7,2.14-3.5,4.21-5.33,6.23-.78.87-1.78,1.65-3,.68a3.28,3.28,0,0,1-1-3.88,12.56,12.56,0,0,1,2.07-2.75c5.34-5.36,8.9-12,13.23-18.12a23.34,23.34,0,0,0,1.81-3.92c.78-1.7,1.51-3.44,2.38-5.09s1.93-2.26,3-1.73a2.93,2.93,0,0,1,1.19,3.76,43.23,43.23,0,0,1-2.94,7.65c-1.61,2.8-.82,5,.85,7.14,3.45,4.49,7.71,7.47,13.68,6.63a80.87,80.87,0,0,0,10.14-2c10.36-2.87,19.78-7.93,29.25-12.86A134,134,0,0,1,341.41,500c6.9-1.85,13.76-3.1,20.88-2.66a66.72,66.72,0,0,1,10.31,1.05c8.72,1.95,15.34,7.05,20.17,14.49.94,1.46,1.51,3,3.72,3.11.85,0,1.72,1.36,2.43,2.23,1,1.23,1.72,2.68,2.78,3.85a18.31,18.31,0,0,0,19.88,4.38,3.28,3.28,0,0,0,2.26-2.4c.27-1.26.49-2.54.75-3.81a42.59,42.59,0,0,1,1.12-5.06,2.67,2.67,0,0,1,1.69-1.6c1.23-.16,1.67,1,1.79,2a12.21,12.21,0,0,1,0,3c-.41,3-.07,6-.3,9-.39,4.82-.42,9.45,1.09,14.05a3.28,3.28,0,0,1,0,1.29,1.47,1.47,0,0,1-2.5,1.08,8.61,8.61,0,0,1-2-3.18,49.49,49.49,0,0,1-1.05-5.07c-.55-2.41-1.19-2.83-3.64-2.51-.57.07-1.13.25-1.7.35a20.41,20.41,0,0,1-15.65-3.35c-1.65-1.15-3.19-2.47-4.79-3.7-.7-.53-1.38-.64-1.55.44-.72,4.49-3.4,7.71-6.34,11a113.39,113.39,0,0,0-11.26,14.75C373.41,562.39,372.61,573,375,584a105.24,105.24,0,0,0,7.79,22.42c4.33,9.12,6.87,18.67,6.47,28.84a77.82,77.82,0,0,1-6.3,26.8c-2,4.82-6.09,7.11-10.72,8.69a29,29,0,0,1-3.77,1c-4.93,1-9.84,2.18-14.81,2.76C349.86,674.94,345.93,674.58,342,674.58Zm3.72-4.16c5.26.14,14.78-2.23,24.27-4.73a27,27,0,0,0,4-1.59,10,10,0,0,0,5.42-5.33c.94-2.26,2-4.49,2.71-6.83,3.95-12.81,4.08-25.5-1.25-38.05-3.9-9.16-7.6-18.38-10-28.08-2.57-10.37-2.7-20.58,1.86-30.46a60.27,60.27,0,0,1,5.89-10.54c3.84-5.21,8.06-10.16,12.37-15,2.07-2.31,2.86-4.58,1.81-7.46a21.53,21.53,0,0,0-1.56-4c-4.37-7-10.39-12.05-18.67-13.56a83.07,83.07,0,0,0-14.18-1.17c-6.24-.06-12.26,1.6-18.23,3.31-13.81,4-26.43,10.67-39.29,16.84a34.4,34.4,0,0,1-5.07,2.4c-7.63,2.13-15.15,4.77-23.08,5.59-1.42.15-1.76.54-1.31,1.86,1.08,3.13,2,6.32,3.19,9.41.5,1.32,1.85,2.37,2.13,3.69s-.39,3-.3,4.57c.13,2.08.58,4.14.89,6.2,1.14-1.42,2.24-2.87,3.44-4.25a60.14,60.14,0,0,1,13.93-12.15c4.83-2.93,9.71-5.7,15.46-6.26,4.73-.47,9.46-.85,14.2-1.19,2-.14,4.08.15,6-.19,5-.86,9.73.16,14.56.93,8.59,1.36,13.85,7.55,14,16.49.07,3.61-1.09,6.8-2.46,10-2.11,4.9-4.26,9.81-5.09,15.12-.76,4.85-1.05,9.73,1.31,14.34a9.1,9.1,0,0,1,.75,6.33,12.69,12.69,0,0,0,.18,6c1.32,5.47,2.7,10.92,3.79,16.43s2.85,11.2,1.49,17.07c-1.2,5.23-3,10.11-8.38,12.34-5.17,2.15-10.43,4.2-16.26,3.88a42,42,0,0,0-7.35.27,27.7,27.7,0,0,1-12.36-1.18c-8.3-2.87-16.51-6-23.45-11.69-5.28-4.34-9.36-9.5-10.93-16.17a45.18,45.18,0,0,1,0-20.17c1.41-6.47,3.15-12.85,4.42-19.37a85,85,0,0,0,1.52-25.28,5.52,5.52,0,0,0-.66-1.45,4.86,4.86,0,0,0-1.42.78,14.7,14.7,0,0,0-1.76,2.44A60.67,60.67,0,0,0,274.76,581c-1.69,9.8-3.76,19.54-5.25,29.37-1.58,10.49.33,20.32,6.57,29.2a102.27,102.27,0,0,0,13,15,32.77,32.77,0,0,0,9.3,6.23C311.92,667.06,326.2,670.09,345.76,670.42Zm8.06-118.74a18.35,18.35,0,0,0-.17-3.09c-1.24-4.62-4-6.88-9-4.46a8.36,8.36,0,0,0-1.12.65c-2.25,1.55-4.72,2.88-6.1,5.37-1,1.89-3.13,1.62-4.11-.16a16.73,16.73,0,0,1-1.25-3.65c-1.21-4.32-3.35-5.54-7.73-4.34a13.67,13.67,0,0,0-1.64.54c-2,.82-3.51,1.93-3.6,4.36a5,5,0,0,1-.71,2.44c-.42.65-1.31,1.51-1.87,1.43a4,4,0,0,1-2.29-1.56,6.26,6.26,0,0,1-.64-2.48c-.26-1.41-.45-2.84-.72-4.26a1.78,1.78,0,0,0-2.21-1.53,11.82,11.82,0,0,0-2.1.48c-6.54,2.08-12.16,5.86-17.69,9.75-1.8,1.28-1.62,1.58-.56,4a11.9,11.9,0,0,1,1.17,4.09c.24,3.85,1.89,7.19,3.52,10.55.22.46.75,1.1,1.14,1.09,2.71,0,4.14,1.5,5.18,3.77.55,1.19,1.54,1.14,2.5.38a3.74,3.74,0,0,0,.89-.93c1.91-3.2,4.54-6,5.57-9.69.69-2.49,1.35-5,2-7.47.32-1.18.76-2.23,2.22-2.22a2.81,2.81,0,0,1,2.81,2.71,17.94,17.94,0,0,1-.46,3.39c-.39,2.26-.66,4.55-1.25,6.76-1.07,4,1.06,6.56,3.78,8.86a1.37,1.37,0,0,0,1.33-.19c1.42-1.78,2.81-3.6,4.07-5.51a10.34,10.34,0,0,0,1.33-3.13c.69-2.78,1.17-5.62,1.9-8.4a2.74,2.74,0,0,1,1.55-1.76,3.1,3.1,0,0,1,2.25.85c1.31,1.14,1.21,2.82,1.32,4.41.23,3.3.44,6.6.85,9.88a13.25,13.25,0,0,0,3.72,7.17c1.15,1.28,2,1.37,3.37.32a14.85,14.85,0,0,0,4.67-6.61c.71-1.73,1.36-3.48,2.06-5.21,1.66-4.14,3.38-8.26,4.95-12.44A29.07,29.07,0,0,0,353.82,551.68Zm-30.31,97c5.7-.41,10.06-.43,14.3-1.13a34,34,0,0,0,9.39-3,12.88,12.88,0,0,0,7.32-11,5.53,5.53,0,0,0-.17-1.26l-.87.66a27.65,27.65,0,0,1-3.15,2.18c-7.24,3.75-15.1,4.56-23.06,4.25a24.47,24.47,0,0,1-10.85-2.6c-8.74-4.72-17.5-9.41-26.24-14.15-1.25-.69-2.34-1.68-3.57-2.42-1-.57-1.64,0-1.53,1.15a19.74,19.74,0,0,0,7.53,14.07A67.3,67.3,0,0,0,314.7,647,64.62,64.62,0,0,0,323.51,648.66Zm8.95-69.3-2.41-3.57c-.15,1.07-.26,2.14-.48,3.2s-.52,1.89-.73,2.85a.7.7,0,0,0,.39.54C329.9,582.49,332.4,580.58,332.46,579.36Zm-4.54,52.2c0,.28,0,.56-.07.83-.13,1.14.5,1.66,1.47,1.39a1.84,1.84,0,0,0,1.08-1.38,9.27,9.27,0,0,0-.5-2.87c-.1-.32-.76-.81-.87-.74a2.52,2.52,0,0,0-1,1.1A5.74,5.74,0,0,0,327.92,631.56ZM314.63,582c-.14,0-.29,0-.4,0-1.05.52-2,2.24-1.67,3.14,0,.12.18.21.28.32.79-.71,1.6-1.4,2.35-2.15a1,1,0,0,0,0-.8C315.1,582.29,314.82,582.14,314.63,582Zm31.61,39.23c.13,0,.33,0,.38-.11.61-1.08,1.21-2.15,1.76-3.25a.94.94,0,0,0-.27-.69c-.36,0-.91.08-1,.31a24,24,0,0,0-1.19,3.09C345.86,620.71,346.12,621,346.24,621.2Zm6.15,3.49c.39,1,.8,2,1.25,3.06.1.24.36.41.55.62.1-.26.33-.54.29-.76-.23-1.12-.5-2.23-.82-3.32a.74.74,0,0,0-.66-.35C352.8,624,352.66,624.33,352.39,624.69ZM291,606.35l-.79-1.21a15.19,15.19,0,0,0-.82,1.32,1.13,1.13,0,0,0-.13.81c.14.32.48.81.69.79a1.65,1.65,0,0,0,.93-.7C291,607.18,290.91,606.83,291,606.35Zm32.58,26.43c-.62-.45-.89-.78-1.23-.87a3,3,0,0,0-1.1.11c.29.25.53.6.87.73A4.9,4.9,0,0,0,323.53,632.78Zm25.87-24.91.63,1.18c.1-.23.32-.49.28-.68a11.06,11.06,0,0,0-.55-1.45Zm-12.79-67.35c-.17-.15-.34-.42-.52-.44s-.41.22-.62.34l.71.65C336.32,540.89,336.47,540.71,336.61,540.52Z"/><path d="M223.46,761.54c3.87.2,7.8.08,11.62.67a75.22,75.22,0,0,1,11.7,2.91,52.78,52.78,0,0,1,20.87,12.71c2.46,2.41,4.59,5.15,6.84,7.78a64.18,64.18,0,0,1,14.67,33.14c1.13,7.83,2,15.74.61,23.64a75.8,75.8,0,0,1-5.89,18.92A142.26,142.26,0,0,1,275.67,876c-3.44,5.5-8.29,9.45-13.59,13.06-7.84,5.34-16.72,8.24-25.49,11.49a24.17,24.17,0,0,1-14.83,1.16c-1.62-.42-2.5-.11-3,1.79-1.12,4-2.58,7.93-4,11.85a34.61,34.61,0,0,1-1.86,3.89c-2.44,4.73-4.89,9.47-7.38,14.18-3.56,6.74-5.52,14.19-9.11,20.91-2.64,4.94-5.1,10-9.74,13.57-2.67,2-5.49,3.08-8.85,2.4-1.7-.35-3.4-.64-5.09-1a10.26,10.26,0,0,1-6.93-4.77c-3.61-5.91-5.63-12.09-4.35-19.28a196.1,196.1,0,0,1,5.1-20.5,33.6,33.6,0,0,1,3.67-8.36c4.32-7.13,8-14.67,11.86-22.07,1.27-2.42,1.67-4.84,0-7.37a22.28,22.28,0,0,1-1.42-3.6,12.5,12.5,0,0,0-1.66-3.49c-3.78-4.25-6.12-9.41-8.91-14.25a44.07,44.07,0,0,1-6-22.3c0-3.32-.19-6.65,0-9.95.16-2.85.72-5.69,1.15-8.52a85.75,85.75,0,0,1,1.5-8.93,47.48,47.48,0,0,1,2.93-7.58c1-2.08,2.44-3.93,3.33-6a46.64,46.64,0,0,1,9.5-14.8c3.81-3.92,7.55-7.92,11.12-12a39.48,39.48,0,0,1,7-7c6-4.16,12.66-6.12,19.74-7a25.34,25.34,0,0,1,3,0Zm5.22,4.41c-14.62-.9-25.08,5.94-33.53,16.76-.36.45-1.11,1.66,0,1.42,2.54-.52,5.09,1.32,7.64-.35.6-.4,2.21.28,3.08.87,1.51,1,2,2.72,2.31,4.48.77,4.89-.88,9.16-3.59,13a5.71,5.71,0,0,1-6.61,2c-4.34-1.43-7.94-4.54-7.88-9.65,0-1.28.28-2.57.4-3.85a8.57,8.57,0,0,0,0-1.24c-.48.14-1.17.13-1.41.45-2,2.62-4.09,5.22-5.88,8a93,93,0,0,0-5.15,9c-1.47,2.9-.52,4.46,2.65,4.59a36.65,36.65,0,0,0,4.29-.35c5.16-.43,10.32-1.17,15.48-1.17,3.7,0,7.38,1.11,11.1,1.49,8,.82,15.41,3.52,22.62,6.94a112.53,112.53,0,0,1,24.95,16.22c4.37,3.72,9.12,7.09,12.46,11.93,1.64,2.36,3.42,4.62,5.16,6.91,1.6,2.12,2.66,2,3.53-.4s1.39-4.7,2.16-7c3.87-11.79,2.92-23.59.07-35.39-1.9-7.83-5.81-14.71-10.13-21.4-4.07-6.29-10.11-10.6-15.57-15.5a9.53,9.53,0,0,0-2.26-1.26C246.32,768.39,237.78,765.48,228.68,766Zm-35.19,69.9a9.24,9.24,0,0,1-1.87,0c-6.4-.93-12.24,1.17-18.05,3.35-.85.32-2.12,1.14-2.14,1.77a40.74,40.74,0,0,0,.48,7.23.84.84,0,0,0,1.61.23c1.31-2.44,3.24-3,5.82-2.49.72.14,1.6-.45,2.4-.74a5.88,5.88,0,0,1,8,5.71c-.15,4.35-3.92,8.19-7.27,8.56a12,12,0,0,1-5.07-.59,10.8,10.8,0,0,0-2.36-.24,7.41,7.41,0,0,0,.43,2.45c3,5.09,5.92,10.18,9.05,15.16a11,11,0,0,0,3.38,3.31,6.06,6.06,0,0,1,2.91,5,28,28,0,0,1-.47,6.39,31.73,31.73,0,0,1-1.46,4c-1,3.15-.41,4.45,2.59,5.83,2.48,1.14,5,2.17,7.47,3.4s4.75,2.71,7.18,4c1.66.85,2.31.66,3.22-.91s1.64-3.37,2.49-5c.69-1.36,1.57-2.35,3.38-2,2.41.49.86-.69.58-1.43-.5-1.29-.07-2.08,1.12-2.07A17.24,17.24,0,0,1,219,897a35.72,35.72,0,0,0,19.05-2.52c4.11-1.73,8.33-3.28,12.28-5.33A88.4,88.4,0,0,0,262.1,882c5.88-4.36,6.43-4.18,1.62-11.39a63.52,63.52,0,0,0-22.22-20.13c-4.64-2.59-9.37-5.1-14.24-7.21C216.74,838.67,205.85,835.51,193.49,835.85Zm-.61-4.92v-.23c.87,0,1.73,0,2.59,0a97.8,97.8,0,0,1,28.22,6.1,106.45,106.45,0,0,1,32.77,19c4.06,3.48,8,7.05,11,11.54,3.59,5.35,3.68,5.32,6.67-.47.34-.64.64-1.3,1-1.94a4,4,0,0,0,0-3.73A54,54,0,0,0,266.82,848c-5.17-5.9-11.36-10.68-17.63-15.26A105.9,105.9,0,0,0,225,819.51a20.89,20.89,0,0,0-3.32-.91c-2.54-.51-5.1-.94-7.65-1.43a76.28,76.28,0,0,0-25.8-.48c-4.53.69-8.94,2.39-13.66,1.75-1.25-.17-1.68,1.06-1.84,2-.55,3.41-1.08,6.83-1.42,10.26-.17,1.64.73,2.33,2.4,2.28a7,7,0,0,0,1.28-.15,86,86,0,0,1,8.88-1.87A82.38,82.38,0,0,1,192.88,830.93ZM168.45,947.45c.28,2.19.56,4.9,1,7.58a32,32,0,0,0,1.23,5,13.3,13.3,0,0,0,1.61,3c3.22,4.83,5.28,5,9.57,1a27.23,27.23,0,0,0,5.51-8.18c2.54-5.13,4.79-10.42,7.16-15.65a1.9,1.9,0,0,0-.79-2.6c-1-.64-1.89-1.31-2.89-1.88-4.11-2.35-8.23-4.69-12.38-7a23.38,23.38,0,0,0-3.19-1.29c-1.37-.51-2.22.1-2.62,1.41C170.86,934.8,169,940.68,168.45,947.45Zm27.34-14.72c.81-.47,2.12-.79,2.57-1.6.68-1.2-.47-2.08-1.46-2.71-1.32-.86-2.65-1.7-4-2.48-3.49-2-7-3.9-10.5-5.85l-3-1.68c-1.26-.7-2.13-.35-2.79.92-.92,1.78-.9,2.54.83,3.55,5.31,3.1,10.69,6.1,16.06,9.11A14.38,14.38,0,0,0,195.79,932.73Zm6.45-9.81a10.67,10.67,0,0,0-1.42-2.24,12,12,0,0,0-2.55-1.58c-4.8-2.57-9.64-5.08-14.42-7.69-1.12-.62-2.13-1.11-3,.17s.23,2.07,1.15,2.77c.23.17.48.33.72.48,5.39,3.29,10.76,6.59,16.18,9.83.54.33,1.52.62,1.92.35C201.46,924.6,201.76,923.69,202.24,922.92Zm-15.9-17.79c-.53.07-.89,0-1.08.18a3.29,3.29,0,0,0-1,1.17c-.07.14.44.66.78.84,1.63.86,3.31,1.64,5,2.5,4.42,2.34,8.81,4.74,13.26,7a2.17,2.17,0,0,0,1.91,0,1.74,1.74,0,0,0,.31-2.66c-1.5-1.49-3-3.25-4.84-4.11-3.87-1.79-8-3.08-12-4.53A13.39,13.39,0,0,0,186.34,905.13Zm11.53-106.78c2.82.12,5.69-4.43,4.42-7s-3.43-2.77-4.91-.36a14.37,14.37,0,0,0-1.77,4.77A2.2,2.2,0,0,0,197.87,798.35Zm-14.64,52c-.14-.3-.44-.9-.73-1.5-.45.27-.92.51-1.36.8a9.86,9.86,0,0,0-2.06,1.51c-.39.47-.78,1.48-.54,1.85a3.05,3.05,0,0,0,2,1.3C182.21,854.53,183.21,853.08,183.23,850.4Z"/><path d="M546.88,518.26c-.25,10.82-3.16,19.69-9.53,27.28-3.79,4.52-4.59,4.55-9.2,1.17a8.51,8.51,0,0,0-3.38-1.67,10.33,10.33,0,0,1-7.41-5.45,41.1,41.1,0,0,1-4.82-11.07c-.84-3.49-2.07-6.9-3.21-10.31-.16-.46-.79-.75-1.2-1.11a6,6,0,0,0-1,1.22c-2,4.5-1.85,9.13-1.24,13.95a173,173,0,0,0,4,19.45c2.36,9.55,3.75,19.14,2.74,29.12a200.53,200.53,0,0,1-3.33,20.44c-1.39,6.77-2.34,13.64-3.1,20.51a319,319,0,0,1-7,41.77c-1,3.91-1.79,7.88-3,11.73a32.26,32.26,0,0,0,.08,18.77c2.36,8.26.79,6.86,8.52,10.75,12.88,6.47,25.82,12.83,38.74,19.23,3.1,1.53,6.19,3.1,9.34,4.5,1.53.68,2.08.14,1.82-1.6-.3-2-.78-4-1-6a5.33,5.33,0,0,1,2.09-5.36c1-.72,2.05-.76,2.59.33a38,38,0,0,1,2.4,6c1,3.3,1.73,6.68,2.62,10a6.68,6.68,0,0,0,2.78,3.72,85.83,85.83,0,0,1,7.15,5.59,23.6,23.6,0,0,1,3.88,4.58c1.25,1.9.93,3.17-.73,5s-1.74,1.89-.26,3.91c5.3,7.22,11,14,18.12,19.62.12.09.25.16.36.25,1.77,1.55,2.6,3.72,1.85,4.88s-2.9,1.16-5-.36a74.23,74.23,0,0,1-16.2-15.45Q571,758,566.38,752.57a5,5,0,0,0-2.94-1.52,23.11,23.11,0,0,0-6-.13,81,81,0,0,1-16.38.85c-5.68-.38-11.22.5-16.79,1.21-8,1-16,2.15-23.94,3.28-1.57.22-3.1.67-4.66,1-5.64,1.12-11.3,2.2-16.94,3.33-3,.6-5.92,1.31-8.88,1.92-5.22,1.07-10.45,2.08-15.67,3.15-2,.4-3.93.87-5.89,1.32-2.6.6-4.24,0-5.54-2.15-1.48-2.38-.67-4.46,2.06-5.29,5.09-1.53,10.19-3.08,15.3-4.57a8.84,8.84,0,0,1,2.12,0,20.82,20.82,0,0,0,4.27-.26c12-3.08,24.28-5,36.47-7.22.57-.11,1.14-.18,1.71-.31,3.62-.8,3.5-.77,2.47-4.46-.89-3.16-1.28-6.48-2.21-9.63-2.12-7.19-4.47-14.31-6.66-21.47a9.61,9.61,0,0,0-4.16-5.3,75,75,0,0,1-8.22-6.28,7.47,7.47,0,0,1-2-4.12c-.35-2,1.29-2.9,3-1.86s3.06,2.16,4.65,3.15a1.2,1.2,0,0,0,2-1.34c-.43-2.26-.95-4.51-1.49-6.75-1.62-6.66-.47-13.18,1-19.68,2.21-10,4.8-19.91,6.61-30,1.48-8.2,1.85-16.6,3.07-24.86,1.07-7.26,2.42-14.5,4.05-21.66,2-8.63,3.35-17.29,2.57-26.13a89.77,89.77,0,0,0-2.3-11.87c-1.26-5.63-2.74-11.21-3.95-16.84-.66-3.09-.91-6.27-1.48-9.39a9.18,9.18,0,0,0-1.34-4,6.19,6.19,0,0,1-1-5.3c.31-1.85.5-3.72.95-5.53a3.49,3.49,0,0,0-1.77-4.38,5.8,5.8,0,0,1-1.08-.72c-.59-.58-1.69-1.41-1.57-1.8.47-1.45,1.67-.4,2.56-.37,3,.09,3.77-.61,4.09-3.69A44.59,44.59,0,0,0,501.36,490a79,79,0,0,0-4.87-16.12A176.94,176.94,0,0,1,488,446.71a24,24,0,0,1-.56-4.71,1.68,1.68,0,0,1,1-1.2,1.6,1.6,0,0,1,1.47.49,31.27,31.27,0,0,1,2,5.62c1.76,8.22,4.86,16,7.62,23.88.12.34.55.56.84.84a3.27,3.27,0,0,0,.49-1c.24-4.75.58-9.5.63-14.25a231.56,231.56,0,0,1,2.68-30.56,12.57,12.57,0,0,1,.39-2.12,1.33,1.33,0,0,1,2.35-.59c1,1.22,2.35,2.46,2.67,3.89A95.1,95.1,0,0,1,511.18,438a2.75,2.75,0,0,1-1.27,2.07c-1.81,1-2,2.64-2.12,4.42-.44,5.31-1.31,10.6-1.38,15.91-.1,8.64-.88,17.28.3,25.93.52,3.83.4,7.75.54,11.64,0,.72-.15,1.45-.07,2.15.06.53.26,1.25.63,1.46a1.74,1.74,0,0,0,1.52-.34,51.15,51.15,0,0,1,10.2-6.47c7.39-3.85,14.79-2.39,20.47,4.42A30.42,30.42,0,0,1,546.88,518.26ZM513.21,745.53c.32,0,.75-.12,1.18-.17,6.43-.76,12.86-1.66,19.31-2.25,7.6-.7,15.23-1.1,22.84-1.69a8.58,8.58,0,0,0,2.24-.83,15.15,15.15,0,0,0-1.39-2,6.5,6.5,0,0,0-1.76-1.24c-6.17-3.12-12.34-6.25-18.54-9.32s-12.42-6.07-18.6-9.16c-5.28-2.63-10.5-5.37-15.78-8-.15-.07-.9.55-.94.89a4.48,4.48,0,0,0,.4,1.66c2.79,10,5.6,20,8.36,30C511.05,745.24,511.37,745.59,513.21,745.53Zm28.25-228c-.52-4.13-1.12-8.25-3.16-12a9,9,0,0,0-6.79-4.77c-3.79-.65-7.13.59-10.4,2.09a23.73,23.73,0,0,0-9.2,6.95c-1.26,1.64-1.35,3.12-.05,4.67,2.08,2.51,2.9,5.58,3.95,8.57,1.3,3.66,2.8,7.25,4.31,10.83a15.51,15.51,0,0,0,1.84,2.89.8.8,0,0,0,.77.19.83.83,0,0,0,.3-.72c-.56-2.24-1.25-4.44-1.7-6.7a8.66,8.66,0,0,1-.06-3.79c.54-2.11,2.29-2.58,3.94-1.14,3,2.65,5.12,5.8,5.15,10,0,1.62-.57,4,1.58,4.39,1.87.38,2.85-1.63,3.78-3.08C539.31,530.35,540.67,524.06,541.46,517.52Z"/><path d="M319.32,69.59c7.55.31,13.61,2,19.11,6.5a89.67,89.67,0,0,1,16.46,18.2,187.73,187.73,0,0,0,22.75,27.14,108.89,108.89,0,0,0,23.43,17.63c2.65,1.44,5.55,2.41,8.26,3.77a4.12,4.12,0,0,1,2.31,5c-.54,2.47-2.47,3.6-4.83,2.67-2-.79-3.92-1.79-5.89-2.65a47.8,47.8,0,0,0-6-2.45c-5.26-1.47-10.49-3.15-16-3.6a5.21,5.21,0,0,0-1.54.36,5.52,5.52,0,0,0,.75,1.45c3.24,3.28,6.47,6.59,9.81,9.77a182.26,182.26,0,0,1,26.34,32c1.11,1.69,2.42,3.25,3.4,5a7.54,7.54,0,0,1,1.05,3.6c0,2.05-1.67,3-3.62,2.43a8.28,8.28,0,0,1-1.95-.92c-6-3.92-12.77-5.93-19.24-8.74-7.64-3.31-15.87-5.21-23-9.63-1.07-.66-2.18-1.22-3.28-1.83.3,1.36.47,2.75.9,4.06a108.37,108.37,0,0,1,5.35,26.19,28.31,28.31,0,0,1,.42,3.85,4.17,4.17,0,0,1-1.07,2.6,2.23,2.23,0,0,1-3.15-.24,16.38,16.38,0,0,1-2.92-3.67,355.6,355.6,0,0,0-20.31-32.66c-1.47-2.12-3.72-3.74-4.95-6-3.77-6.85-9.41-12.08-15.08-17.12-7.62-6.76-14.52-14.42-23.48-19.65-7.16-4.18-14.39-7.89-22.81-8.7-3-.29-6-1.19-9-1.35-11.74-.65-22,3.55-31.62,9.86a28.32,28.32,0,0,0-3.5,3.18c-.3.29-.76.72-.71,1,.54,3.08-1.49,3.13-3.64,3.36-2.31.25-3.84,1.85-5.15,3.64-1,1.39-1.86,2.93-3,4.22a2.62,2.62,0,0,1-2.22.77c-2.41-.83-3.85-5.12-2.33-7.21a61.19,61.19,0,0,1,6.09-7.25c3-3,6-5.73,7.83-9.67.95-2,2.69-3.72,4.1-5.54,1.15-1.48,2.46-2.85,3.49-4.4a14.41,14.41,0,0,1,5.2-5.06,17.61,17.61,0,0,0,2.63-2.21l12.61-10.45c1.66-1.37,3.23-2.89,5-4.11,3.55-2.45,7.22-4.73,10.83-7.09a14.7,14.7,0,0,0,2.17-1.41c4.1-3.83,9.31-5.65,14.23-8,4-1.94,7.88-4.23,12.41-4.86C310.67,70.73,315.37,70.12,319.32,69.59Zm3.61,9.84c-1.86.2-3.71.49-5.58.58a53.8,53.8,0,0,0-21.52,5.92c-14.29,7.08-27.2,16.26-39.6,26.21-1.68,1.35-3.3,2.79-4.89,4.24-.27.23-.28.74-.42,1.12.4,0,.86.25,1.19.12,8.3-3.26,16.73-3.45,25.51-2.12a71.5,71.5,0,0,1,35.79,16.13,276.72,276.72,0,0,1,23.94,22.5,70.14,70.14,0,0,1,6.32,7.67c5,7.08,9.79,14.27,14.65,21.43,2,3,4,6,6,9a4.14,4.14,0,0,0,1,.76c.15-.49.5-1,.42-1.45C364,183.33,362,175.22,357.53,168a41.26,41.26,0,0,1-2.17-4.24,2.12,2.12,0,0,1,.35-2.76c1.08-.92,2.32-1.36,3.57-.5,1.53,1.07,2.9,2.38,4.44,3.44,4.26,3,8.38,6.17,12.89,8.68,8.72,4.86,18.21,8,27.55,11.42a4.31,4.31,0,0,0,1.2.08c0-.38,0-.87-.16-1.14a115.46,115.46,0,0,0-7.25-9.67c-6.95-7.7-13.76-15.54-21.5-22.49-3.54-3.17-7.19-6.22-10.64-9.48a13.84,13.84,0,0,1-2.89-4.18c-1-2.15-.09-3.69,2.19-4.09a9.65,9.65,0,0,1,2.56.14c3.87.42,7.73.87,11.6,1.26a7.31,7.31,0,0,0,1.65-.24,7.41,7.41,0,0,0-.83-1.39c-4.84-5.32-9.93-10.45-14.52-16-6.07-7.32-11.82-14.92-17.58-22.49a51.79,51.79,0,0,0-10.44-10.26C333.17,80.83,328.19,79.8,322.93,79.43Z"/><path d="M224.66,280.83l-6,.74-16.72,2a29.6,29.6,0,0,0-3,.35q-12.44,2.88-24.83,5.86a3.23,3.23,0,0,0-1,.69c.26.29.46.74.78.85,6.39,2.2,10.88,6.93,15.36,11.63a7.15,7.15,0,0,1,1.76,3.35,4,4,0,0,0,2.72,3c3.54,1.61,7.1,3.2,10.47,5.13s6.41,3.95,6.94,8.26c.11.89,1.1,1.65,1.57,2.54,1.39,2.63.62,4.42-2.25,5.15-2.52.64-5.07,1.13-7.58,1.75s-4.74,1.24-7.09,1.93c-.33.1-.56.56-.83.85a4,4,0,0,0,1.15.38,6.58,6.58,0,0,1,4.78,1.65c2.67,2.48,2.51,5-.57,7-1.71,1.08-3.51,2-5.25,3-.18.11-.24.44-.35.67.26,0,.56.17.76.08,1.59-.69,3.12-1.52,4.73-2.15,5-1.93,10-3.8,14.95-5.69.94-.35,1.94-.58,2.86-1,1.55-.72,3-2.21,4.58-2.22,6.23-.05,12.09-2.52,18.37-2.3,9.76.33,18.41,3.11,25.47,10.07,2.67,2.63,5.37,5.21,7.94,7.93a6.08,6.08,0,0,0,6.16,2.08c4.09-.85,8.24-1.36,12.09-3.15,1.41-.66,1.88-1.34,1.33-3-.65-2,.27-2.87,2.09-2.12a19.64,19.64,0,0,1,5.19,3c2.26,1.94,2,4.3-.74,5.49-4.21,1.84-8.56,3.43-12.93,4.85-2.17.71-4.56.7-6.8,1.22a7.44,7.44,0,0,1-7.13-2.11,68.38,68.38,0,0,1-6.46-6.39c-3.41-4.13-7.95-6.59-12.54-9-1.34-.7-3.06-.64-4.6-1-8.12-1.83-16-.57-23.88,1.54-10.37,2.78-20,7.26-29.82,11.51q-9.31,4.05-18.74,7.88c-4.26,1.75-8.6,3.33-12.9,5-.27.11-.53.24-.8.33-1.53.51-3.22,1.14-4.37-.43a4.9,4.9,0,0,1-.77-5.29,10.48,10.48,0,0,1,2.47-2.93c5.87-5.16,12.49-9.29,19.05-13.48a15.59,15.59,0,0,0,1.48-.88c.64-.51,1.21-1.11,1.81-1.67a8.94,8.94,0,0,0-2.32-.5c-5.18.27-10.35.63-15.52.94a23.57,23.57,0,0,1-3,0,3.91,3.91,0,0,1-3.92-3.34c-.5-2.05.27-3.22,2.3-3.86q13-4.05,25.91-8.17a2.91,2.91,0,0,0,.79-.32,1.08,1.08,0,0,0,.45-.66.8.8,0,0,0-.4-.65c-1.52-.44-3.05-.84-4.59-1.22-3.49-.88-7-1.7-10.49-2.6-2.45-.64-3.42-2.47-3.62-4.82a2.42,2.42,0,0,1,2.82-2.89,6.16,6.16,0,0,1,1.26.27c6.51,2,13.18.92,19.78,1.08.29,0,.59-.4.88-.62a2.86,2.86,0,0,0-.62-.54c-4.88-2.15-9.72-4.37-14.65-6.4a8.73,8.73,0,0,1-4.58-4.92c-.94-2,0-3.35,2.24-3.35.86,0,1.72.13,2.59.13a.77.77,0,0,0,.59-.45.83.83,0,0,0-.3-.72c-2.72-1.28-5.41-2.66-8.22-3.75s-5.57-1.55-8.21-2.68a30.21,30.21,0,0,1-6.2-3.81,3.26,3.26,0,0,1-1.21-3.87c.57-1.4,1.95-1.6,3.25-1.76,3.42-.43,6.9-.6,10.28-1.27,5.08-1,10.08-2.48,15.17-3.48,6.35-1.26,12.75-2.24,19.13-3.35,2.13-.37,4.28-.67,6.38-1.19,10.15-2.53,20.3-1.83,30.45-.1a16.48,16.48,0,0,1,9.68,5.36c3.73,4.19,7.38,8.5,10.67,13,3,4.15,6.31,8,10.8,10.41a69.38,69.38,0,0,0,13,5.82c8.82,2.68,17.81,4.77,26.74,7.09,1,.26,2,.41,2.93.75,2.73,1,3.91,2.9,3.19,5.73-1.66,6.56-3.45,13.1-5.3,19.61-.65,2.28-1.87,3.09-3.27,2.64s-2.26-1.83-1.83-3.87c.49-2.25,1.21-4.45,1.87-6.66s1.54-4.66,2.14-7c1-3.79.71-4.2-2.95-5.16s-7.26-1.84-10.89-2.79c-4-1.05-8.09-2.08-12.1-3.22-11.14-3.16-20.59-8.83-27.45-18.42a95.63,95.63,0,0,0-9.68-11.61,14.72,14.72,0,0,0-9-4.59C234,281.53,229.58,281.25,224.66,280.83Z"/><path d="M54.29,466.06c-7.49.22-6.26-.14-9.43,6s-4.38,12.49-5.23,19.1a15.29,15.29,0,0,0,5.27,13.95,45.38,45.38,0,0,0,10.6,7.4c3.35,1.66,3.75,1.48,5.64-1.83.14-.25.25-.53.41-.76a1.57,1.57,0,0,1,2.57-.31c2,2.11,2.64,4.77,3,7.5a2.29,2.29,0,0,1-2,2.48,15.4,15.4,0,0,1-4.28.21,32.55,32.55,0,0,1-15.55-6c-2.45-1.77-5.16-3.25-7.36-5.29-4.5-4.18-7.3-9.39-6.85-15.69.72-9.9,3.84-19.15,8.19-28.06,1.62-3.3,3.87-4.86,7.47-4.63l10.77.69c.58,0,1.15.05,1.73.06,4.6.09,4.7,0,5.93-4.4,1.12-4,2.44-7.92,5.47-11a7.91,7.91,0,0,0,1.48-3.07c4.52-14,9-28,13.51-42,3.16-9.74,6.57-19.4,9.6-29.18,3-9.5,5.58-19.09,8.34-28.65.24-.83.41-1.68.66-2.51.74-2.44,1.59-3.1,3.56-2.83,2.47.35,4.16,2.06,4,4.24a19.14,19.14,0,0,1-.7,3.83c-3.37,11.63-6.73,23.26-10.18,34.87C97,393.23,93.08,406.36,89,419.43c-3.47,11.15-7.16,22.23-10.83,33.32-.81,2.46-2,4.78-2.86,7.23-1,2.85-.59,3.43,2.23,4.47,2.31.84,4.61,1.67,6.93,2.47,2.13.73,2.84.33,3.2-2,.4-2.56.58-5.15,1-7.72q3.12-20.29,6.31-40.58a67.15,67.15,0,0,1,11-27.52A114.08,114.08,0,0,0,122,352.49c.11-.42.23-.84.37-1.25.85-2.36,1.92-3,3.77-2.35,2.19.81,2.93,2.08,2.16,4.38-3.36,10.1-5.74,20.57-10.6,30.12-2.08,4.1-4.56,8-7,11.88A47.93,47.93,0,0,0,104.52,410a325.7,325.7,0,0,0-6.13,35.78c-.88,7.15-1.93,14.29-2.85,21.43q-.81,6.21-1.43,12.44c-.84,8.61-2.31,17.12-4,25.61-.77,4-1.39,7.95-2.1,11.92a19,19,0,0,1-.53,2.1c-1,3.37-2.19,4.1-5.3,3.29-2.64-.69-4.74-3.66-3.46-5.93,2.51-4.47,2.6-9.42,3.47-14.17,1.56-8.5,2.63-17.09,3.84-25.65.38-2.64,0-3.31-2.45-4.36-2.64-1.14-5.3-2.28-8-3.23-3.25-1.15-3.43-1-4.48,2.48a6.93,6.93,0,0,1-.59,2.07,18.57,18.57,0,0,1-3.09,3.46,3.39,3.39,0,0,1-4.06,0,3.77,3.77,0,0,1-2-4c.22-1.42.51-2.84.75-4.26a1.89,1.89,0,0,0-1.8-2.43C58.32,466.27,56.3,466.21,54.29,466.06Z"/><path d="M137.46,724.06c-.87.57-1.65,1.48-2.39,1.46a8.87,8.87,0,0,1-3.66-1.09c-4.34-2.28-8.55-4.77-12.91-7-4-2-8-4-12.16-5.65q-11-4.51-22.12-8.66a15.89,15.89,0,0,1-7.5-5.62,60,60,0,0,1-4.52-7.34c-.93-1.75-1.81-3.19-4-3.37-2-.16-3-1.73-3.3-3.52-.49-2.83-.74-5.7-1.1-8.55-.32-2.57-.59-5.14-1-7.7-.18-1.14-1.07-1.34-1.93-.71a47.18,47.18,0,0,0-5.07,4,402.9,402.9,0,0,0-39.06,43.31,9.39,9.39,0,0,0-1.18,1.79c-.36.78-.09,1.5.82,1.59,1.43.15,2.9,0,4.3.27a3.1,3.1,0,0,1,1.88,1.34c.18.31-.41,1.42-.91,1.71-4.23,2.45-8.54,4.78-12.8,7.18-2.2,1.24-4.18.53-6.12-.59-2.62-1.52-3.42-3.53-2-6.17a77.05,77.05,0,0,1,5.9-9c7.92-10.46,16.65-20.25,25.43-30,5.78-6.41,11.88-12.54,18-18.65,2.85-2.84,5.91-5.54,10-6.61,1.24-.33,1.52-1.06,1.35-2.26-1.36-9.11-2.28-18.33-6.53-26.74a4.29,4.29,0,0,1,.52-5.21c3.11-3.52,4.83-7.85,6.7-12,6.88-15.4,13.61-30.87,20.42-46.29,2.92-6.6,6-13.1,8.86-19.73,5.58-13.16,10.34-26.6,13.09-40.68a34.59,34.59,0,0,1,.84-3.79c.71-2.22,2.4-2.87,4.38-1.75a6.25,6.25,0,0,1,1.35,1.06,3.16,3.16,0,0,0,3.9.65,11.77,11.77,0,0,1,4.2-.56,1.07,1.07,0,0,1,.76,1.86,11.28,11.28,0,0,1-5.32,3.54c-1.9.5-2.74,1.81-3,3.75-1.56,10.95-5.56,21.19-9.61,31.36-3.63,9.1-7.78,18-11.66,27C87.5,573,84.88,579.4,82.1,585.74c-2.43,5.54-5,11-7.5,16.52-2.32,5.12-4.55,10.28-6.93,15.36-1.22,2.61-2.6,5.15-4.07,7.63a5.09,5.09,0,0,0-.53,4.87c2.38,6.08,3.44,12.49,4.37,18.92.41,2.85.9,5.69,1.52,8.51,2,9.29,4.27,18.55,8,27.34a103.39,103.39,0,0,0,5.2,10,8.94,8.94,0,0,0,4.59,3.78c11,4.63,22.07,9.23,33,14,4.36,1.89,8.56,4.13,12.77,6.33a15.66,15.66,0,0,1,3.46,2.56A10.72,10.72,0,0,1,137.46,724.06Z"/><path d="M223.52,370c1.59,0,3.18-.07,4.76,0a17.71,17.71,0,0,0,9.23-1.77,12.54,12.54,0,0,1,2.42-.95c4.51-1.24,8.84-1.4,12.54,2.16a8,8,0,0,0,5,2.25c6.38.58,12.26,3.11,18.32,4.94,2.61.78,5.1,2,7.75,2.59,3.83.81,5.45,3.51,6.55,6.75a3.08,3.08,0,0,1-2,4.22c-3.17,1-3.72,3.09-3.58,6,.25,5.32-1.37,10.18-3.59,15a67.2,67.2,0,0,1-9.07,14.66,40.21,40.21,0,0,1-12.47,10.53c-2.51,1.28-3.55,1.23-5.06-.39s-3-3.58-2-6.17a4.34,4.34,0,0,1,.83-1.51c.58-.56,1.34-1.33,2-1.3s1.28,1.14,1.33,1.82c.13,1.65.91,1.73,1.9.92,1.9-1.54,3.7-3.21,5.47-4.9a54.49,54.49,0,0,0,13.59-20.32,36.91,36.91,0,0,0,1.7-7.55c.23-1.45-.56-2-1.75-1.28-3.61,2.09-7.16,4.28-10.75,6.41-2.34,1.4-4.66,2.85-7.06,4.14q-6.66,3.58-13.4,7c-8.74,4.44-17.52,8.81-26.27,13.22-7.2,3.63-14.39,7.31-21.61,10.91-3,1.47-6,2.81-9,4.12a11.15,11.15,0,0,1-2.92.72c-2.65.36-3.7-.35-4.44-2.88-.66-2.26.05-3.66,2.67-4.53,6.51-2.15,12.67-5.09,17.76-9.62a33.29,33.29,0,0,1,13.1-6.93,154.28,154.28,0,0,0,27-11.45c5.35-2.81,10.62-5.78,15.92-8.7a23.84,23.84,0,0,0,2.16-1.44,2.65,2.65,0,0,0,1.11-3c-.81-2.89-2.87-4.94-4.9-7-.22-.21-1.1,0-1.45.23a4.94,4.94,0,0,0-.9,1.46,24,24,0,0,1-8.13,8.2,20.19,20.19,0,0,1-18.27,2.06c-7.27-2.5-10.9-8.31-8.26-17.37.36-1.21.76-2.41,1.14-3.62a31.47,31.47,0,0,0-4.2-.43c-2.59.07-5.17.36-7.76.53a44.87,44.87,0,0,1-5.17.26,3.25,3.25,0,0,1-3.21-3.39c-.11-1.76.74-2.86,2.66-3.38a7.77,7.77,0,0,1,1.28-.21c3.15-.29,6.3-.69,9.46-.83s6.34,0,9.51,0Zm36.36,11.49-1,.33a4.71,4.71,0,0,0,.6,1.45c1.33,1.5,2.9,2.83,4.1,4.43,3.94,5.29,3.23,5.42,9.45,1.48a17.46,17.46,0,0,0,2.12-1.48c.68-.57.73-1.45-.2-1.6a11.92,11.92,0,0,1-6.84-3.32c-.52-.52-1.61-.54-2.45-.66C263.83,381.85,262,381.68,259.88,381.46Zm-20.29,3.47c-.42-.3-.68-.58-.78-.53a14.67,14.67,0,0,0-1.71,1,2.69,2.69,0,0,0,.28.53C238.08,385.64,238.77,385.32,239.59,384.93Z"/><path d="M236.62,936.4c-.63-10,3.9-18.07,12-22.1a8.85,8.85,0,0,1,7.09-.55c7.32,2.43,13.65,6.11,17.61,13.08,1.77,3.13,3.6,6.24,5.58,9.24a32,32,0,0,0,4.1,5c1.5,1.5,2.77,1.33,3.87-.52a50.19,50.19,0,0,0,3.24-6.58,41.18,41.18,0,0,0,1.69-5.81c.67-2.78.23-3.58-2.32-4.74-2.22-1-4.47-2-6.65-3.11a11.71,11.71,0,0,1-2.76-2,2.41,2.41,0,0,1-.5-3.15,2.3,2.3,0,0,1,3-.9c2.18.75,4.33,1.57,6.5,2.37a24.42,24.42,0,0,0,2.41.93c1.32.33,2.5,1.56,4,.71a25,25,0,0,1-2.07-3.17c-1.28-2.73-2.84-5.44-3.5-8.34a12.17,12.17,0,0,1,4.06-12.51,26.64,26.64,0,0,1,6.62-4c3.68-1.59,7.38-.94,10.77,1.1,1.85,1.11,3.59,2.19,5.91,2.34,2.14.13,3.49,1.75,4.44,3.68,2.5,5.06,2,10.16-.1,15.07a16.66,16.66,0,0,1-11.07,9.56,10.18,10.18,0,0,0-1.65.51c-.33.16-.79.58-.76.81a1.51,1.51,0,0,0,.81.88c1,.47,2.16.79,3.21,1.26,2.63,1.16,5.3,2.26,7.86,3.58s3.38,2.86,2.31,5.29c-2.7,6.17-4.43,12.85-9,18-.85,1-1.87,1.78-2.79,2.69-2.52,2.47-5.32,2.54-8.34,1-4-2-7-5-8.4-9.37-.25-.83-.44-1.67-.69-2.5s-1-1.06-1.58-.39c-.78.83-1.38,1.84-2.15,2.7-2.05,2.28-3.85,2.48-6.48.81-3.49-2.22-5.93-5.4-8.21-8.76-2.81-4.17-5.58-8.39-8.58-12.42a17.09,17.09,0,0,0-11.67-6.75,6.17,6.17,0,0,0-3.72.63,20.45,20.45,0,0,0-5,3.94c-4.12,4.7-5,14.11-2.1,19.62a10.82,10.82,0,0,0,5.59,5.18c2.13.86,3.66.5,5-1.32,3-4.16,3.86-8.92,3.75-13.92a5.76,5.76,0,0,0-.59-2.07c-.68-1.6-1.38-1.92-3-1.4-.41.13-.77.39-1.17.56A2.44,2.44,0,0,1,250,930a3.16,3.16,0,0,1-.08-4,6.44,6.44,0,0,1,8.46-1.92,9.32,9.32,0,0,1,4,4.38,15.06,15.06,0,0,1,1,11A72.57,72.57,0,0,1,259,950.2c-2.17,4.32-4.5,5.16-9.25,4a16.28,16.28,0,0,1-12.89-14.83C236.73,938.42,236.69,937.41,236.62,936.4Zm80.74-30.91c0-1.75.1-3.51-1.46-4.76a58.57,58.57,0,0,0-4.76-3.72c-4.6-3-12.22-.91-14.74,3.92a6.13,6.13,0,0,0-.33.8c-1.48,4.53,2.37,12.5,6.84,14.14a7.75,7.75,0,0,0,1.26.32A11,11,0,0,0,317.36,905.49Zm-18.88,30-.32,0c.31,3.14.42,6.31,1,9.4a10.2,10.2,0,0,0,2.27,4.52c2.2,2.51,4.74,2.57,7.14.28a16.69,16.69,0,0,0,3.45-4.37,98.23,98.23,0,0,0,4-9.52c.66-1.76.28-2.64-1.59-3.41q-6.58-2.7-13.29-5.07c-1.71-.61-2.53-.06-2.64,1.68C298.37,931.15,298.48,933.31,298.48,935.47Z"/><path d="M431.87,354.86c4,.48,8.13.94,12.26,1.49a4.92,4.92,0,0,1,4.59,3.95c.43,1.9-.36,3.16-2.28,3.36a6.36,6.36,0,0,1-2.13-.17c-8.51-2.14-16.91-.65-25.32.72a44.28,44.28,0,0,0-12.25,4.08,82.6,82.6,0,0,0-18,11.8,18.76,18.76,0,0,0-3.53,4.3c-1.15,1.87-.78,2.56,1.26,3,1.55.35,3.13.53,4.67.89.43.1.78.57,1.16.87-.36.2-.71.59-1.07.59a62.86,62.86,0,0,1-7.27-.19,4.43,4.43,0,0,1-2.32-1.68c-1.59-1.8-1.45-1.79-2.72.24-4.95,7.93-5,16-.94,24.26a55,55,0,0,0,10.82,15,83.71,83.71,0,0,0,15,12.4c7.76,4.77,16.05,8.55,25.12,10.15,5.86,1,11.13-.89,15.81-4.34a59.62,59.62,0,0,0,4.76-4.39,2.09,2.09,0,0,1,3.67.95,4.19,4.19,0,0,1-1.13,4.38c-3.87,4.16-8.13,7.76-13.84,9.18a21.62,21.62,0,0,1-8.53.52,69.91,69.91,0,0,1-29.92-11.86c-7.82-5.37-15-11.68-20.37-19.75a17,17,0,0,0-1.38-1.57,9.55,9.55,0,0,0,.41,2.3c2.27,5,4.66,9.9,6.91,14.89a38.76,38.76,0,0,1,3,7.62c1.12,5.27-1.09,8.34-6.57,9.6-5.05,1.17-10.11,2.28-15.22,3.16-1.64.29-2.64.74-3.11,2.37a4.56,4.56,0,0,1-2.83,3.05c-2.77,1.15-3.53,1-5.15-1.69a2.72,2.72,0,0,0-2.77-1.6c-2.15.19-4.29.51-6.44.73-6.45.66-12.9,1.26-19.34,2-1.85.21-3.64.86-5.49,1.18a6.89,6.89,0,0,1-7.28-3.49c-.56-1.18-.53-2.35.69-3a31.2,31.2,0,0,1,5.46-2.49c2.23-.7,4.37-.3,5.55,2,.87,1.75,2.3,2,4,1.81,9.17-1,18.34-2,27.5-3q8.79-1,17.59-2A25,25,0,0,0,383,454c2.13-1.05,3.14-2.71,2.65-4.89a27.76,27.76,0,0,0-2.44-7.3,78,78,0,0,1-7.1-16.67,4.84,4.84,0,0,1-.38-1.23c.12-4.48-2-8.33-3.41-12.4-4.58-13.41-.79-24.9,8.14-35.22C385,371,390.72,367.68,397,364.83c8.31-3.79,17-6.32,25.7-8.89C425.52,355.09,428.65,355.21,431.87,354.86Z"/><path d="M432.37,382.05a33.88,33.88,0,0,1,4,.25,23.92,23.92,0,0,0,8.56-.12,14.8,14.8,0,0,1,8.86,1.19,23.55,23.55,0,0,0,4.93,1.38c6.34,1.27,12.71,2.45,19.06,3.73a5.63,5.63,0,0,1,4.24,2.67c.57,1.05,1.15,2.27.22,3.2a3.63,3.63,0,0,1-2.69.83c-2.55-.37-5.06-1.07-7.61-1.55s-5.11-.84-7.65-1.28a1.84,1.84,0,0,0-2.35,1.27c-1.09,2.59-3.26,4.61-3.7,7.63-.28,1.88-2.2,2.48-4,2.65s-3.72.31-5.58.54c-.34,0-.63.45-.95.69.29.28.54.7.89.84,6.32,2.42,12.65,4.8,19,7.22,2,.77,4,1.69,6,2.36a44.68,44.68,0,0,0,7,1.9,12.07,12.07,0,0,1,6.57,3,6.65,6.65,0,0,1,1.7,2.44,2.82,2.82,0,0,1-3.05,3.93,16.56,16.56,0,0,1-3.72-1.06c-9-3.39-18.07-6.77-27.08-10.23-12.63-4.85-25.08-10.14-37.86-14.64-5.66-2-11-5.05-16.37-7.76-2-1-3.44-2.56-3-5.19.39-2.22,1-3,3.29-3.23q11.17-1.05,22.36-2C426.47,382.44,429.49,382.26,432.37,382.05Zm1.11,8.2c0-1.87,0-1.89-2.64-2-.44,0-.87,0-1.3,0-5.46.29-10.93.57-16.39.88-1.42.09-2.83.29-4.24.43.88,1.68,2.68,1.91,4.17,2.63.9.43,1.89.69,2.83,1l21,7.93a9.49,9.49,0,0,0,1.2.27,7,7,0,0,0-.83-1.23A12.26,12.26,0,0,1,433.48,390.25Zm15.72,7.4a15.09,15.09,0,0,0,2.46-.79c.71-.34,1.06-1.27.23-1.69-2.28-1.16-4.69-2.24-7.33-1.28-1,.35-1.77.9-2.82.35a.74.74,0,0,0-.65.27.9.9,0,0,0,.21.75C443.33,397.05,445.76,397.7,449.2,397.65Z"/><path d="M379.35,759.7c-3.81,0-7.41,0-11,0a6.78,6.78,0,0,1-5.6-2.77,4.08,4.08,0,0,1,2.12-6.77c4.32-1.14,8.69-2.06,13-3.11,9.79-2.34,19.48-5,29.21-7.61,8.36-2.2,16.84-3.87,25.24-5.9,8.85-2.14,17.87-3.12,26.89-4.07a26.71,26.71,0,0,1,7.73.32c5.89,1.12,10.13,6.57,9.74,12a2.34,2.34,0,0,1-.11.85,14,14,0,0,1-.87,1.35,4.85,4.85,0,0,1-1.34-.93,7.21,7.21,0,0,1-1.15-2.28c-.69-2.71-2.58-3.73-5.13-3.67-3.31.07-6.62.2-9.92.5-10.49,1-20.66,3.8-31,5.71-6.64,1.22-13.15,3.21-19.7,4.9-4.89,1.25-9.75,2.56-14.62,3.87a14.33,14.33,0,0,0-2.39.95c-.14.07-.16.48-.17.74,0,.08.2.24.31.24a20.3,20.3,0,0,0,4.27,0c4.15-.81,8,.76,11.89,1.5a.84.84,0,0,1,.49.6c0,.23-.15.64-.33.7a17.71,17.71,0,0,1-3.29,1C395.52,758.94,387.4,760.21,379.35,759.7Z"/><path d="M181.59,764.28c.34,6.21-2.16,11-5.9,15.21s-9.06,3.58-11.58,0c-3.62-5.19-7.71-10.05-11.52-15.1-3.1-4.12-5.51-8.77-9.94-11.82-1.62-1.12-1.82-3.2-2-5.08-.35-4.38,1.35-8.16,3.61-11.76.3-.48.78-.86,1.07-1.35,3.93-6.74,13.21-7.18,19.17-3.61a8.42,8.42,0,0,1,3.21,3.33c2.06,4.38,3.14,9,1.66,13.82-.21.69-.45,1.37-.65,2.06-.92,3.17-.85,3.26,2.64,3.42.72,0,1.45,0,2.16.1,4.69.51,7.62,3.47,8,8.13C181.66,762.61,181.59,763.62,181.59,764.28Zm-16-20.93a42.87,42.87,0,0,0-1.17-5.26c-1.33-3.72-4.64-5.45-8.59-4.69-5,1-9.78,5.8-10.37,10.8a5.83,5.83,0,0,0,.77,3.63c2.48,3.69,5.16,7.25,7.84,10.8,1,1.33,1.48,1.33,2.74,0,3-3.12,5.73-6.45,7.33-10.53C164.77,746.52,165.15,744.84,165.59,743.35Zm5,14.61a16.8,16.8,0,0,0-10.32,5.28,2.26,2.26,0,0,0-.39,3.12c2.38,3.24,4.7,6.54,7.29,9.62,1.76,2.08,2.78,1.78,4.28-.57,1.63-2.57,2-6.13,5.49-7.27a.6.6,0,0,0,.27-.33,8.82,8.82,0,0,0-.13-7.12C176,758.41,174,757.79,170.57,758Z"/><path d="M222.15,706.71c5.62.74,10.52,2.94,13.94,7.65a7.82,7.82,0,0,1,.72,7.47,43.68,43.68,0,0,1-2.56,5.46c-.63,1.2-.62,2.14.47,3s1.93,1.73,2.91,2.59c2.87,2.53,4,5.86,4.58,9.52,1.32,7.7-8,14.48-14.42,11.84a34.43,34.43,0,0,1-4.7-2.13c-1.36-.82-2.51-1.83-4.29-1.67-1.32.12-2.11-.91-2.51-2a28.37,28.37,0,0,1-1.12-4.16q-2.41-12.74-4.76-25.49c-1-5.27-.41-6.55,4.16-9.14C216.93,708.31,219.12,706.46,222.15,706.71Zm3,26.17c-1,.18-2.71.45-4.4.8a2,2,0,0,0-1.67,2.57c.28,2.14.52,4.29.9,6.42a4.73,4.73,0,0,0,.95,2.35c2.1,2.22,4.5,4.16,7.57,4.77a7.87,7.87,0,0,0,7.82-2.64c2-2.38,1.64-5,.37-7.71C234.46,734.88,230.7,733,225.11,732.88Zm-1.36-20a9.58,9.58,0,0,0-6.78,2.17,2.93,2.93,0,0,0-1.41,2.95c.44,2.4.93,4.8,1.49,7.18a2.65,2.65,0,0,0,3.21,2.2c2.27-.34,4.52-.82,6.75-1.35,2.85-.69,4.22-2.93,5.14-5.4a4.6,4.6,0,0,0-1.88-5.69A10.21,10.21,0,0,0,223.75,712.9Z"/><path d="M307.32,838.1a15.09,15.09,0,0,1,13.49,7c1,1.55,2.06,1.52,2.91,0,1.29-2.38,3-4.89,1.59-7.69s-4.39-3.16-7.11-3.12c-2.56,0-5.1.82-7.67,1.07a9.67,9.67,0,0,1-3.7-.42,2.07,2.07,0,0,1-.92-1.74,2.13,2.13,0,0,1,1.23-1.51,50.11,50.11,0,0,1,8.69-2.54c5.39-.76,9.93,1.36,13.33,5.52a8,8,0,0,1,1.3,7,26.82,26.82,0,0,1-6.7,12.38A53.65,53.65,0,0,1,317,860.7a52.33,52.33,0,0,1-8.11,4.81,3.91,3.91,0,0,1-2.89,0c-8.19-3.34-11.57-10.83-9.89-18,.2-.84.46-1.67.72-2.49C298.82,838.75,299.9,838,307.32,838.1Zm.76,6.23-.07.34c-.86,0-1.72,0-2.58,0a4.07,4.07,0,0,0-3.8,3,11.06,11.06,0,0,0,2.85,11.06c1.46,1.28,2.74,1.56,4.28.46a46.2,46.2,0,0,0,6.32-5.16c2.87-2.92,2.09-6.76-1.65-8.38A31.47,31.47,0,0,0,308.08,844.33Z"/><path d="M191.93,731.43c1.58.09,3.16.28,4.74.25s2.18-.85,1.77-2.27a35.69,35.69,0,0,0-2.63-7.28c-2.05-3.74-6-4.24-9-1.28-2.36,2.29-4,5-2.71,8.49.3.85.45,1.89-.64,2.14a3,3,0,0,1-2.33-.54,5.6,5.6,0,0,1-1.75-5.1c.53-4.2,2.76-7.52,5.68-10.39a6.09,6.09,0,0,1,5.61-1.56c4.5.81,8.18,2.86,10.12,7.18a54,54,0,0,1,2.82,7.69c1.72,6.23,3.3,12.51,4.83,18.79a32.48,32.48,0,0,1,.88,6c.12,2.74-.5,3.42-3.19,3.2a5.25,5.25,0,0,0-3.58,1.08c-4,2.74-7.67,2-11.72-.14-5.55-2.95-8-7.71-8.83-13.51a12.62,12.62,0,0,1,3.61-10.67C187.06,731.86,189.13,731.28,191.93,731.43Zm1.41,4.82c-5.45-.06-8.14,3.5-6.75,8.76a14.94,14.94,0,0,0,6.08,8.62c4.24,3,9.31.93,10.13-4.17a13.72,13.72,0,0,0-.36-4.67,17.73,17.73,0,0,0-1.22-3.22C199.55,737.5,197.77,736.3,193.34,736.25Z"/><path d="M307.09,754.28a23.21,23.21,0,0,1-4.94,14.83c-5.24,6.67-9.6,7.91-17,5.88A17.64,17.64,0,0,1,274,766c-1.46-2.68-1.19-3.67,1.12-5.91a8.38,8.38,0,0,0,1.51-2c4-7.48,8.11-14.94,11-23a8.92,8.92,0,0,1,.72-1.57c1.08-1.78,2.07-2.14,4-1.22C301.48,736.79,307.23,743.55,307.09,754.28Zm-4.7,1a58.3,58.3,0,0,0-1-6.89,12.88,12.88,0,0,0-4.67-7.55c-5.11-3.7-5.26-2.66-7,1.78a112.12,112.12,0,0,1-8.58,17.84,24.28,24.28,0,0,0-1.39,2.68c-.92,2.07-.71,3.06.89,4.59,3.41,3.25,10.69,4,14.44,1.13A18.67,18.67,0,0,0,302.39,755.23Z"/><path d="M111,857.15c.59-16.56,2.76-31.5,8.9-45.55,3-7,6.21-14,11-20a17.25,17.25,0,0,1,1.32-1.71,2.22,2.22,0,0,1,3.77,1c.68,1.8.11,3.34-.84,4.89-2.46,4.05-4.78,8.18-7.29,12.19-4.13,6.59-5.66,14.11-7.87,21.39s-3,15-3.82,22.54c-.46,4.54.12,9.18.29,13.77,0,1.43.41,2.86.38,4.28a2.38,2.38,0,0,1-1.17,1.57,1.61,1.61,0,0,1-1.5-.46c-.85-1.29-1.91-2.64-2.15-4.08C111.47,863.32,111.26,859.57,111,857.15Z"/><path d="M272.89,724.09c-.41,4.07-.5,7.41-1.13,10.64a74,74,0,0,1-2.75,9.5,51.41,51.41,0,0,1-2.87,6.75,17.58,17.58,0,0,1-3.11,4.6c-2.36,2.32-5.27,3.67-8.65,2.46-3-1.06-5.86-2.35-8.74-3.65a2.92,2.92,0,0,1-1.42-1.52,2.36,2.36,0,0,1,.18-2,2.27,2.27,0,0,1,1.87-.53,12.14,12.14,0,0,1,2.33,1.07,37.79,37.79,0,0,0,4.41,1.75,7.16,7.16,0,0,0,7.76-2.46c2-2.31,2-3.27-.4-5.28-7.53-6.39-10.69-14.8-11.4-24.35a20.34,20.34,0,0,1,2-10.49c1-2.09,2.34-2.39,4.15-1.15,1.1.75,1.67,1.8.86,2.94-2.28,3.23-1.93,6.87-1.64,10.43.12,1.47,1.62,2.95,1.45,4.3a7.41,7.41,0,0,0,.64,4.55c1.39,2.68,2.88,5.31,4.49,7.86.74,1.16,1.75,2.8,3.3,2.2.88-.35,1.56-2,1.75-3.16.74-4.4,1.24-8.83,1.83-13.25a12.44,12.44,0,0,1,.42-3c.28-.72,1.1-1.73,1.64-1.71a3.62,3.62,0,0,1,2.39,1.37A4.82,4.82,0,0,1,272.89,724.09Z"/><path d="M129.43,856.28c-.73-13,2.2-25.46,5.78-37.79a43.65,43.65,0,0,1,3.65-7.78c1.45-2.81,3.06-5.54,4.61-8.3a12.52,12.52,0,0,1,.68-1.1q1.83-2.5,3.56-1.76c1.11.48,1.87,2.59,1.45,4.18a7.6,7.6,0,0,1-.72,1.56c-1.86,3.39-3.77,6.75-5.6,10.15a60.42,60.42,0,0,0-4.8,12.9c-2.49,9.11-3.13,18.4-3.77,27.73a68.36,68.36,0,0,0,1.83,20.56,30.69,30.69,0,0,1,.78,4.24c.05.61-.32,1.73-.66,1.79a2.69,2.69,0,0,1-2.24-.51,10.32,10.32,0,0,1-2.25-4c-.94-4.79-1.68-9.63-2.25-14.48A61.93,61.93,0,0,1,129.43,856.28Z"/><path d="M334,862.93c-.22,1.51-.45,3.8-.91,6.05a78.66,78.66,0,0,0-1.82,16.26,10.24,10.24,0,0,1-.53,3.8,3.71,3.71,0,0,1-2.12,1.86,2.19,2.19,0,0,1-2.7-1.6,11.25,11.25,0,0,1-.36-3.76c.1-3.45.32-6.89.44-10.34,0-.35-.36-1-.54-1-.49,0-1.23.19-1.4.53a2.41,2.41,0,0,1-2.16,1.69,48.49,48.49,0,0,0-7.56,1.35c-4.58,1.24-9.07,2.77-13.65,4a11.49,11.49,0,0,1-4.22.24,3.13,3.13,0,0,1-3-2.7c-.19-1.28.76-2.38,2.6-3,6.45-2,13-3.81,19.36-6A112.18,112.18,0,0,0,326,865.66a4.24,4.24,0,0,0,2.48-4.19,20.34,20.34,0,0,1,.35-4.28c.16-.73.91-1.8,1.46-1.84a3.51,3.51,0,0,1,2.53,1,5.55,5.55,0,0,1,1.06,2.73A26.25,26.25,0,0,1,334,862.93Z"/><path d="M162.27,795.5c1.69.25,2.95,2.83,2.44,4.33a5.27,5.27,0,0,1-.85,1.49,49.77,49.77,0,0,0-7.15,13.29c-1.85,5-3.64,10-5.12,15.15a35,35,0,0,0-1.21,8.53A145.49,145.49,0,0,0,154.54,879a8.08,8.08,0,0,1,.2.85c.12,1.1.69,2.33-.58,3.13-1,.63-2.4-.19-3.25-2a25.63,25.63,0,0,1-1.4-4.09c-2.12-8.12-2.79-16.46-3.64-24.78-.56-5.47-.2-10.94,0-16.4.19-5.23,1.76-10.19,3.24-15.17a75.19,75.19,0,0,1,11.28-23.23A12.69,12.69,0,0,1,162.27,795.5Z"/><path d="M96.47,851.69c1.23-11.29,2.28-21.78,4.88-32,1.49-5.85,3.47-11.59,5.47-17.29a70.05,70.05,0,0,1,4-8.62c1.05-2,2.33-2.59,4.2-2.18a2.09,2.09,0,0,1,1.74,2.87,14,14,0,0,1-1.24,2.76c-7.09,12.2-10,25.72-12.47,39.39-.68,3.82-1.16,7.69-1.6,11.55a7.67,7.67,0,0,0,.34,3.77,4.22,4.22,0,0,1-.45,4.09c-.37.68-1.08,1.63-1.65,1.64a2.62,2.62,0,0,1-2-1.4A34.84,34.84,0,0,1,96.47,851.69Z"/><path d="M336.29,827.31a2.26,2.26,0,0,1-1.87,2.33,2.56,2.56,0,0,1-3.07-2.32c-.54-2.82-.82-5.69-1.22-8.54-.32-2.19-.84-2.5-2.81-1.69-6.79,2.8-13.54,5.68-20.37,8.36a13.45,13.45,0,0,1-5,.68,2.1,2.1,0,0,1-2.2-2.21,3.39,3.39,0,0,1,1.65-2.22c3.09-1.54,6.26-2.91,9.44-4.26,4.64-2,9.29-3.9,14-5.75,2.75-1.09,4.3-2.76,3.71-5.91a7.47,7.47,0,0,1,.08-2.58c.31-1.78,2.05-2.4,3.11-.93a60.77,60.77,0,0,1,4.33,7.41,2.73,2.73,0,0,1-.21,2.07c-1.17,2.5-.93,5-.48,7.61C335.75,821.77,335.93,824.22,336.29,827.31Z"/><path d="M301,793c-.84-8.47,6.16-14.19,11.54-16.61,4.41-2,10.93,1.52,12.53,6.44a14.41,14.41,0,0,1,.63,4.66,2.13,2.13,0,0,1-2.19,2.23c-1.29,0-1.59-1-1.81-2-.26-1.26-.6-2.51-.95-3.75-.57-2-2-2.49-3.93-2.72-3.14-.36-9.86,4.68-10.26,8.13a24.67,24.67,0,0,0,.14,7.28c.7,3.64,3,4.88,6.75,4.14,1.41-.27,2.76-.83,4.17-1.1a4.65,4.65,0,0,1,2.49.1,2.49,2.49,0,0,1,.3,4.51c-4.05,2.34-8.44,3.16-12.85,1.21-4-1.76-6.09-5.13-6.55-9.47C300.88,795.06,301,794,301,793Z"/><path d="M57.34,500.86a26,26,0,0,1-4.16-1.32,3.45,3.45,0,0,1-1.66-2.21c-.24-1.29.8-2.1,2-2.43a36.26,36.26,0,0,1,4.61-1.07c4.53-.71,9.1-1.23,13.61-2.05a11.4,11.4,0,0,1,6.69,1,2.28,2.28,0,0,1,.67,4.07,5,5,0,0,1-2.29,1.07c-5.64,1-11.3,1.92-17,2.85C59.28,500.81,58.69,500.79,57.34,500.86Z"/><path d="M317.52,764.49a26.75,26.75,0,0,1-2,3q-4.94,5.41-10,10.74c-2.27,2.41-4.58,4.78-6.91,7.14-.49.5-1.07,1.15-1.68,1.24a3.11,3.11,0,0,1-2.33-.55,2.54,2.54,0,0,1-.64-2.25,12.44,12.44,0,0,1,2.37-3.56c3.86-4.06,7.84-8,11.72-12.06,1.7-1.76,3.27-3.64,4.93-5.44.73-.8,1.71-1.34,2.67-.62A12.53,12.53,0,0,1,317.52,764.49Z"/><path d="M295,412l.59-.91c.31.25.81.44.89.75.89,3.47,1.88,6.93,2.52,10.46,1.69,9.32,3.2,18.67,4.82,28,.24,1.41.83,2.76,1,4.17.08.54-.47,1.17-.74,1.76-.6-.3-1.5-.44-1.73-.91a14.31,14.31,0,0,1-1.15-3.68c-.71-3.81-1.35-7.63-2-11.46q-2.09-13.38-4.12-26.78C295.1,413,295.07,412.54,295,412Z"/><path d="M298,680.58a63,63,0,0,0-6.74,1.06,4.22,4.22,0,0,1-4-.92c-.65-.5-1.24-1.24-2-1.4s-1.52-.15-1.45-1.08a2.61,2.61,0,0,1,.83-1.85,8.16,8.16,0,0,1,3.13-1.11,39.23,39.23,0,0,1,6.4-.4,46,46,0,0,1,7.21.84,4.4,4.4,0,0,1,2.38,1.64,2.14,2.14,0,0,1-1.5,3.52,15.27,15.27,0,0,1-2.14,0H298Z"/><path d="M11,826.14a2.38,2.38,0,0,1,2.56,2c.07.38-.66,1.23-1.12,1.32a1.79,1.79,0,0,1-2-2C10.43,827,10.83,826.52,11,826.14Z"/><path d="M222.69,542.06c-.84.39-1.32.81-1.71.74s-.64-.65-.95-1c.4-.28.8-.76,1.21-.78S222,541.51,222.69,542.06Z"/><path d="M635,436.5l-1.58,1.84c-.15-.19-.47-.47-.42-.55a14.4,14.4,0,0,1,1.13-1.74A6.39,6.39,0,0,1,635,436.5Z"/><path d="M603.44,468.26a13.61,13.61,0,0,1,1.09-1.16c.06-.06.38.18.58.29-.31.42-.6.86-.93,1.25C604.14,468.68,603.8,468.45,603.44,468.26Z"/><path d="M587.55,510.33c.45.71.67.89.66,1.07,0,.56-.11,1.11-.17,1.66-.16-.14-.45-.26-.46-.42C587.52,512.1,587.55,511.54,587.55,510.33Z"/><path d="M48.28,534.75l-.64.3-.27-.87c.23,0,.53-.16.69-.07S48.22,534.53,48.28,534.75Z"/><path d="M212.2,798.19c.08-3.17.84-5.38,3.33-6.65,1.8-.91,3.59-1.83,5.39-2.71a8,8,0,0,1,5.89-.35c2.69.75,3.06,1.4,2.67,4.33-.46,3.4-.39,6.92-2.25,10a21.57,21.57,0,0,1-1.82,2.91,5.89,5.89,0,0,1-7.75,1.16C214.49,805,212.22,801.11,212.2,798.19Zm5.75,2.6c.21.28.63,1.3,1.34,1.6.45.18,1.68-.56,2-1.17a34.62,34.62,0,0,0,2.31-5.89c.32-1.12-.82-1.84-1.91-1.39C219.36,794.89,217.93,797.26,218,800.79Z"/><path d="M249,801.16c1.74,3.74,1.11,7.25-1.07,10.58-1.94,3-4.57,4-7.77,2.38a17.89,17.89,0,0,1-5.67-4.43c-1.91-2.3-1.41-5.13-.31-7.77,2.07-5,7.85-7.71,12.23-5.6a7.53,7.53,0,0,1,2.79,2.53c.34.5-.12,1.54-.22,2.34-5-1.56-9.29,1-9.67,5.77a2.61,2.61,0,0,0,1,2.08,2.29,2.29,0,0,0,2.2-.4,11.2,11.2,0,0,0,2-3.7C245.54,801.59,245.46,801.57,249,801.16Z"/><path d="M270.77,821.63c-.34,3.69-.79,7-4.14,8.47s-6.18-.49-8.62-2.56a9.14,9.14,0,0,1-2.83-10.13,9.92,9.92,0,0,1,8.8-5.92c2.85,0,4.83,1.16,5.57,3.8C270.17,817.5,270.43,819.8,270.77,821.63Zm-5.2-2.12a13,13,0,0,0-.52-2.33,1.15,1.15,0,0,0-1-.49,5.14,5.14,0,0,0-3.6,6.46c.33,1,.81,2.09,1.94,1.87a3.44,3.44,0,0,0,2.15-1.69A18.7,18.7,0,0,0,265.57,819.51Z"/><path d="M229.27,855.69a25.8,25.8,0,0,1,3.34,1.58c1.7,1.13,1.75,2.32,0,3.6-1.29.93-1,1.48-.09,2.29,1.12,1,2.07,2.22,1.56,3.77a25.21,25.21,0,0,1-2.54,5.85c-.46.73-2,1-3.12,1-2.49,0-6.14-2.92-6.84-5.28-1.1-3.67,1.65-10.24,5-11.92A23.87,23.87,0,0,1,229.27,855.69Z"/><path d="M205.48,861.83c-6,0-9.07-5.05-6.93-9.82a11.16,11.16,0,0,1,5-5.12,4.21,4.21,0,0,1,5.16.7,34.87,34.87,0,0,1,3.19,3.46c2.48,3,2.05,6.17-1.23,8.2A54.29,54.29,0,0,1,205.48,861.83Zm2.52-9.26c-.33-.17-.8-.62-1.17-.54a3.18,3.18,0,0,0-2.31,3.11.73.73,0,0,0,.53.45A4.22,4.22,0,0,0,208,852.57Z"/><path d="M246.41,876.8c.08,3.64-2,6.53-4.77,6.61-2.61.07-5.39-2.16-5.53-4.45-.24-4,2-6.79,5.44-6.84C244.7,872.07,246.34,873.65,246.41,876.8Z"/></g></g></g></svg>